<svg width="64" height="64" viewBox="0 0 64 64" fill="none" xmlns="http://www.w3.org/2000/svg">
<path d="M21.5997 24C22.1815 26.6182 24.3634 28.4364 26.9815 28.4364C29.527 28.4364 31.7088 26.6182 32.3634 24C32.3634 24 33.0906 20.7273 33.1634 19.7818C33.2361 18.4 33.2361 17.8909 33.0906 16.9455C32.727 14.4727 30.1088 12.5818 26.9815 12.5818C23.8543 12.5818 21.2361 14.4727 20.8725 16.9455C20.727 17.8909 20.727 18.4 20.7997 19.8545C20.8725 20.5818 21.4543 23.2727 21.5997 24ZM22.8361 17.1636C23.0543 15.7091 24.8725 14.5455 26.9088 14.5455C29.0179 14.5455 30.8361 15.7091 30.9815 17.1636C31.0543 17.9636 31.0543 18.3273 31.0543 19.6364C30.9815 20.2182 30.6179 22.3273 30.327 23.5636C29.9634 25.2364 28.5088 26.4 26.9088 26.4C25.3088 26.4 23.927 25.2364 23.4906 23.5636C23.2725 22.4727 22.8361 20.2182 22.7634 19.6364C22.7634 18.3273 22.7634 17.9636 22.8361 17.1636Z" fill="#90BF57"/>
<path d="M36.6549 30.8364L32.364 28.5818C32.073 28.4364 31.7821 28.4364 31.4912 28.5091L26.9094 30.3273L22.3276 28.5091C22.2549 28.4364 22.1094 28.4364 21.964 28.4364C21.964 28.4364 21.964 28.4364 21.8912 28.4364C21.7458 28.4364 21.6003 28.4364 21.4549 28.5091L17.0912 30.8364C13.3094 33.0909 12.873 40 12.873 40.2909C12.873 40.5818 12.9458 40.8 13.164 41.0182C13.3821 41.2364 13.6003 41.3091 13.8912 41.3091H40.0003C40.2912 41.3091 40.5094 41.1636 40.7276 41.0182C40.9458 40.8 41.0185 40.5091 41.0185 40.2909C40.9458 40 40.5094 33.1636 36.6549 30.8364ZM30.9821 32.6545L29.2367 31.5636L30.9821 30.9091V32.6545ZM23.0549 30.9091L24.8003 31.5636L23.0549 32.5818V30.9091ZM25.8912 36.3636H28.073L28.364 39.3455H25.6003L25.8912 36.3636ZM28.0003 33.3818V34.4H26.0367V33.3818C26.0367 33.3091 25.964 33.2364 25.964 33.1636L27.0549 32.5091L28.1458 33.1636C28.073 33.3091 28.0003 33.3091 28.0003 33.3818ZM18.1821 32.5818L21.0185 31.0545V34.3273C21.0185 34.6909 21.2367 35.0545 21.5276 35.2C21.673 35.2727 21.8185 35.3455 22.0367 35.3455C22.2549 35.3455 22.4003 35.2727 22.5458 35.2L24.0003 34.3273V35.2727L23.564 39.3455H15.0549C15.4185 37.3091 16.2912 33.8182 18.1821 32.5818ZM30.4003 39.4182L29.964 35.3455V34.3273L31.4185 35.2C31.564 35.2727 31.7821 35.3455 31.9276 35.3455C32.073 35.3455 32.2912 35.2727 32.4367 35.2C32.7276 35.0545 32.9458 34.6909 32.9458 34.3273V31.0545L35.7094 32.5091C37.673 33.7455 38.5458 37.2364 38.9094 39.3455H30.4003V39.4182Z" fill="#90BF57"/>
<path d="M63.7086 50.9818L52.7995 40.0727C52.5086 40.6545 52.145 41.3091 51.7814 41.8909L61.5995 51.7091L51.7086 61.6L41.8904 51.7818C41.3086 52.1454 40.7268 52.5091 40.0723 52.8L50.9814 63.7091C51.1995 63.9273 51.4177 64 51.7086 64C51.9995 64 52.2177 63.9273 52.4359 63.7091L63.7086 52.4364C64.0723 52 64.0723 51.3455 63.7086 50.9818Z" fill="#90BF57"/>
<path d="M26.9818 53.9636C12.0727 53.9636 0 41.8182 0 26.9818C0 12.0727 12.0727 0 26.9818 0C41.8909 0 53.9636 12.0727 53.9636 26.9818C53.9636 34.1818 51.2 40.9455 46.1091 46.0364C40.9455 51.1273 34.1818 53.9636 26.9818 53.9636ZM26.9818 1.96364C13.2364 1.96364 2.03636 13.2364 1.96364 26.9818C1.96364 40.7273 13.1636 51.9273 26.9091 51.9273C33.6 51.9273 39.8545 49.3091 44.5818 44.5818C49.3091 39.8545 51.9273 33.6 51.9273 26.9091C51.9273 13.2364 40.7273 1.96364 26.9818 1.96364Z" fill="#90BF57"/>
</svg>
