<svg width="64" height="64" viewBox="0 0 64 64" fill="none" xmlns="http://www.w3.org/2000/svg">
<path d="M63.0674 58.0542H62.0182V55.0233C62.0182 54.4404 61.5519 53.9741 60.969 53.9741H59.9199V50.9431C59.9199 50.3603 59.4536 49.894 58.8707 49.894H58.6375C58.7541 49.3111 58.8707 48.7282 58.8707 47.9122C58.8707 39.169 58.2878 31.5916 57.9381 28.9103H58.8707C59.4536 28.9103 59.9199 28.444 59.9199 27.8612V24.8302H60.969C61.5519 24.8302 62.0182 24.3639 62.0182 23.781V19.8175C62.0182 19.4677 61.9016 19.118 61.6685 19.0014L32.5246 0.116179C32.1749 -0.000396335 31.8251 -0.000396335 31.4754 0.116179L2.44809 19.3512C2.21494 19.4677 2.09836 19.7009 2.09836 20.0506H1.98179V24.0142C1.98179 24.5971 2.44809 25.0634 3.03097 25.0634H5.01275V27.9777C5.01275 28.5606 5.47905 29.0269 6.06193 29.0269H6.99454C6.76138 31.8247 6.06193 39.2856 6.06193 48.0287C6.06193 48.8448 6.17851 49.5442 6.29508 50.0105H5.94536C5.36248 50.0105 4.89617 50.4768 4.89617 51.0597V54.0907H3.03097C2.44809 54.0907 1.98179 54.557 1.98179 55.1399V58.1708H1.04918C0.466302 58.1708 0 58.6371 0 59.22V63.1836C0 63.7664 0.466302 64.2327 1.04918 64.2327H63.0674C63.6503 64.2327 64.1166 63.7664 64.1166 63.1836V59.22C64 58.5205 63.5337 58.0542 63.0674 58.0542ZM15.9709 50.0105H15.7377C15.8543 49.4277 15.9709 48.8448 15.9709 48.0287C15.9709 39.2856 15.388 31.7082 15.0383 29.0269H15.9709C16.5537 29.0269 17.02 28.5606 17.02 27.9777V24.9468H25.9964V27.9777C25.9964 28.5606 26.4627 29.0269 27.0455 29.0269H27.9781C27.745 31.8247 27.0455 39.2856 27.0455 48.0287C27.0455 48.8448 27.1621 49.5442 27.2787 50.0105H27.0455C26.4627 50.0105 25.9964 50.4768 25.9964 51.0597V54.0907H17.02V51.0597C17.02 50.4768 16.5537 50.0105 15.9709 50.0105ZM34.9727 48.0287C34.9727 49.3111 34.7395 49.894 34.623 50.0105H29.2605C29.1439 49.7774 28.9107 49.3111 28.9107 48.0287C28.9107 39.169 29.6102 31.5916 29.8434 29.0269H34.0401C34.3898 31.5916 34.9727 39.169 34.9727 48.0287ZM36.0219 27.0451H27.9781V25.0634H36.0219V27.0451ZM27.9781 51.9923H36.0219V53.9741H27.9781V51.9923ZM37.071 50.0105H36.8379C36.9545 49.4277 37.071 48.8448 37.071 48.0287C37.071 39.2856 36.4882 31.7082 36.1384 29.0269H37.071C37.6539 29.0269 38.1202 28.5606 38.1202 27.9777V24.9468H48.1457V27.9777C48.1457 28.5606 48.612 29.0269 49.1949 29.0269H50.1275C49.8944 31.8247 49.1949 39.2856 49.1949 48.0287C49.1949 48.8448 49.3115 49.5442 49.4281 50.0105H49.1949C48.612 50.0105 48.1457 50.4768 48.1457 51.0597V54.0907H38.1202V51.0597C38.0036 50.4768 37.5373 50.0105 37.071 50.0105ZM50.0109 51.9923H58.0546V53.9741H50.0109V51.9923ZM57.0055 48.0287C57.0055 49.3111 56.7723 49.894 56.6557 50.0105H51.2933C51.1767 49.7774 50.9435 49.3111 50.9435 48.0287C50.9435 39.169 51.643 31.5916 51.8761 29.0269H56.0729C56.306 31.5916 57.0055 39.169 57.0055 48.0287ZM58.0546 27.0451H50.0109V25.0634H58.0546V27.0451ZM32.0583 2.21454L57.7049 19.0014L6.41166 19.118L32.0583 2.21454ZM3.96357 22.965V21.0998L60.0364 20.9832V22.965H3.96357ZM15.0383 25.0634V27.0451H6.99454V25.0634H15.0383ZM13.0565 29.0269C13.2896 31.5916 13.9891 39.169 13.9891 48.0287C13.9891 49.3111 13.7559 49.894 13.6393 50.0105H8.27687C8.16029 49.7774 7.92714 49.3111 7.92714 48.0287C7.92714 39.169 8.62659 31.5916 8.85975 29.0269H13.0565ZM6.99454 51.9923H15.0383V53.9741H6.99454V51.9923ZM3.96357 56.0725H60.0364V58.0542H3.96357V56.0725ZM62.0182 62.0178H1.98179V60.036H62.0182V62.0178Z" fill="#90BF57"/>
</svg>
