<svg width="64" height="64" viewBox="0 0 64 64" fill="none" xmlns="http://www.w3.org/2000/svg">
<path d="M60 62H4V40.4C3.2 40.1333 2.53333 39.8667 2 39.6V62.9333C2 63.4667 2.4 63.8667 3.06667 63.8667H61.0667C61.6 63.8667 62 63.4667 62 62.9333V39.7333C61.4667 40 60.8 40.2667 60 40.5333V62Z" fill="#90BF57"/>
<path d="M18.9331 5.46667C21.4664 3.33333 26.3997 2 31.9997 2C37.4664 2 42.5331 3.33333 45.0664 5.46667V9.06667H47.0664V5.06667C47.0664 4.8 46.9331 4.53333 46.7997 4.4C43.8664 1.6 38.2664 0 31.9997 0C25.7331 0 20.1331 1.6 17.3331 4.26667C17.1997 4.4 17.0664 4.66667 17.0664 4.93333V8.93333H19.0664V5.46667H18.9331Z" fill="#90BF57"/>
<path d="M31.0664 42.9333V44.9333C31.3331 44.9333 31.7331 44.9333 31.9997 44.9333C32.2664 44.9333 32.6664 44.9333 33.0664 44.9333V42.9333C32.7997 42.9333 32.3997 42.9333 31.9997 42.9333C31.5997 42.9333 31.3331 42.9333 31.0664 42.9333Z" fill="#90BF57"/>
<path d="M63.0667 11.0667H1.06667C0.4 11.0667 0 11.4667 0 12.1333V36C0 36.4 0.266667 36.8 0.533333 36.9333C1.2 37.2 13.3333 42.5333 24.9333 44.4V42.4C15.0667 40.8 4.53333 36.5333 1.86667 35.3333V13.0667H61.8667V35.3333C59.3333 36.4 48.8 40.6667 38.8 42.4V44.4C50.4 42.5333 62.5333 37.2 63.2 36.9333C63.6 36.8 63.7333 36.4 63.7333 36V12.1333C64 11.4667 63.6 11.0667 63.0667 11.0667Z" fill="#90BF57"/>
<path d="M36.0003 50C36.5336 50 36.9336 49.6 36.9336 48.9333V38.9333C36.9336 38.4 36.5336 38 36.0003 38H28.0003C27.4669 38 26.9336 38.4 26.9336 38.9333V48.9333C26.9336 49.4667 27.3336 50 28.0003 50H36.0003ZM28.9336 40H34.9336V48H28.9336V40Z" fill="#90BF57"/>
</svg>
