<svg width="64" height="64" viewBox="0 0 64 64" fill="none" xmlns="http://www.w3.org/2000/svg">
<path d="M52.9333 58H50V55.0667C50 54.5333 49.6 54 48.9333 54H15.0667C14.5333 54 14 54.4 14 55.0667V58H11.0667C10.5333 58 10 58.4 10 59.0667V63.0667C10 63.6 10.4 64.1333 11.0667 64.1333H53.0667C53.6 64.1333 54.1333 63.7333 54.1333 63.0667V59.0667C54 58.4 53.6 58 52.9333 58ZM16 56H48V58H16V56ZM52 62H12V60H14.9333H48.9333H52V62Z" fill="#90BF57"/>
<path d="M32.9326 1.06667C32.9326 0.4 32.5326 0 31.9993 0C31.466 0 30.9326 0.4 30.9326 1.06667V6H32.9326V1.06667Z" fill="#90BF57"/>
<path d="M63.8662 32.8C63.8662 32.6667 63.8662 32.6667 63.8662 32.5333L54.3995 9.86667H59.9995C60.5329 9.86667 61.0662 9.46667 61.0662 8.8C61.0662 8.4 60.5329 8 59.9995 8H32.9329H30.9329H3.99954C3.46621 8 2.93288 8.4 2.93288 8.93333C2.93288 9.46667 3.33288 10 3.99954 10H9.46621L-0.000455707 32.6667C-0.000455707 32.6667 -0.000455707 32.8 -0.000455707 32.9333L-0.133789 33.0667C-0.000455707 39.0667 4.93288 44 11.0662 44C17.0662 44 22.1329 39.0667 22.1329 32.9333C22.1329 32.8 22.1329 32.8 21.9995 32.8C21.9995 32.6667 21.9995 32.6667 21.9995 32.5333L12.5329 9.86667H31.0662V52H33.0662V10H51.5995L42.1329 32.6667C42.1329 32.6667 42.1329 32.8 42.1329 32.9333L41.9995 33.0667C41.9995 39.0667 46.9329 44.1333 52.9329 44.1333C58.9329 44.1333 63.9995 39.2 63.9995 33.0667C63.9995 32.9333 63.9995 32.9333 63.8662 32.8ZM11.0662 11.6L19.4662 32H2.53288L11.0662 11.6ZM11.0662 42C6.39955 42 2.66621 38.5333 2.13288 34H19.9995C19.4662 38.5333 15.5995 42 11.0662 42ZM61.4662 32H44.5329L53.0662 11.6L61.4662 32ZM52.9329 42C48.2662 42 44.5329 38.5333 43.9995 34H61.8662C61.4662 38.5333 57.5995 42 52.9329 42Z" fill="#90BF57"/>
</svg>
