<svg width="47" height="64" viewBox="0 0 47 64" fill="none" xmlns="http://www.w3.org/2000/svg">
<path d="M45.7019 14.7425L31.2195 0.260163C31.0461 0.0867209 30.7859 0 30.5257 0H1.04065C0.433604 0 0 0.433604 0 1.04065V63.0461C0 63.5664 0.433604 64.0867 1.04065 64.0867H45.0948C45.6152 64.0867 46.1355 63.6531 46.1355 63.0461V15.4363C46.0488 15.1762 45.8753 14.916 45.7019 14.7425ZM31.5664 3.38211L42.6667 14.4824H31.5664V3.38211ZM1.99458 62.0054V1.99458H29.5718V15.4363C29.5718 15.9566 30.0054 16.477 30.6125 16.477H44.0542V62.0054H1.99458Z" fill="#90BF57"/>
<path d="M37.03 24.0217H9.01917C8.49884 24.0217 7.97852 24.4553 7.97852 25.0623V50.0379C7.97852 50.5583 8.41212 51.0786 9.01917 51.0786H28.011V55.0677C28.011 55.5881 28.4446 56.1084 29.0517 56.1084H37.03C37.5503 56.1084 38.0707 55.6748 38.0707 55.0677V24.9756C37.9839 24.4553 37.5503 24.0217 37.03 24.0217ZM28.011 31.0461V34.0813H22.0273V31.0461H28.011ZM22.0273 29.0515V26.0162H28.011V29.0515H22.0273ZM22.0273 35.9891H28.011V39.0244H22.0273V35.9891ZM20.0327 39.0244H9.9731V35.9891H19.946V39.0244H20.0327ZM30.0056 35.9891H35.9894V39.0244H30.0056V35.9891ZM30.0056 33.9946V30.9593H35.9894V33.9946H30.0056ZM20.0327 33.9946H9.9731V30.9593H19.946V33.9946H20.0327ZM9.9731 41.019H19.946V44.0542H9.9731V41.019ZM22.0273 41.019H28.011V44.0542H22.0273V41.019ZM30.0056 41.019H35.9894V44.0542H30.0056V41.019ZM35.9894 29.0515H30.0056V26.0162H35.9894V29.0515ZM20.0327 26.0162V29.0515H9.9731V26.0162H20.0327ZM9.9731 46.0488H19.946V49.084H9.9731V46.0488ZM22.0273 48.9973V45.962H28.011V48.9973H22.0273ZM35.9894 54.0271H30.0056V50.9919H35.9894V54.0271ZM30.0056 48.9973V45.962H35.9894V48.9973H30.0056Z" fill="#90BF57"/>
<path d="M9.01917 9.9729H16.0436C16.5639 9.9729 17.0842 9.5393 17.0842 8.93225C17.0842 8.41193 16.6506 7.8916 16.0436 7.8916H9.01917C8.49884 7.8916 7.97852 8.32521 7.97852 8.93225C7.97852 9.5393 8.41212 9.9729 9.01917 9.9729Z" fill="#90BF57"/>
<path d="M9.01917 13.962H16.0436C16.5639 13.962 17.0842 13.5284 17.0842 12.9214C17.0842 12.4011 16.6506 11.9675 16.0436 11.9675H9.01917C8.49884 11.9675 7.97852 12.4011 7.97852 12.9214C7.97852 13.5284 8.41212 13.962 9.01917 13.962Z" fill="#90BF57"/>
<path d="M9.01917 18.0379H22.0273C22.5476 18.0379 23.0679 17.6043 23.0679 17.084C23.0679 16.5637 22.6343 16.0434 22.0273 16.0434H9.01917C8.49884 16.0434 7.97852 16.477 7.97852 17.084C7.97852 17.6043 8.41212 18.0379 9.01917 18.0379Z" fill="#90BF57"/>
</svg>
