<svg width="64" height="64" viewBox="0 0 64 64" fill="none" xmlns="http://www.w3.org/2000/svg">
<path d="M63.1268 57.4546L60.2905 54.6182L24.945 19.2727L28.6541 15.6364C29.0177 15.8545 29.4541 15.9273 29.8904 15.9273C30.6904 15.9273 31.4177 15.6364 31.9995 15.0545L33.3814 13.6727C34.545 12.5091 34.545 10.6182 33.3814 9.45455L24.8723 0.872727C23.7814 -0.290909 21.745 -0.290909 20.6541 0.872727L19.1995 2.25455C18.2541 3.2 18.1086 4.50909 18.6177 5.67273L5.67227 18.6909C4.58136 18.1818 3.19954 18.3273 2.32681 19.2727L0.944993 20.6545C-0.218643 21.8182 -0.218643 23.7091 0.944993 24.8727L9.45408 33.3818C10.0359 33.9636 10.7632 34.2545 11.5632 34.2545C12.3632 34.2545 13.0904 33.9636 13.6723 33.3818L15.0541 32C15.9995 31.0545 16.145 29.7455 15.6359 28.5818L19.345 24.8727L21.4541 26.9818L54.6904 60.2182L57.5268 63.0546C58.1086 63.6364 58.8359 63.9273 59.6359 63.9273C60.4359 63.9273 61.1632 63.6364 61.745 63.0546L63.1268 61.6727C64.2905 60.5091 64.2905 58.6182 63.1268 57.4546ZM53.9632 56.7273L56.7995 53.8909L58.1814 55.2727L55.345 58.1818L53.9632 56.7273ZM23.4904 26.3273L26.3268 23.4909L55.345 52.5091L52.5086 55.3455L23.4904 26.3273ZM20.6541 3.70909L22.0359 2.32727C22.2541 2.10909 22.4723 2.03636 22.7632 2.03636C23.0541 2.03636 23.2723 2.10909 23.4904 2.32727L31.9995 10.7636C32.3632 11.1273 32.3632 11.7818 31.9995 12.1455L30.6177 13.5273C30.2541 13.8909 29.5995 13.8909 29.2359 13.5273L20.6541 5.09091C20.2904 4.72727 20.2904 4.07273 20.6541 3.70909ZM19.9268 7.2L23.4904 10.7636L27.0541 14.3273L22.8359 18.5455L18.6177 22.7636L14.3995 26.9818L10.8359 23.4182L7.27227 19.8545L19.9268 7.2ZM13.5995 30.5455L12.2177 32C11.8541 32.3636 11.1995 32.3636 10.7632 32L2.25408 23.4909C1.89045 23.1273 1.89045 22.4727 2.25408 22.1091L3.6359 20.7273C3.85408 20.5091 4.07227 20.4364 4.36317 20.4364C4.65408 20.4364 4.87227 20.5091 5.09045 20.7273L13.5995 29.2364C14.0359 29.5273 14.0359 30.1818 13.5995 30.5455ZM23.4904 20.6545L24.8723 22.0364L22.0359 24.8727L20.6541 23.4909L23.4904 20.6545ZM61.745 60.2909L60.2905 61.6727C60.0723 61.8909 59.8541 61.9636 59.5632 61.9636C59.2723 61.9636 59.0541 61.8909 58.8359 61.6727L56.7268 59.5636L59.6359 56.7273L61.745 58.8364C62.1086 59.2727 62.1086 59.9273 61.745 60.2909Z" fill="#90BF57"/>
<path d="M27.7091 56.1455L25.8909 52.5818C25.7455 52.2182 25.3818 52 25.0182 52H15.0545H5.01818C4.65455 52 4.29091 52.2182 4.14545 52.5818L2.32727 56.1455C1.01818 56.4364 0 57.6 0 58.9818V62.9818C0 63.5636 0.509091 64 1.01818 64H29.0182C29.6 64 30.0364 63.5636 30.0364 62.9818V58.9818C30.0364 57.6 29.0182 56.4364 27.7091 56.1455ZM5.67273 54.0364H15.0545H24.4364L25.4545 56H4.65455L5.67273 54.0364ZM28 61.9636H2.03636V58.9818C2.03636 58.4 2.47273 57.9636 3.05455 57.9636H27.0545C27.6364 57.9636 28.0727 58.4 28.0727 58.9818V61.9636H28Z" fill="#90BF57"/>
</svg>
