<svg width="55" height="64" viewBox="0 0 55 64" fill="none" xmlns="http://www.w3.org/2000/svg">
<path d="M43.5703 58.0067H28.1165V52.0134H26.1847V58.0067H10.7309L6.43817 62.2876C6.00889 62.7157 6.00889 63.3579 6.43817 63.786C6.6528 64 6.86744 64 7.08208 64C7.29671 64 7.51135 64 7.72598 63.786L11.3748 60.1472H25.9701V63.1438C25.9701 63.786 26.3994 64.2141 27.0433 64.2141C27.6872 64.2141 28.1165 63.786 28.1165 63.1438V60.1472H42.7117L46.3606 63.786C46.5752 64 46.7898 64 47.0045 64C47.2191 64 47.4337 64 47.6484 63.786C48.0776 63.3579 48.0776 62.7157 47.6484 62.2876L43.5703 58.0067Z" fill="#90BF57"/>
<path d="M54.303 32.107C54.303 31.6789 54.0884 31.2508 53.6591 31.0368L48.2932 29.3244V11.9866C48.2932 5.35117 39.0638 0 27.2588 0C15.2392 0 6.00982 5.35117 6.00982 11.9866V29.3244L0.64391 31.0368C0.214637 31.2508 0 31.6789 0 32.107L1.93173 45.1639V47.0903C1.93173 48.8027 3.21955 50.087 4.93664 50.087H49.1518C50.8688 50.087 52.1567 48.8027 52.1567 47.0903V45.1639L54.303 32.107ZM52.1567 32.7492L50.8689 40.6689C50.4396 40.2408 49.7957 40.0268 49.1518 40.0268H48.2932V31.2508L52.1567 32.7492ZM27.0442 1.92642C37.3468 1.92642 46.1468 6.4214 46.1468 11.9866V40.2408L27.2588 41.9532L8.15619 40.2408V11.9866C7.94155 6.63545 16.7416 1.92642 27.0442 1.92642ZM6.00982 31.4649V40.2408H4.93664C4.29273 40.2408 3.64882 40.4549 3.21955 40.8829L2.14636 32.7492L6.00982 31.4649ZM50.2249 47.0903C50.2249 47.7324 49.7957 48.1605 49.1518 48.1605H4.93664C4.29273 48.1605 3.86346 47.7324 3.86346 47.0903V43.0234C3.86346 42.3813 4.29273 41.9532 4.722 41.9532L27.0442 43.8796L49.1518 41.9532C49.7957 41.9532 50.2249 42.3813 50.2249 43.0234V47.0903Z" fill="#90BF57"/>
</svg>
