<svg width="64" height="64" viewBox="0 0 64 64" fill="none" xmlns="http://www.w3.org/2000/svg">
<path d="M5.21121 62.427C4.91628 62.8203 4.91628 63.4102 5.30952 63.8034C5.50614 64 5.70276 64 5.89938 64C6.19431 64 6.48924 63.9017 6.68586 63.6068L10.0284 59.5761C9.53686 59.1828 8.947 58.7896 8.45545 58.298L5.21121 62.427Z" fill="#90BF57"/>
<path d="M49.4499 58.298C48.9584 58.7896 48.4668 59.1828 47.877 59.5761L51.2195 63.6068C51.4161 63.8034 51.7111 64 52.006 64C52.2026 64 52.4975 63.9017 52.5958 63.8034C52.9891 63.4102 53.0874 62.8203 52.6942 62.427L49.4499 58.298Z" fill="#90BF57"/>
<path d="M63.9999 6.68511C63.9016 6.29187 63.6066 6.09525 63.2134 5.99694L58.6911 5.30877L58.003 0.884803C57.9046 0.491562 57.708 0.196631 57.3148 0.098321C56.9215 1.07251e-05 56.5283 0.098321 56.3317 0.294942L50.3348 6.29187C50.2364 6.39018 50.2364 6.48849 50.1381 6.5868C50.0398 6.68511 48.6635 9.63442 50.4331 12.1905L32.7372 29.8863L31.1642 28.3134C30.8693 28.0184 30.5744 27.9201 30.1811 28.0184C29.7879 28.1168 29.5913 28.4117 29.493 28.7066L28.0183 34.7035C27.92 34.9985 28.0183 35.3917 28.3132 35.6866C28.5099 35.8833 28.8048 35.9816 29.0014 35.9816C29.0997 35.9816 29.198 35.9816 29.198 35.9816L35.195 34.5069C35.5882 34.4086 35.7848 34.1137 35.8831 33.8188C35.9814 33.5238 35.8831 33.1306 35.5882 32.8357L34.0152 31.2627L51.7111 13.5668C52.5959 14.1567 53.579 14.4516 54.6604 14.4516C56.1351 14.4516 57.2165 13.9601 57.3148 13.8618C57.4131 13.7635 57.5114 13.7635 57.6097 13.6651L63.6066 7.66821C63.9999 7.47159 64.0982 7.07835 63.9999 6.68511ZM30.3778 33.6221L31.0659 30.9678L33.0321 32.934L30.3778 33.6221ZM59.6742 8.94625L56.9215 8.55301L58.1996 7.27497L60.9523 7.66821L59.6742 8.94625ZM56.7249 5.89863L55.4469 7.17666L55.0536 4.42397L56.3317 3.14594L56.7249 5.89863ZM51.9077 7.5699L53.3824 6.09525L53.7756 8.84794L51.9077 10.7158C51.2195 9.4378 51.7111 7.96314 51.9077 7.5699ZM56.43 12.1905C56.1351 12.2888 55.5452 12.4854 54.7587 12.4854C54.1689 12.4854 53.6773 12.3871 53.2841 12.0922L55.152 10.2243L57.9046 10.6175L56.43 12.1905Z" fill="#90BF57"/>
<path d="M26.7407 31.8526L27.3305 29.3948C26.3474 29.6897 25.4626 30.083 24.7745 30.8694C23.6931 32.0492 23.0049 33.5238 23.0049 35.0968C23.0049 36.6698 23.5947 38.2427 24.7745 39.3241C25.9542 40.5039 27.4288 41.0937 29.0018 41.0937C30.5748 41.0937 32.1477 40.5039 33.2292 39.3241C34.0156 38.5377 34.4089 37.6529 34.7038 36.7681L32.1477 37.3579C32.0494 37.5545 31.9511 37.7512 31.7545 37.8495C30.2798 39.3241 27.6255 39.3241 26.0525 37.8495C25.266 37.063 24.8728 36.0799 24.8728 34.9985C24.8728 33.9171 25.266 32.934 26.0525 32.1475C26.3474 32.0492 26.5441 31.9509 26.7407 31.8526Z" fill="#90BF57"/>
<path d="M34.3103 25.4624L35.7849 23.9877C33.7204 22.7097 31.4593 22.0215 29.0015 22.0215C25.5607 22.0215 22.2181 23.3979 19.7604 25.8556C14.7465 30.8694 14.7465 39.1275 19.7604 44.2396C22.2181 46.6974 25.4624 48.0737 29.0015 48.0737C32.4424 48.0737 35.7849 46.6974 38.2427 44.2396C40.7005 41.7819 42.0768 38.5376 42.0768 34.9985C42.0768 32.5407 41.3886 30.1813 40.1106 28.2151L38.6359 29.6897C39.5207 31.2627 40.1106 33.1306 40.1106 34.9985C40.1106 37.9478 38.9309 40.7005 36.8664 42.765C34.8018 44.8295 32.0492 46.0092 29.0998 46.0092C26.1505 46.0092 23.3978 44.8295 21.3333 42.765C17.0077 38.4393 17.0077 31.4593 21.3333 27.232C23.3978 25.1674 26.1505 23.9877 29.0998 23.9877C30.8694 23.9877 32.7373 24.5776 34.3103 25.4624Z" fill="#90BF57"/>
<path d="M41.5855 18.1874C37.948 15.4347 33.6224 13.9601 29.0018 13.9601C23.3981 13.9601 18.0893 16.1229 14.1569 20.1536C5.99717 28.3134 5.99717 41.6836 14.1569 49.8433C18.0893 53.7757 23.3981 56.0369 29.0018 56.0369C34.6055 56.0369 39.9142 53.874 43.8466 49.8433C51.3182 42.3717 52.0064 30.6728 45.8128 22.4148L44.3382 23.8894C49.7452 31.361 49.1554 41.7819 42.4703 48.467C38.8328 52.1045 34.1139 54.0707 29.0018 54.0707C23.8896 54.0707 19.1708 52.1045 15.5333 48.467C8.16 41.0937 8.16 29.0015 15.5333 21.6283C19.1708 17.9908 23.8896 16.0246 29.0018 16.0246C33.0325 16.0246 36.9649 17.3026 40.1108 19.6621L41.5855 18.1874Z" fill="#90BF57"/>
<path d="M50.1384 18.1874C53.9725 22.9063 56.037 28.8049 56.037 34.9985C56.037 42.1751 53.186 48.9585 48.0739 54.0707C42.9618 59.1828 36.1784 62.0338 29.0017 62.0338C21.825 62.0338 15.0416 59.1828 9.9295 54.0707C-0.589698 43.5515 -0.589698 26.3472 9.9295 15.828C15.0416 10.7158 21.825 7.96315 29.0017 7.96315C35.1952 7.96315 41.0939 10.0277 45.9111 13.8618L47.2874 12.3871C42.1753 8.15977 35.7851 5.89864 29.0017 5.89864C21.2352 5.89864 13.9602 8.94626 8.45485 14.3533C-2.85083 25.8556 -2.85083 44.2397 8.45485 55.5453C13.9602 61.0507 21.2352 64 29.0017 64C36.7682 64 44.0432 60.9524 49.5486 55.5453C55.0539 50.04 58.1015 42.765 58.1015 34.9985C58.1015 28.2151 55.8404 21.8249 51.6131 16.7128L50.1384 18.1874Z" fill="#90BF57"/>
</svg>
