<svg width="64" height="64" viewBox="0 0 64 64" fill="none" xmlns="http://www.w3.org/2000/svg">
<path d="M5.06545 6.06315H59.1024V38.9053H61.1288V5.05263C61.1288 4.54736 60.6222 4.0421 60.1156 4.0421H4.05226C3.37679 4.0421 3.03906 4.37894 3.03906 5.05263V38.9053H5.06545V6.06315Z" fill="#90BF57"/>
<path d="M60.9604 40.9263H3.03958C1.35092 40.9263 0 42.2737 0 43.9579V45.9789C0 47.6632 1.35092 49.0105 3.03958 49.0105H31.0712V53.7263L22.2902 62.3158C21.9525 62.6526 21.9525 63.3263 22.2902 63.6632C22.628 64 23.3034 64 23.6412 63.6632L30.9024 56.4211V62.8211C30.9024 63.3263 31.409 63.8316 31.9156 63.8316C32.4222 63.8316 32.9288 63.3263 32.9288 62.8211V56.4211L40.19 63.6632C40.3588 63.8316 40.6966 64 40.8654 64C41.2032 64 41.372 63.8316 41.5409 63.6632C41.8786 63.3263 41.8786 62.6526 41.5409 62.3158L32.7599 53.5579V48.8421H60.7916C62.4802 48.8421 63.8311 47.4947 63.8311 45.8105V43.7895C64 42.2737 62.6491 40.9263 60.9604 40.9263ZM61.9736 45.8105C61.9736 46.3158 61.467 46.8211 60.9604 46.8211H3.03958C2.53298 46.8211 2.02639 46.3158 2.02639 45.8105V43.7895C2.02639 43.2842 2.53298 42.7789 3.03958 42.7789H61.1293C61.6359 42.7789 62.1425 43.2842 62.1425 43.7895V45.8105H61.9736Z" fill="#90BF57"/>
<path d="M32.9298 1.01053C32.9298 0.505263 32.5921 0 32.0855 0C31.5789 0 31.0723 0.505263 31.0723 1.01053V2.02105H33.0986V1.01053H32.9298Z" fill="#90BF57"/>
<path d="M10.9766 28.9684C10.9766 32.3368 13.6784 35.0316 17.0557 35.0316C20.433 35.0316 23.1349 32.3368 23.1349 28.9684C23.1349 25.6 20.433 22.9053 17.0557 22.9053C13.6784 22.9053 10.9766 25.6 10.9766 28.9684ZM17.0557 24.9263C19.251 24.9263 21.1085 26.7789 21.1085 28.9684C21.1085 31.1579 19.251 33.0105 17.0557 33.0105C14.8605 33.0105 13.0029 31.1579 13.0029 28.9684C13.0029 26.7789 14.8605 24.9263 17.0557 24.9263Z" fill="#90BF57"/>
<path d="M13.3399 19.7053C13.5088 19.8737 13.8465 20.0421 14.0154 20.0421C14.3531 20.0421 14.522 19.8737 14.6908 19.7053L17.0549 17.3474L19.4191 19.7053C19.5879 19.8737 19.9257 20.0421 20.0945 20.0421C20.4323 20.0421 20.6011 19.8737 20.77 19.7053C21.1077 19.3684 21.1077 18.6947 20.77 18.3579L18.4059 16L20.77 13.6421C21.1077 13.3053 21.1077 12.6316 20.77 12.2947C20.4323 11.9579 19.7568 11.9579 19.4191 12.2947L17.0549 14.6526L14.6908 12.2947C14.3531 11.9579 13.6776 11.9579 13.3399 12.2947C13.0022 12.6316 13.0022 13.3053 13.3399 13.6421L15.704 16L13.3399 18.3579C12.8333 18.6947 12.8333 19.2 13.3399 19.7053Z" fill="#90BF57"/>
<path d="M52.6865 22.2316C52.3488 21.8947 51.6733 21.8947 51.3356 22.2316L48.1271 25.4316L44.9187 22.2316C44.5809 21.8947 43.9055 21.8947 43.5678 22.2316C43.23 22.5684 43.23 23.2421 43.5678 23.5789L46.9451 26.7789L43.5678 29.9789C43.23 30.3158 43.23 30.9895 43.5678 31.3263C43.7366 31.4947 44.0744 31.6631 44.2432 31.6631C44.5809 31.6631 44.7498 31.4947 44.9187 31.3263L48.1271 27.9579L51.3356 31.3263C51.5044 31.4947 51.8422 31.6631 52.011 31.6631C52.3488 31.6631 52.5176 31.4947 52.6865 31.3263C53.0242 30.9895 53.0242 30.3158 52.6865 29.9789L49.478 26.9474L52.6865 23.7474C53.1931 23.2421 53.1931 22.5684 52.6865 22.2316Z" fill="#90BF57"/>
<path d="M27.0191 27.9579C26.5125 27.9579 26.0059 28.4632 26.0059 28.9684C26.0059 29.4737 26.5125 29.979 27.0191 29.979C30.0586 29.979 36.9821 29.979 36.9821 20.0421V15.3263L38.333 16.6737C38.5019 16.8421 38.8396 17.0105 39.0085 17.0105C39.1774 17.0105 39.5151 16.8421 39.684 16.6737C40.0217 16.3368 40.0217 15.6632 39.684 15.3263L36.6444 12.2947C36.4755 12.1263 36.1378 11.9579 35.9689 11.9579C35.6312 11.9579 35.4623 12.1263 35.2935 12.2947L32.2539 15.3263C31.9162 15.6632 31.9162 16.3368 32.2539 16.6737C32.5916 17.0105 33.2671 17.0105 33.6048 16.6737L34.9557 15.3263V19.8737C34.9557 27.9579 30.0586 27.9579 27.0191 27.9579Z" fill="#90BF57"/>
</svg>
