<svg width="64" height="64" viewBox="0 0 64 64" fill="none" xmlns="http://www.w3.org/2000/svg">
<path d="M11.2789 40.0849C8.69719 40.0849 6.52309 41.7155 6.25132 43.7537C6.11544 44.569 6.11544 44.9767 6.25132 46.0637C6.25132 46.7431 6.79485 49.0531 6.93073 49.4607C7.33837 51.499 9.24071 52.9936 11.2789 52.9936C13.453 52.9936 15.2195 51.4989 15.763 49.3248C15.763 49.3248 16.3065 46.7431 16.4424 45.9278C16.4424 44.8408 16.4424 44.4331 16.4424 43.6178C16.1706 41.5796 13.9965 40.0849 11.2789 40.0849ZM14.4042 45.7919C14.4042 46.1996 13.9965 47.8302 13.8607 48.9172C13.5889 50.1401 12.5019 51.0913 11.4148 51.0913C10.1919 51.0913 9.24071 50.276 8.96895 49.0531C8.83307 48.2378 8.42542 46.3355 8.42542 45.9278C8.42542 44.8408 8.42542 44.569 8.42542 44.0255C8.5613 42.9384 9.92012 42.1231 11.5507 42.1231C13.1813 42.1231 14.4042 42.9384 14.676 44.0255C14.5401 44.569 14.5401 44.8408 14.4042 45.7919Z" fill="#90BF57"/>
<path d="M32.068 40.0849C29.4862 40.0849 27.3121 41.7155 27.0404 43.7537C26.9045 44.569 26.9045 44.9767 27.0404 46.0637C27.0404 46.7431 27.5839 49.0531 27.7198 49.4607C28.2633 51.6348 30.0298 53.1295 32.2039 53.1295C34.378 53.1295 36.1444 51.6348 36.6879 49.4607C36.6879 49.4607 37.2315 46.879 37.3674 46.0637C37.3674 44.9767 37.3674 44.569 37.3674 43.7537C36.8238 41.5796 34.6497 40.0849 32.068 40.0849ZM35.0574 45.7919C35.0574 46.1996 34.6497 47.8302 34.5138 48.9172C34.2421 50.1401 33.155 51.0913 32.068 51.0913C30.8451 51.0913 29.8939 50.276 29.6221 49.0531C29.4862 48.2378 29.0786 46.3355 29.0786 45.9278C29.0786 44.8408 29.0786 44.569 29.0786 44.0255C29.2145 42.9384 30.5733 42.1231 32.2039 42.1231C33.8344 42.1231 35.0574 42.9384 35.3291 44.0255C35.1933 44.569 35.1933 44.8408 35.0574 45.7919Z" fill="#90BF57"/>
<path d="M52.7221 40.0849C50.1403 40.0849 47.9662 41.7155 47.6945 43.7537C47.5586 44.4331 47.5586 44.8408 47.5586 46.0637C47.5586 46.7431 48.1021 49.0531 48.238 49.4607C48.7815 51.6348 50.548 53.1295 52.7221 53.1295C54.8962 53.1295 56.6626 51.6348 57.2061 49.4607C57.2061 49.4607 57.7497 46.879 57.8856 46.0637C57.8856 44.9767 57.8856 44.569 57.8856 43.7537C57.4779 41.5796 55.3038 40.0849 52.7221 40.0849ZM55.8473 45.7919C55.8473 46.1996 55.4397 47.8302 55.3038 48.9172C55.0321 50.1401 53.945 51.0913 52.858 51.0913C51.635 51.0913 50.6839 50.276 50.4121 49.0531C50.2762 48.2378 49.8686 46.3355 49.8686 45.9278C49.8686 44.8408 49.8686 44.569 49.8686 44.0255C50.0045 42.9384 51.3633 42.1231 52.9938 42.1231C54.6244 42.1231 55.8473 42.9384 56.1191 44.0255C55.8473 44.569 55.8473 44.8408 55.8473 45.7919Z" fill="#90BF57"/>
<path d="M60.4671 55.7113L57.0701 53.8089C56.7983 53.673 56.3907 53.673 55.983 53.9448C53.9448 55.4395 51.2272 55.3036 49.3248 53.9448C49.0531 53.673 48.6454 53.673 48.2378 53.9448L44.8408 55.7113C43.6178 56.3907 42.9384 57.6136 42.3949 58.8365C41.8514 57.6136 41.0361 56.3907 39.8132 55.5754L36.4161 53.8089C36.1444 53.673 35.7367 53.673 35.3291 53.9448C33.2909 55.4395 30.5733 55.3036 28.6709 53.9448C28.3992 53.673 27.9915 53.673 27.5839 53.9448L24.1868 55.7113C22.9639 56.3907 22.2845 57.6136 21.741 58.8365C21.1975 57.6136 20.3822 56.3907 19.1592 55.7113L15.7622 53.9448C15.3546 53.8089 15.0828 53.8089 14.6752 54.0807C12.6369 55.5754 9.91932 55.4395 8.01699 54.0807C7.74522 53.8089 7.33758 53.8089 6.92994 54.0807L3.53291 55.7113C0.407643 57.6136 0 62.7771 0 62.913C0 63.1847 0.135881 63.4565 0.271762 63.7282C0.407643 63.8641 0.679406 64 0.951168 64H21.741H42.3949H63.0488C63.3206 64 63.5924 63.8641 63.7282 63.7282C63.8641 63.5924 64 63.3206 64 62.913C64 62.7771 63.5924 57.6136 60.4671 55.7113ZM17.8004 62.0977V61.4183C17.8004 60.8747 17.3928 60.4671 16.8493 60.4671C16.3057 60.4671 15.8981 60.8747 15.8981 61.4183V62.0977H6.79406V61.4183C6.79406 60.8747 6.38641 60.4671 5.84289 60.4671C5.29936 60.4671 4.89172 60.8747 4.89172 61.4183V62.0977H2.1741C2.44586 60.603 3.12527 58.293 4.48408 57.4777L7.33758 55.983C9.78344 57.4777 12.9087 57.4777 15.3546 55.983L18.2081 57.4777C19.5669 58.293 20.2463 60.603 20.518 62.0977H17.8004ZM38.5902 62.0977V61.4183C38.5902 60.8747 38.1826 60.4671 37.6391 60.4671C37.0955 60.4671 36.6879 60.8747 36.6879 61.4183V62.0977H27.7197V61.4183C27.7197 60.8747 27.3121 60.4671 26.7686 60.4671C26.2251 60.4671 25.8174 60.8747 25.8174 61.4183V62.0977H23.0998C23.3716 60.603 24.051 58.293 25.4098 57.4777L28.2633 55.983C30.7091 57.4777 33.8344 57.4777 36.2803 55.983L39.1338 57.4777C40.4926 58.293 41.172 60.603 41.4437 62.0977H38.5902ZM59.2442 62.0977V61.4183C59.2442 60.8747 58.8365 60.4671 58.293 60.4671C57.7495 60.4671 57.3418 60.8747 57.3418 61.4183V62.0977H48.3737V61.4183C48.3737 60.8747 47.966 60.4671 47.4225 60.4671C46.879 60.4671 46.4713 60.8747 46.4713 61.4183V62.0977H43.7537C44.0255 60.603 44.7049 58.293 46.0637 57.4777L48.9172 55.983C51.3631 57.4777 54.4883 57.4777 56.9342 55.983L59.7877 57.4777C61.1465 58.293 61.8259 60.603 62.0977 62.0977H59.2442Z" fill="#90BF57"/>
<path d="M10.5986 37.7749C10.7345 37.9108 11.0062 38.0467 11.1421 38.0467C11.278 38.0467 11.4139 38.0467 11.4139 38.0467C11.6856 37.9108 11.9574 37.6391 12.0933 37.3673L12.7727 34.9214C13.9956 35.1932 15.2185 35.3291 16.4415 35.3291C19.5667 35.3291 22.5561 34.3779 25.1379 32.7473C27.0402 33.4268 28.9425 33.9703 30.9807 34.1062V37.0955C30.9807 37.3673 31.1166 37.7749 31.3884 37.9108C31.5243 38.0467 31.796 38.0467 31.9319 38.0467C32.0678 38.0467 32.2037 38.0467 32.3396 37.9108C32.4754 37.7749 37.2313 35.8726 41.7154 32.0679C44.433 34.5138 48.2376 35.7367 52.1782 35.3291L52.5858 37.0955C52.5858 37.3673 52.8576 37.6391 53.1294 37.7749C53.2652 37.7749 53.4011 37.9108 53.537 37.9108C53.6729 37.9108 53.9447 37.9108 54.0805 37.7749C54.4882 37.5032 65.4945 30.1656 63.5922 20.518C62.3693 14.9469 57.2058 10.8705 51.0911 10.8705C50.2759 10.8705 49.5965 10.8705 48.7812 11.0064C46.1994 4.3482 39.5413 0 32.0678 0C27.312 0 22.5561 1.90234 19.295 5.16348C18.072 4.89172 16.8491 4.75584 15.6262 4.75584C8.56037 4.75584 2.44572 9.23992 0.679263 15.6263C-2.71776 27.1762 10.0551 37.3673 10.5986 37.7749ZM61.554 21.0616C62.7769 27.5839 56.7982 33.155 54.2164 35.3291L53.9447 34.1062C53.8088 33.6985 53.4011 33.2909 52.9935 33.2909H52.8576C49.4606 33.9703 45.9277 33.0191 43.3459 30.845C43.7536 30.5733 44.0253 30.1656 44.2971 29.8938C44.433 29.758 44.7047 29.4862 44.8406 29.3503C45.52 28.6709 46.0635 27.9915 46.6071 27.1762C47.2865 27.7197 48.2376 27.9915 49.0529 27.9915C51.227 27.9915 52.9935 26.2251 52.9935 24.051C52.9935 22.0127 51.4988 20.3822 49.7323 20.1104C50.0041 19.0234 50.0041 18.0722 50.0041 16.9851C50.0041 16.1699 49.8682 15.3546 49.8682 14.6752C49.8682 14.4034 49.7323 14.1316 49.7323 13.8599C49.7323 13.5881 49.5965 13.1805 49.5965 12.9087C55.1676 12.2293 60.4669 15.7622 61.554 21.0616ZM47.2865 12.5011C47.83 13.9958 47.9659 15.4904 47.9659 16.9851C47.9659 18.2081 47.83 19.431 47.4224 20.7898C47.2865 21.0616 47.4224 21.4692 47.6941 21.741C47.9659 22.0127 48.2376 22.1486 48.6453 22.0127C49.8682 21.741 51.0911 22.6921 51.0911 23.9151C51.0911 25.0021 50.14 25.9533 49.0529 25.9533C48.3735 25.9533 47.6941 25.5456 47.2865 25.0021C47.1506 24.7304 46.743 24.4586 46.4712 24.4586C46.0635 24.4586 45.7918 24.5945 45.6559 24.8662C44.5689 26.6327 43.0742 28.3992 41.1718 30.0297C38.1824 32.7473 34.9213 34.5138 33.019 35.3291V32.8832C33.019 32.3397 32.6113 31.9321 32.0678 31.9321C29.7578 31.9321 27.5837 31.5244 25.4096 30.5732C22.5561 29.3503 20.1103 27.3121 18.4797 24.8662C21.605 24.5945 24.0508 22.0127 24.0508 18.8875C24.0508 15.6263 21.3332 12.9087 18.072 12.9087C17.5285 12.9087 17.1209 12.9087 16.5774 13.0446C17.2568 10.7346 18.4797 8.56051 20.2461 6.79406C23.2355 3.66879 27.5837 1.90234 32.0678 1.90234C38.9977 2.03822 45.1124 6.25053 47.2865 12.5011ZM2.44572 16.1699C4.07629 10.5987 9.37565 6.65817 15.4903 6.65817C16.1697 6.65817 16.8491 6.65817 17.5285 6.79406C17.3926 6.92994 17.3926 7.06582 17.2568 7.2017C17.1209 7.47346 16.8491 7.74522 16.7132 7.8811C16.4415 8.28875 16.1697 8.83227 15.8979 9.23992C15.7621 9.51168 15.6262 9.78344 15.4903 10.0552C15.2185 10.5987 15.0827 11.0064 14.9468 11.5499C14.8109 11.8217 14.8109 12.0934 14.675 12.2293C14.4033 13.0446 14.2674 13.724 14.1315 14.5393C14.1315 14.9469 14.2674 15.3546 14.5391 15.4904C14.8109 15.7622 15.3544 15.6263 15.6262 15.4904C16.3056 15.0828 17.1209 14.811 17.9362 14.811C20.1103 14.811 21.8767 16.5775 21.8767 18.7516C21.8767 20.9257 20.1103 22.6921 17.9362 22.6921C17.6644 22.6921 17.2568 22.6921 16.8491 22.5563C16.4415 22.4204 16.0338 22.5563 15.7621 22.828C15.4903 23.0998 15.4903 23.5074 15.6262 23.9151C16.0338 24.7304 16.5774 25.5456 17.1209 26.3609C17.2568 26.6327 17.5285 26.9045 17.6644 27.0403C18.072 27.5839 18.4797 27.9915 19.0232 28.535C19.295 28.8068 19.5667 29.0786 19.8385 29.2144C20.2461 29.6221 20.7897 30.0297 21.3332 30.3015C21.605 30.5732 21.8767 30.7091 22.2844 30.845C22.5561 30.9809 22.692 31.1168 22.8279 31.2527C20.7897 32.2038 18.6156 32.7473 16.3056 32.7473C14.9468 32.7473 13.588 32.6115 12.2292 32.2038C12.2292 32.6115 11.8215 32.6115 11.6856 32.7473C11.4139 32.8832 11.278 33.155 11.1421 33.2909L10.5986 35.1932C7.6092 32.4756 0.135738 24.4586 2.44572 16.1699Z" fill="#90BF57"/>
</svg>
