<svg width="65" height="64" viewBox="0 0 65 64" fill="none" xmlns="http://www.w3.org/2000/svg">
<path d="M0 25C0 11.1929 11.1929 0 25 0H64.8767V39C64.8767 52.8071 53.6838 64 39.8767 64H0V25Z" fill="url(#paint0_linear)"/>
<g filter="url(#filter0_d)">
<path d="M32 38C39.1797 38 45 32.1797 45 25C45 17.8203 39.1797 12 32 12C24.8203 12 19 17.8203 19 25C19 32.1797 24.8203 38 32 38Z" stroke="white" stroke-width="3" stroke-linecap="round" stroke-linejoin="round"/>
<path d="M19.5 32.0002L13 45.5L21.1431 45.4607C21.404 45.4593 21.6608 45.5261 21.888 45.6543C22.1152 45.7826 22.305 45.9679 22.4388 46.1919L26.5 53L33 39.0002" stroke="white" stroke-width="3" stroke-linecap="round" stroke-linejoin="round"/>
<path d="M43.8569 31L52 45.5L43.8569 45.4606C43.596 45.4593 43.3392 45.5261 43.112 45.6543C42.8848 45.7825 42.695 45.9678 42.5613 46.1919L38.5 53L32.5 39.8" stroke="white" stroke-width="3" stroke-linecap="round" stroke-linejoin="round"/>
<path d="M32 30C34.7614 30 37 27.7614 37 25C37 22.2386 34.7614 20 32 20C29.2386 20 27 22.2386 27 25C27 27.7614 29.2386 30 32 30Z" stroke="white" stroke-width="3" stroke-linecap="round" stroke-linejoin="round"/>
</g>
<defs>
<filter id="filter0_d" x="7.5" y="10.5" width="50" height="52.0001" filterUnits="userSpaceOnUse" color-interpolation-filters="sRGB">
<feFlood flood-opacity="0" result="BackgroundImageFix"/>
<feColorMatrix in="SourceAlpha" type="matrix" values="0 0 0 0 0 0 0 0 0 0 0 0 0 0 0 0 0 0 127 0"/>
<feOffset dy="4"/>
<feGaussianBlur stdDeviation="2"/>
<feColorMatrix type="matrix" values="0 0 0 0 0 0 0 0 0 0 0 0 0 0 0 0 0 0 0.25 0"/>
<feBlend mode="normal" in2="BackgroundImageFix" result="effect1_dropShadow"/>
<feBlend mode="normal" in="SourceGraphic" in2="effect1_dropShadow" result="shape"/>
</filter>
<linearGradient id="paint0_linear" x1="9.21052" y1="117.364" x2="37.9501" y2="11.5096" gradientUnits="userSpaceOnUse">
<stop stop-color="#0F512B"/>
<stop offset="1" stop-color="#90BF57"/>
</linearGradient>
</defs>
</svg>
