<svg width="416" height="321" viewBox="0 0 416 321" fill="none" xmlns="http://www.w3.org/2000/svg">
<g clip-path="url(#clip0)">
<path d="M72.8307 230.696H62.9887V284.237H72.8307V230.696Z" fill="white"/>
<path d="M92.5147 226.234H82.6727V284.236H92.5147V226.234Z" fill="white"/>
<path d="M112.199 205.698H102.357V284.237H112.199V205.698Z" fill="white"/>
<path d="M131.883 199.464H122.041V284.237H131.883V199.464Z" fill="white"/>
<path d="M151.567 195.002H141.725V284.236H151.567V195.002Z" fill="white"/>
<path d="M171.251 177.156H161.409V284.237H171.251V177.156Z" fill="white"/>
<path d="M190.935 177.156H181.093V284.237H190.935V177.156Z" fill="white"/>
<path d="M210.619 177.156H200.777V284.237H210.619V177.156Z" fill="white"/>
<path d="M230.303 141.462H220.461V284.237H230.303V141.462Z" fill="white"/>
<path d="M249.986 141.462H240.145V284.237H249.986V141.462Z" fill="white"/>
<path d="M269.67 136.804H259.828V284.237H269.67V136.804Z" fill="white"/>
<path d="M289.354 123.615H279.512V284.236H289.354V123.615Z" fill="white"/>
<path d="M309.038 119.088H299.196V284.236H309.038V119.088Z" fill="white"/>
<path d="M328.258 101.307H318.416V284.236H328.258V101.307Z" fill="white"/>
<path d="M347.942 94.4829H338.1V284.236H347.942V94.4829Z" fill="white"/>
<path d="M367.626 84.6411H357.784V284.236H367.626V84.6411Z" fill="white"/>
<path d="M387.31 79.7202H377.468V284.236H387.31V79.7202Z" fill="white"/>
<path d="M406.994 79.7202H397.152V284.236H406.994V79.7202Z" fill="white"/>
<path d="M63.0471 70.0747H53.2083V79.9167H63.0471V70.0747Z" fill="white"/>
<path d="M161.436 70.0747H72.8859V79.7008H161.436V70.0747Z" fill="white"/>
<path d="M63.0471 89.7588H53.2083V99.6008H63.0471V89.7588Z" fill="white"/>
<path d="M161.436 89.7588H72.8859V99.3849H161.436V89.7588Z" fill="white"/>
<path d="M63.0471 109.443H53.2083V119.285H63.0471V109.443Z" fill="white"/>
<path d="M161.436 109.443H72.8859V119.069H161.436V109.443Z" fill="white"/>
<path d="M63.0471 129.126H53.2083V138.968H63.0471V129.126Z" fill="white"/>
<path d="M161.436 129.126H72.8859V138.753H161.436V129.126Z" fill="white"/>
<path d="M44.7472 285.305V239.305L92.7472 229.305L106.747 207.305L150.747 196.305L167.747 178.305H209.747L228.747 141.305H248.747L268.747 135.305L289.747 122.305L308.747 117.305L328.747 100.305L349.747 93.3047L369.747 83.3047L388.747 76.3047H424.747" stroke="white" stroke-width="10"/>
</g>
<rect x="5" y="5" width="426" height="310.849" stroke="white" stroke-width="10"/>
<defs>
<clipPath id="clip0">
<rect width="399.585" height="267.702" fill="white" transform="translate(15.7472 43.3047)"/>
</clipPath>
</defs>
</svg>
