<svg width="48" height="48" viewBox="0 0 48 48" fill="none" xmlns="http://www.w3.org/2000/svg">
<path d="M29.3077 18.2314H32.1923C32.9574 18.2314 33.6911 18.5354 34.232 19.0763C34.773 19.6173 35.0769 20.351 35.0769 21.1161V36.1161C35.0769 36.8811 34.773 37.6148 34.232 38.1558C33.6911 38.6968 32.9574 39.0007 32.1923 39.0007H14.8846C14.1196 39.0007 13.3859 38.6968 12.8449 38.1558C12.3039 37.6148 12 36.8811 12 36.1161V21.1161C12 20.351 12.3039 19.6173 12.8449 19.0763C13.3859 18.5354 14.1196 18.2314 14.8846 18.2314H17.7692" stroke="#0F512B" stroke-width="3" stroke-linecap="round" stroke-linejoin="round"/>
<path d="M17.7693 25.1533L23.5385 30.9226L29.3077 25.1533" stroke="#0F512B" stroke-width="3" stroke-linecap="round" stroke-linejoin="round"/>
<path d="M23.5383 9V29.7692" stroke="#0F512B" stroke-width="3" stroke-linecap="round" stroke-linejoin="round"/>
</svg>
