<svg width="64" height="64" viewBox="0 0 64 64" fill="none" xmlns="http://www.w3.org/2000/svg">
<path d="M0 25C0 11.1929 11.1929 0 25 0H64V39C64 52.8071 52.8071 64 39 64H0V25Z" fill="url(#paint0_linear)"/>
<g filter="url(#filter0_d)">
<path d="M26.124 49H39.4036" stroke="white" stroke-width="3" stroke-linecap="round" stroke-linejoin="round"/>
<path d="M32.7637 49.0001V38.2308" stroke="white" stroke-width="3" stroke-linecap="round" stroke-linejoin="round"/>
<path d="M43.3874 28.8077C43.3874 24.5471 43.3808 17.4806 43.3775 15.3462C43.3775 14.9891 43.2376 14.6467 42.9885 14.3943C42.7395 14.1418 42.4017 14 42.0495 14L23.4755 14.0219C23.124 14.0219 22.7868 14.1631 22.5379 14.4147C22.289 14.6662 22.1486 15.0075 22.1475 15.3638C22.1475 17.9367 22.1367 26.2315 22.1367 28.8077C22.1367 34.2159 29.0255 38.2308 32.7604 38.2308C36.4953 38.2308 43.3874 34.2159 43.3874 28.8077Z" stroke="white" stroke-width="3" stroke-linecap="round" stroke-linejoin="round"/>
<path d="M22.1398 18.0383H15.5V19.3845C15.5 24.0304 18.2846 28.8076 22.1398 28.8076" stroke="white" stroke-width="3" stroke-linecap="round" stroke-linejoin="round"/>
<path d="M43.3867 18.0383H50.0265V19.3845C50.0265 24.0304 47.242 28.8076 43.3867 28.8076" stroke="white" stroke-width="3" stroke-linecap="round" stroke-linejoin="round"/>
</g>
<defs>
<filter id="filter0_d" x="10" y="12.5" width="45.5265" height="46.0001" filterUnits="userSpaceOnUse" color-interpolation-filters="sRGB">
<feFlood flood-opacity="0" result="BackgroundImageFix"/>
<feColorMatrix in="SourceAlpha" type="matrix" values="0 0 0 0 0 0 0 0 0 0 0 0 0 0 0 0 0 0 127 0"/>
<feOffset dy="4"/>
<feGaussianBlur stdDeviation="2"/>
<feColorMatrix type="matrix" values="0 0 0 0 0 0 0 0 0 0 0 0 0 0 0 0 0 0 0.25 0"/>
<feBlend mode="normal" in2="BackgroundImageFix" result="effect1_dropShadow"/>
<feBlend mode="normal" in="SourceGraphic" in2="effect1_dropShadow" result="shape"/>
</filter>
<linearGradient id="paint0_linear" x1="9.08605" y1="117.364" x2="38.1643" y2="11.7097" gradientUnits="userSpaceOnUse">
<stop stop-color="#0F512B"/>
<stop offset="1" stop-color="#90BF57"/>
</linearGradient>
</defs>
</svg>
