<svg width="72" height="72" viewBox="0 0 72 72" fill="none" xmlns="http://www.w3.org/2000/svg">
<g filter="url(#filter0_d)">
<path d="M4 25C4 11.1929 15.1929 0 29 0H68V39C68 52.8071 56.8071 64 43 64H4V25Z" fill="url(#paint0_linear)"/>
<path d="M51.9527 34.6241V31.9634C51.9527 23.1482 44.7884 16 35.9527 16C33.549 15.9971 31.1757 16.5363 29.0093 17.5776C26.8429 18.6189 24.9393 20.1354 23.4402 22.0143M20 29.3357V31.9964C20 40.8214 27.1607 47.9643 36 47.9643C38.3968 47.9608 40.7626 47.4227 42.925 46.389C45.0875 45.3554 46.9921 43.8523 48.5 41.9893" stroke="white" stroke-width="3" stroke-linecap="round" stroke-linejoin="round"/>
<path d="M16 31.982L19.9286 28.0534L24.0357 31.982" stroke="white" stroke-width="3" stroke-linecap="round" stroke-linejoin="round"/>
<path d="M55.9996 31.982L52.071 35.9106L47.9639 31.982" stroke="white" stroke-width="3" stroke-linecap="round" stroke-linejoin="round"/>
</g>
<defs>
<filter id="filter0_d" x="0" y="0" width="72" height="72" filterUnits="userSpaceOnUse" color-interpolation-filters="sRGB">
<feFlood flood-opacity="0" result="BackgroundImageFix"/>
<feColorMatrix in="SourceAlpha" type="matrix" values="0 0 0 0 0 0 0 0 0 0 0 0 0 0 0 0 0 0 127 0"/>
<feOffset dy="4"/>
<feGaussianBlur stdDeviation="2"/>
<feColorMatrix type="matrix" values="0 0 0 0 0 0 0 0 0 0 0 0 0 0 0 0 0 0 0.25 0"/>
<feBlend mode="normal" in2="BackgroundImageFix" result="effect1_dropShadow"/>
<feBlend mode="normal" in="SourceGraphic" in2="effect1_dropShadow" result="shape"/>
</filter>
<linearGradient id="paint0_linear" x1="13.0861" y1="117.364" x2="42.1643" y2="11.7097" gradientUnits="userSpaceOnUse">
<stop stop-color="#0F512B"/>
<stop offset="1" stop-color="#90BF57"/>
</linearGradient>
</defs>
</svg>
