<svg width="54" height="52" viewBox="0 0 54 52" fill="none" xmlns="http://www.w3.org/2000/svg">
<path d="M0 16.9796V52H37.6364C46.6363 52 54 44.3591 54 35.0204V0H16.3636C7.36371 0 0 7.6409 0 16.9796Z" fill="url(#paint0_linear)"/>
<path d="M23.7749 16.2976C24.472 16.2976 25.0371 15.7112 25.0371 14.9879C25.0371 14.2645 24.472 13.6781 23.7749 13.6781C23.0778 13.6781 22.5126 14.2645 22.5126 14.9879C22.5126 15.7112 23.0778 16.2976 23.7749 16.2976Z" fill="white"/>
<path d="M19.9334 12.6532C20.6305 12.6532 21.1956 12.0668 21.1956 11.3435C21.1956 10.6201 20.6305 10.0337 19.9334 10.0337C19.2363 10.0337 18.6711 10.6201 18.6711 11.3435C18.6711 12.0668 19.2363 12.6532 19.9334 12.6532Z" fill="white"/>
<path d="M15.318 16.2976C16.0151 16.2976 16.5802 15.7112 16.5802 14.9879C16.5802 14.2645 16.0151 13.6781 15.318 13.6781C14.6209 13.6781 14.0558 14.2645 14.0558 14.9879C14.0558 15.7112 14.6209 16.2976 15.318 16.2976Z" fill="white"/>
<path d="M29.108 8.38759C29.8051 8.38759 30.3702 7.80119 30.3702 7.07783C30.3702 6.35447 29.8051 5.76807 29.108 5.76807C28.4109 5.76807 27.8457 6.35447 27.8457 7.07783C27.8457 7.80119 28.4109 8.38759 29.108 8.38759Z" fill="white"/>
<path d="M35.2283 12.0303C35.9254 12.0303 36.4905 11.4439 36.4905 10.7205C36.4905 9.99716 35.9254 9.41076 35.2283 9.41076C34.5312 9.41076 33.966 9.99716 33.966 10.7205C33.966 11.4439 34.5312 12.0303 35.2283 12.0303Z" fill="white"/>
<path d="M39.2159 15.2731C39.913 15.2731 40.4781 14.6867 40.4781 13.9633C40.4781 13.2399 39.913 12.6535 39.2159 12.6535C38.5187 12.6535 37.9536 13.2399 37.9536 13.9633C37.9536 14.6867 38.5187 15.2731 39.2159 15.2731Z" fill="white"/>
<path d="M42.5357 21.1011C43.2329 21.1011 43.798 20.5147 43.798 19.7913C43.798 19.068 43.2329 18.4816 42.5357 18.4816C41.8386 18.4816 41.2735 19.068 41.2735 19.7913C41.2735 20.5147 41.8386 21.1011 42.5357 21.1011Z" fill="white"/>
<path d="M45.5356 26.5598C46.2327 26.5598 46.7979 25.9734 46.7979 25.25C46.7979 24.5267 46.2327 23.9403 45.5356 23.9403C44.8385 23.9403 44.2734 24.5267 44.2734 25.25C44.2734 25.9734 44.8385 26.5598 45.5356 26.5598Z" fill="white"/>
<path d="M46.3228 32.0733C47.0199 32.0733 47.5851 31.4869 47.5851 30.7635C47.5851 30.0402 47.0199 29.4538 46.3228 29.4538C45.6257 29.4538 45.0606 30.0402 45.0606 30.7635C45.0606 31.4869 45.6257 32.0733 46.3228 32.0733Z" fill="white"/>
<path d="M18.9884 30.7634C19.6855 30.7634 20.2507 30.177 20.2507 29.4536C20.2507 28.7302 19.6855 28.1438 18.9884 28.1438C18.2913 28.1438 17.7262 28.7302 17.7262 29.4536C17.7262 30.177 18.2913 30.7634 18.9884 30.7634Z" fill="white"/>
<path d="M14.4119 26.1302C15.1091 26.1302 15.6742 25.5438 15.6742 24.8204C15.6742 24.097 15.1091 23.5106 14.4119 23.5106C13.7148 23.5106 13.1497 24.097 13.1497 24.8204C13.1497 25.5438 13.7148 26.1302 14.4119 26.1302Z" fill="white"/>
<path d="M10.6443 23.023C11.3415 23.023 11.9066 22.4366 11.9066 21.7132C11.9066 20.9899 11.3415 20.4035 10.6443 20.4035C9.94722 20.4035 9.38209 20.9899 9.38209 21.7132C9.38209 22.4366 9.94722 23.023 10.6443 23.023Z" fill="white"/>
<path d="M7.26225 28.1438C7.95937 28.1438 8.5245 27.5574 8.5245 26.834C8.5245 26.1107 7.95937 25.5243 7.26225 25.5243C6.56513 25.5243 6 26.1107 6 26.834C6 27.5574 6.56513 28.1438 7.26225 28.1438Z" fill="white"/>
<path d="M9.78659 34.0812C10.4837 34.0812 11.0488 33.4948 11.0488 32.7714C11.0488 32.0481 10.4837 31.4616 9.78659 31.4616C9.08947 31.4616 8.52434 32.0481 8.52434 32.7714C8.52434 33.4948 9.08947 34.0812 9.78659 34.0812Z" fill="white"/>
<path d="M45.7831 30.208L44.0256 30.2242C43.9543 30.2249 43.8836 30.2108 43.8176 30.183C43.7515 30.1551 43.6914 30.1139 43.6408 30.0618C43.5902 30.0097 43.55 29.9477 43.5226 29.8794C43.4951 29.8112 43.481 29.7379 43.481 29.6639V27.7641C43.481 27.6754 43.5014 27.5879 43.5403 27.5089C43.5793 27.4299 43.6358 27.3616 43.7051 27.3097L45.4137 26.031C45.4712 25.988 45.52 25.9336 45.5573 25.871C45.5946 25.8085 45.6196 25.7388 45.631 25.6662C45.6423 25.5936 45.6398 25.5193 45.6235 25.4477C45.6072 25.3761 45.5775 25.3085 45.536 25.2488C45.4522 25.1283 45.3257 25.0473 45.1844 25.0235C45.043 24.9998 44.8983 25.0353 44.7822 25.1222L42.6251 26.7362C42.5558 26.7881 42.4993 26.8564 42.4603 26.9354C42.4214 27.0144 42.401 27.1019 42.401 27.1906V30.2391C42.401 30.3253 42.3818 30.4103 42.345 30.4876C42.3081 30.5649 42.2546 30.6323 42.1885 30.6845L32.0419 38.7233C31.9619 38.7867 31.8664 38.8256 31.7662 38.8357C31.6659 38.8458 31.565 38.8265 31.4747 38.7802C31.3845 38.7339 31.3085 38.6623 31.2554 38.5735C31.2023 38.4847 31.1741 38.3823 31.1742 38.2778V34.3625C31.1742 34.2772 31.193 34.1931 31.2291 34.1165C31.2652 34.0399 31.3177 33.9728 31.3826 33.9204L39.5701 27.3086C39.635 27.2564 39.6876 27.1896 39.7239 27.1132C39.7603 27.0368 39.7793 26.9528 39.7796 26.8676V23.1512C39.7796 23.066 39.7983 22.9818 39.8344 22.9052C39.8705 22.8286 39.9229 22.7615 39.9878 22.7091L42.617 20.5841C42.7299 20.4916 42.8037 20.3571 42.8227 20.2091C42.8418 20.0611 42.8046 19.9113 42.7191 19.7912C42.6769 19.7327 42.6238 19.6835 42.563 19.6465C42.5022 19.6095 42.435 19.5854 42.3651 19.5758C42.2953 19.5661 42.2242 19.571 42.1562 19.5901C42.0882 19.6093 42.0246 19.6423 41.969 19.6873L38.9067 22.1609C38.842 22.2134 38.7897 22.2806 38.7538 22.3573C38.7179 22.434 38.6994 22.5182 38.6996 22.6035V26.3199C38.6996 26.4052 38.6808 26.4894 38.6447 26.5661C38.6086 26.6428 38.5561 26.7099 38.4912 26.7623L30.3026 33.3724C30.2377 33.4248 30.1852 33.4919 30.1491 33.5685C30.113 33.6451 30.0942 33.7292 30.0942 33.8145V51.0331C30.0942 51.0616 30.0888 51.0898 30.0783 51.1161C30.0678 51.1424 30.0524 51.1664 30.033 51.1865C30.0136 51.2067 29.9906 51.2226 29.9652 51.2335C29.9398 51.2444 29.9126 51.25 29.8852 51.2499H29.8582C29.8307 51.25 29.8035 51.2444 29.7782 51.2335C29.7528 51.2226 29.7297 51.2067 29.7103 51.1865C29.6909 51.1664 29.6755 51.1424 29.665 51.1161C29.6545 51.0898 29.6492 51.0616 29.6492 51.0331V28.3018C29.6492 28.2156 29.6684 28.1306 29.7052 28.0534C29.742 27.9762 29.7955 27.9089 29.8614 27.8566L35.5584 23.344C35.6245 23.2917 35.678 23.2243 35.7149 23.147C35.7517 23.0698 35.7709 22.9847 35.7709 22.8985V20.1961C35.7709 20.1128 35.7888 20.0305 35.8232 19.9553C35.8577 19.8801 35.9079 19.8138 35.9702 19.7613L39.5593 16.7321C39.6215 16.6796 39.6717 16.6133 39.7062 16.5381C39.7407 16.4629 39.7586 16.3806 39.7585 16.2973V14.8531C39.7585 14.7045 39.7016 14.5619 39.6004 14.4569C39.4991 14.3518 39.3618 14.2928 39.2185 14.2928C39.0753 14.2928 38.938 14.3518 38.8367 14.4569C38.7354 14.5619 38.6785 14.7045 38.6785 14.8531V15.7645C38.6785 15.8477 38.6606 15.9299 38.6262 16.005C38.5917 16.0802 38.5415 16.1465 38.4793 16.199L36.6517 17.7416C36.5725 17.8084 36.4766 17.8506 36.3753 17.8632C36.2739 17.8758 36.1712 17.8584 36.079 17.8129C35.9868 17.7674 35.909 17.6958 35.8544 17.6062C35.7999 17.5167 35.7709 17.4129 35.7709 17.307V11.2807C35.7709 11.1321 35.714 10.9896 35.6127 10.8845C35.5115 10.7794 35.3741 10.7204 35.2309 10.7204C35.0877 10.7204 34.9503 10.7794 34.8491 10.8845C34.7478 10.9896 34.6909 11.1321 34.6909 11.2807V22.3444C34.6909 22.4305 34.6717 22.5155 34.6348 22.5927C34.598 22.6699 34.5444 22.7373 34.4784 22.7895L28.7814 27.3021C28.7154 27.3545 28.6619 27.4219 28.6251 27.4991C28.5883 27.5764 28.5692 27.6614 28.5692 27.7476V51.0331C28.5692 51.0616 28.5638 51.0898 28.5533 51.1161C28.5427 51.1425 28.5273 51.1664 28.5079 51.1865C28.4885 51.2067 28.4654 51.2226 28.44 51.2335C28.4146 51.2444 28.3874 51.25 28.36 51.2499H28.3022C28.2747 51.25 28.2475 51.2444 28.2222 51.2335C28.1968 51.2226 28.1737 51.2067 28.1543 51.1865C28.1349 51.1664 28.1195 51.1424 28.109 51.1161C28.0985 51.0898 28.0932 51.0616 28.0932 51.0331V22.1581C28.0932 22.0681 28.114 21.9795 28.1539 21.8997C28.1939 21.8198 28.2518 21.7512 28.3227 21.6994L31.9812 19.0328C32.0532 18.9803 32.1118 18.9104 32.1518 18.829C32.1918 18.7477 32.212 18.6574 32.2107 18.5661L32.1597 14.91C32.1585 14.8304 32.141 14.752 32.1084 14.68C32.0758 14.608 32.0289 14.544 31.9707 14.4922L29.8377 12.5978C29.7784 12.5452 29.7309 12.4799 29.6982 12.4065C29.6656 12.333 29.6487 12.2531 29.6487 12.1722V6.98105C29.6487 6.83244 29.5918 6.68992 29.4905 6.58484C29.3892 6.47976 29.2519 6.42072 29.1087 6.42072C28.9654 6.42072 28.8281 6.47976 28.7268 6.58484C28.6256 6.68992 28.5687 6.83244 28.5687 6.98105V12.688C28.5687 12.7689 28.5856 12.8488 28.6182 12.9222C28.6509 12.9957 28.6984 13.061 28.7577 13.1135L30.8966 15.0145C30.9549 15.0662 31.0019 15.1302 31.0345 15.2022C31.0671 15.2742 31.0845 15.3526 31.0856 15.4322L31.1212 17.9898C31.1225 18.0811 31.1023 18.1714 31.0623 18.2527C31.0223 18.3341 30.9638 18.404 30.8917 18.4565L27.8893 20.6449C27.7954 20.7134 27.6829 20.749 27.5681 20.7467C27.4534 20.7443 27.3423 20.704 27.2511 20.6317L24.527 18.4714C24.4611 18.4191 24.4077 18.3517 24.3709 18.2745C24.3342 18.1973 24.3151 18.1123 24.3151 18.0262V15.549C24.3151 15.4004 24.2582 15.2579 24.1569 15.1528C24.0557 15.0477 23.9183 14.9887 23.7751 14.9887C23.6319 14.9887 23.4945 15.0477 23.3932 15.1528C23.292 15.2579 23.2351 15.4004 23.2351 15.549V18.5801C23.2351 18.6662 23.2542 18.7512 23.2909 18.8284C23.3277 18.9056 23.3811 18.973 23.447 19.0253L26.7999 21.6846C26.8659 21.7369 26.9193 21.8042 26.9561 21.8814C26.9929 21.9586 27.0121 22.0436 27.0121 22.1298V51.0331C27.0121 51.0616 27.0067 51.0898 26.9962 51.1161C26.9857 51.1425 26.9702 51.1664 26.9508 51.1865C26.9314 51.2067 26.9083 51.2226 26.8829 51.2335C26.8575 51.2444 26.8303 51.25 26.8029 51.2499C26.7474 51.2499 26.6943 51.2271 26.6551 51.1864C26.6159 51.1458 26.5939 51.0906 26.5939 51.0331V27.7476C26.5939 27.6614 26.5748 27.5764 26.538 27.4991C26.5012 27.4219 26.4477 27.3545 26.3817 27.3021L20.4746 22.6214V12.2333C20.4746 12.0847 20.4177 11.9421 20.3164 11.8371C20.2152 11.732 20.0778 11.6729 19.9346 11.6729C19.7914 11.6729 19.654 11.732 19.5528 11.8371C19.4515 11.9421 19.3946 12.0847 19.3946 12.2333V20.648C19.3946 20.752 19.3667 20.854 19.314 20.9426C19.2612 21.0311 19.1858 21.1026 19.0961 21.1491C19.0064 21.1957 18.906 21.2154 18.8061 21.206C18.7062 21.1967 18.6108 21.1587 18.5306 21.0962L16.0736 19.1911C16.0065 19.1389 15.9521 19.0713 15.9146 18.9935C15.8771 18.9156 15.8576 18.8299 15.8576 18.7429V14.8531C15.8576 14.7045 15.8007 14.5619 15.6994 14.4569C15.5982 14.3518 15.4608 14.2928 15.3176 14.2928C15.1744 14.2928 15.037 14.3518 14.9358 14.4569C14.8345 14.5619 14.7776 14.7045 14.7776 14.8531V19.3032C14.7776 19.3902 14.7971 19.476 14.8346 19.5538C14.8721 19.6316 14.9265 19.6993 14.9936 19.7515L19.3946 23.1652V23.1759L25.3017 27.8566C25.3676 27.9089 25.4211 27.9762 25.4579 28.0534C25.4947 28.1306 25.5139 28.2156 25.5139 28.3018V51.0331C25.5139 51.0906 25.4919 51.1458 25.4527 51.1864C25.4135 51.2271 25.3603 51.2499 25.3049 51.2499H25.3022C25.2747 51.25 25.2475 51.2444 25.2221 51.2335C25.1968 51.2226 25.1737 51.2067 25.1543 51.1865C25.1348 51.1664 25.1194 51.1425 25.1089 51.1161C25.0984 51.0898 25.093 51.0616 25.093 51.0331V33.8157C25.093 33.7299 25.074 33.6453 25.0375 33.5684C25.0011 33.4914 24.9481 33.4242 24.8826 33.3719L19.8147 29.321C19.7609 29.2761 19.6985 29.2437 19.6317 29.226C19.5648 29.2082 19.4951 29.2055 19.4271 29.2181C19.3592 29.2306 19.2946 29.2581 19.2378 29.2988C19.1809 29.3394 19.1331 29.3921 19.0976 29.4535C19.022 29.5852 18.9947 29.7408 19.0208 29.8917C19.047 30.0426 19.1248 30.1786 19.2399 30.2747L23.8029 33.9221C23.8683 33.9745 23.9213 34.0417 23.9578 34.1186C23.9943 34.1956 24.0132 34.2802 24.0132 34.3659V38.3142C24.013 38.418 23.985 38.5197 23.9324 38.6079C23.8797 38.6962 23.8045 38.7675 23.7151 38.814C23.6257 38.8604 23.5256 38.8802 23.4259 38.8712C23.3263 38.8621 23.2311 38.8245 23.1508 38.7625L15.1702 32.6017C15.1028 32.5497 15.0481 32.4821 15.0103 32.4043C14.9725 32.3265 14.9527 32.2406 14.9526 32.1534V25.3808C14.9526 25.2322 14.8957 25.0896 14.7944 24.9846C14.6931 24.8795 14.5558 24.8204 14.4126 24.8204C14.2693 24.8204 14.132 24.8795 14.0307 24.9846C13.9295 25.0896 13.8726 25.2322 13.8726 25.3808V27.3655C13.8725 27.4661 13.8464 27.5648 13.7969 27.6513C13.7474 27.7378 13.6764 27.8089 13.5913 27.8571C13.5062 27.9053 13.4102 27.9288 13.3133 27.9252C13.2164 27.9216 13.1223 27.8911 13.0407 27.8367L11.4323 26.7642C11.3562 26.7135 11.2936 26.6437 11.2502 26.5613C11.2069 26.4789 11.1842 26.3866 11.1842 26.2927V22.2729C11.1842 22.1243 11.1273 21.9818 11.026 21.8767C10.9247 21.7716 10.7874 21.7126 10.6442 21.7126C10.501 21.7126 10.3636 21.7716 10.2623 21.8767C10.1611 21.9818 10.1042 22.1243 10.1042 22.2729V25.7346C10.1042 25.8086 10.0901 25.8819 10.0626 25.9502C10.0352 26.0184 9.99502 26.0804 9.94439 26.1325C9.89376 26.1846 9.83369 26.2258 9.76764 26.2537C9.70159 26.2815 9.63088 26.2956 9.55958 26.295L7.80215 26.2793C7.73147 26.2786 7.66136 26.2925 7.59587 26.3201C7.53038 26.3477 7.47081 26.3885 7.4206 26.4401C7.3704 26.4917 7.33054 26.5532 7.30335 26.6209C7.27615 26.6886 7.26215 26.7612 7.26215 26.8345C7.26215 26.9836 7.31888 27.1267 7.42001 27.2325C7.52115 27.3384 7.65849 27.3986 7.80215 27.3999L10.2675 27.4226C10.3695 27.4237 10.4691 27.4546 10.5548 27.512L13.6244 29.5594C13.7005 29.6102 13.763 29.6799 13.8063 29.7622C13.8496 29.8446 13.8723 29.9369 13.8723 30.0306V31.6094C13.8723 31.7569 13.8163 31.8984 13.7163 32.0033C13.6164 32.1082 13.4806 32.168 13.3385 32.1697L10.3267 32.2056C10.1829 32.2073 10.0456 32.2678 9.94451 32.3739C9.84343 32.48 9.78671 32.6231 9.78665 32.7723C9.78665 32.8456 9.80065 32.9182 9.82786 32.9858C9.85507 33.0535 9.89494 33.1148 9.94517 33.1664C9.99539 33.2179 10.055 33.2586 10.1205 33.2861C10.1859 33.3136 10.256 33.3273 10.3267 33.3265L14.054 33.2819C14.1724 33.2809 14.2879 33.3203 14.3826 33.394L23.7956 40.6581C23.863 40.7101 23.9177 40.7777 23.9555 40.8555C23.9933 40.9333 24.013 41.0192 24.0132 41.1063V50.1363C24.0133 50.2824 23.9856 50.427 23.9317 50.562C23.8778 50.6969 23.7989 50.8196 23.6993 50.9229C23.5998 51.0261 23.4816 51.1081 23.3516 51.164C23.2215 51.2198 23.0821 51.2486 22.9413 51.2485H22.9343V51.9985L32.2466 51.9952V51.2485C32.1058 51.2486 31.9664 51.2198 31.8363 51.164C31.7062 51.1081 31.588 51.0262 31.4885 50.9229C31.3889 50.8196 31.3099 50.697 31.2561 50.562C31.2022 50.427 31.1744 50.2824 31.1744 50.1363V41.0999C31.1744 41.0137 31.1936 40.9286 31.2305 40.8514C31.2673 40.7741 31.3209 40.7067 31.3869 40.6544L42.9829 31.4673C43.076 31.3936 43.1897 31.3533 43.3069 31.3525L45.7844 31.3295C45.9281 31.3282 46.0655 31.2681 46.1666 31.1622C46.2678 31.0563 46.3245 30.9132 46.3244 30.7641C46.3245 30.6906 46.3105 30.6178 46.2833 30.5499C46.2561 30.482 46.2161 30.4204 46.1658 30.3686C46.1154 30.3169 46.0556 30.276 45.9899 30.2485C45.9242 30.2209 45.8539 30.2071 45.7831 30.208Z" fill="white"/>
<defs>
<linearGradient id="paint0_linear" x1="5.21127" y1="68.6753" x2="60.5661" y2="-32.0185" gradientUnits="userSpaceOnUse">
<stop offset="0.15" stop-color="#346D36"/>
<stop offset="0.33" stop-color="#52843F"/>
<stop offset="0.62" stop-color="#7DA44C"/>
<stop offset="0.85" stop-color="#98B954"/>
<stop offset="0.99" stop-color="#A2C057"/>
</linearGradient>
</defs>
</svg>
