<svg width="64" height="64" viewBox="0 0 64 64" fill="none" xmlns="http://www.w3.org/2000/svg">
<path d="M0 25C0 11.1929 11.1929 0 25 0H64V39C64 52.8071 52.8071 64 39 64H0V25Z" fill="url(#paint0_linear)"/>
<g filter="url(#filter0_d)">
<path d="M42.708 19.917H49.9997" stroke="white" stroke-width="3" stroke-linecap="round" stroke-linejoin="round"/>
<path d="M15 19.917H36.875" stroke="white" stroke-width="3" stroke-linecap="round" stroke-linejoin="round"/>
<path d="M42.708 43.25H49.9997" stroke="white" stroke-width="3" stroke-linecap="round" stroke-linejoin="round"/>
<path d="M15 43.25H36.875" stroke="white" stroke-width="3" stroke-linecap="round" stroke-linejoin="round"/>
<path d="M28.125 31.583H50" stroke="white" stroke-width="3" stroke-linecap="round" stroke-linejoin="round"/>
<path d="M15 31.583H22.2917" stroke="white" stroke-width="3" stroke-linecap="round" stroke-linejoin="round"/>
<path d="M39.7917 22.8333C41.4025 22.8333 42.7083 21.5275 42.7083 19.9167C42.7083 18.3058 41.4025 17 39.7917 17C38.1808 17 36.875 18.3058 36.875 19.9167C36.875 21.5275 38.1808 22.8333 39.7917 22.8333Z" stroke="white" stroke-width="3" stroke-linecap="round" stroke-linejoin="round"/>
<path d="M25.2087 34.5003C26.8195 34.5003 28.1253 33.1945 28.1253 31.5837C28.1253 29.9728 26.8195 28.667 25.2087 28.667C23.5978 28.667 22.292 29.9728 22.292 31.5837C22.292 33.1945 23.5978 34.5003 25.2087 34.5003Z" stroke="white" stroke-width="3" stroke-linecap="round" stroke-linejoin="round"/>
<path d="M39.7917 46.1663C41.4025 46.1663 42.7083 44.8605 42.7083 43.2497C42.7083 41.6388 41.4025 40.333 39.7917 40.333C38.1808 40.333 36.875 41.6388 36.875 43.2497C36.875 44.8605 38.1808 46.1663 39.7917 46.1663Z" stroke="white" stroke-width="3" stroke-linecap="round" stroke-linejoin="round"/>
</g>
<defs>
<filter id="filter0_d" x="9.5" y="15.5" width="46" height="40.1663" filterUnits="userSpaceOnUse" color-interpolation-filters="sRGB">
<feFlood flood-opacity="0" result="BackgroundImageFix"/>
<feColorMatrix in="SourceAlpha" type="matrix" values="0 0 0 0 0 0 0 0 0 0 0 0 0 0 0 0 0 0 127 0"/>
<feOffset dy="4"/>
<feGaussianBlur stdDeviation="2"/>
<feColorMatrix type="matrix" values="0 0 0 0 0 0 0 0 0 0 0 0 0 0 0 0 0 0 0.25 0"/>
<feBlend mode="normal" in2="BackgroundImageFix" result="effect1_dropShadow"/>
<feBlend mode="normal" in="SourceGraphic" in2="effect1_dropShadow" result="shape"/>
</filter>
<linearGradient id="paint0_linear" x1="9.08605" y1="117.364" x2="38.1643" y2="11.7097" gradientUnits="userSpaceOnUse">
<stop stop-color="#0F512B"/>
<stop offset="1" stop-color="#90BF57"/>
</linearGradient>
</defs>
</svg>
