<svg width="63" height="64" viewBox="0 0 63 64" fill="none" xmlns="http://www.w3.org/2000/svg">
<path d="M0 25C0 11.1929 11.1929 0 25 0H62.0717V39C62.0717 52.8071 50.8788 64 37.0717 64H0V25Z" fill="url(#paint0_linear)"/>
<g filter="url(#filter0_d)">
<path d="M27.8735 16C25.3274 16 22.8384 16.755 20.7214 18.1696C18.6043 19.5841 16.9543 21.5947 15.9799 23.947C15.0056 26.2994 14.7506 28.8878 15.2474 31.385C15.7441 33.8822 16.9702 36.1761 18.7706 37.9764C20.571 39.7768 22.8648 41.0029 25.362 41.4996C27.8592 41.9964 30.4477 41.7414 32.8 40.7671C35.1523 39.7927 37.1629 38.1427 38.5774 36.0256C39.992 33.9086 40.747 31.4196 40.747 28.8735C40.7468 25.4593 39.3904 22.185 36.9762 19.7708C34.562 17.3566 31.2877 16.0002 27.8735 16V16Z" stroke="white" stroke-width="3" stroke-miterlimit="10"/>
<path d="M46.9998 47.0301L38.2725 38.3027" stroke="white" stroke-width="3" stroke-miterlimit="10" stroke-linecap="round"/>
</g>
<defs>
<filter id="filter0_d" x="9.5" y="14.5" width="42.9998" height="42.0301" filterUnits="userSpaceOnUse" color-interpolation-filters="sRGB">
<feFlood flood-opacity="0" result="BackgroundImageFix"/>
<feColorMatrix in="SourceAlpha" type="matrix" values="0 0 0 0 0 0 0 0 0 0 0 0 0 0 0 0 0 0 127 0"/>
<feOffset dy="4"/>
<feGaussianBlur stdDeviation="2"/>
<feColorMatrix type="matrix" values="0 0 0 0 0 0 0 0 0 0 0 0 0 0 0 0 0 0 0.25 0"/>
<feBlend mode="normal" in2="BackgroundImageFix" result="effect1_dropShadow"/>
<feBlend mode="normal" in="SourceGraphic" in2="effect1_dropShadow" result="shape"/>
</filter>
<linearGradient id="paint0_linear" x1="8.81229" y1="117.364" x2="38.6613" y2="12.177" gradientUnits="userSpaceOnUse">
<stop stop-color="#0F512B"/>
<stop offset="1" stop-color="#90BF57"/>
</linearGradient>
</defs>
</svg>
