<svg width="66" height="64" viewBox="0 0 66 64" fill="none" xmlns="http://www.w3.org/2000/svg">
<path d="M0.876953 25C0.876953 11.1929 12.0698 0 25.877 0H65.7537V39C65.7537 52.8071 54.5608 64 40.7537 64H0.876953V25Z" fill="url(#paint0_linear)"/>
<g filter="url(#filter0_d)">
<path d="M41.2447 24.769L31.9226 35.5383L27.7832 31.483" stroke="white" stroke-width="3" stroke-linecap="round" stroke-linejoin="round"/>
<path d="M51.9379 19.4157C44.4146 18.0662 41.3041 17.0667 34.5136 14C27.7231 17.0667 24.6126 18.0662 17.0893 19.4157C15.7263 41.0182 33.2162 48.4775 34.5136 49C35.811 48.4775 53.3009 41.0182 51.9379 19.4157Z" stroke="white" stroke-width="3" stroke-linecap="round" stroke-linejoin="round"/>
</g>
<defs>
<filter id="filter0_d" x="11.5127" y="12.5" width="46.0009" height="46" filterUnits="userSpaceOnUse" color-interpolation-filters="sRGB">
<feFlood flood-opacity="0" result="BackgroundImageFix"/>
<feColorMatrix in="SourceAlpha" type="matrix" values="0 0 0 0 0 0 0 0 0 0 0 0 0 0 0 0 0 0 127 0"/>
<feOffset dy="4"/>
<feGaussianBlur stdDeviation="2"/>
<feColorMatrix type="matrix" values="0 0 0 0 0 0 0 0 0 0 0 0 0 0 0 0 0 0 0.25 0"/>
<feBlend mode="normal" in2="BackgroundImageFix" result="effect1_dropShadow"/>
<feBlend mode="normal" in="SourceGraphic" in2="effect1_dropShadow" result="shape"/>
</filter>
<linearGradient id="paint0_linear" x1="10.0875" y1="117.364" x2="38.8271" y2="11.5096" gradientUnits="userSpaceOnUse">
<stop stop-color="#0F512B"/>
<stop offset="1" stop-color="#90BF57"/>
</linearGradient>
</defs>
</svg>
