<svg width="105" height="141" viewBox="0 0 105 141" fill="none" xmlns="http://www.w3.org/2000/svg">
<path d="M103.243 114.306V1H1V140H77.5481V114.306H103.243Z" stroke="black" stroke-width="2" stroke-miterlimit="10" stroke-linecap="round" stroke-linejoin="round"/>
<path d="M103.243 114.306L77.7266 140" stroke="black" stroke-width="2" stroke-miterlimit="2.6131" stroke-linecap="round" stroke-linejoin="round"/>
<path d="M17.0586 26.6946H85.9341" stroke="black" stroke-width="2" stroke-miterlimit="2.6131" stroke-linecap="round" stroke-linejoin="round"/>
<path d="M17.0586 45.0731H85.9341" stroke="black" stroke-width="2" stroke-miterlimit="2.6131" stroke-linecap="round" stroke-linejoin="round"/>
<path d="M17.0586 63.4519H85.9341" stroke="black" stroke-width="2" stroke-miterlimit="2.6131" stroke-linecap="round" stroke-linejoin="round"/>
<path d="M35.4381 110.558L34.7243 111.094L31.8694 112.878C29.9066 114.127 27.4085 113.413 26.1595 111.451L22.4124 105.205C21.1634 103.243 21.8771 100.745 23.8399 99.4955L27.4085 97.3543L66.4856 73.6226L78.4406 74.8716L74.5151 86.6482L35.4381 110.558Z" stroke="black" stroke-width="2" stroke-miterlimit="2.6131" stroke-linecap="round" stroke-linejoin="round"/>
<path d="M35.4377 110.558L31.6906 104.492L31.3337 103.956L27.4082 97.3542" stroke="black" stroke-width="2" stroke-miterlimit="2.6131" stroke-linecap="round" stroke-linejoin="round"/>
<path d="M74.5149 86.8267L70.4109 80.2246L66.4854 73.6226" stroke="black" stroke-width="2" stroke-miterlimit="2.6131" stroke-linecap="round" stroke-linejoin="round"/>
<path d="M31.334 103.956L70.411 80.2247" stroke="black" stroke-width="2" stroke-miterlimit="2.6131" stroke-linecap="round" stroke-linejoin="round"/>
</svg>
