<svg width="129" height="135" viewBox="0 0 129 135" fill="none" xmlns="http://www.w3.org/2000/svg">
<path d="M33.5584 133.733C33.3799 133.733 33.3799 133.733 33.2014 133.733L0.892511 125.879C0.535507 125.879 0.357004 125.701 0.178502 125.344C0 124.987 0 124.63 0 124.451L30.3454 0.927524C30.5239 0.392018 31.0594 -0.143489 31.7734 0.0350136L64.2608 8.06761C64.6178 8.06761 64.7963 8.24611 64.9748 8.60312C65.1533 8.78162 65.1533 9.13862 65.1533 9.49563L34.8079 133.019C34.6294 133.376 34.0939 133.733 33.5584 133.733ZM2.49903 123.916L32.6659 131.413L62.4758 10.0311L32.3089 2.53404L2.49903 123.916Z" fill="black"/>
<path d="M21.2415 121.595C20.5275 121.595 19.8135 121.595 19.0995 121.417C16.7789 120.881 14.8154 119.453 13.5659 117.311C12.3164 115.348 11.9594 112.848 12.4949 110.528C13.3874 106.422 17.1359 103.745 21.2415 103.745C21.9555 103.745 22.6695 103.745 23.3835 103.923C28.2031 105.173 31.0591 109.992 29.9881 114.812C29.0956 118.918 25.5255 121.595 21.2415 121.595ZM21.2415 106.065C18.207 106.065 15.5294 108.207 14.8154 111.063C14.4584 112.848 14.6369 114.634 15.5294 116.062C16.4219 117.49 17.8499 118.561 19.635 119.096C20.1705 119.275 20.706 119.275 21.2415 119.275C24.276 119.275 26.9536 117.133 27.6676 114.277C28.5601 110.706 26.4181 107.136 22.848 106.244C22.3125 106.065 21.777 106.065 21.2415 106.065Z" fill="black"/>
<path d="M27.4895 96.6047C26.7755 96.6047 26.0615 96.6047 25.3475 96.4262C20.5279 95.1767 17.6719 90.3572 18.7429 85.5376C19.8139 81.4321 23.3839 78.7545 27.4895 78.7545C28.2035 78.7545 28.9175 78.7545 29.6315 78.933C34.4511 80.1825 37.3071 85.0021 36.2361 89.8217C35.1651 93.9272 31.595 96.6047 27.4895 96.6047ZM27.4895 81.0751C24.4549 81.0751 21.7774 83.2171 21.0634 86.0731C20.1709 89.6432 22.3129 93.2132 25.883 94.1057C26.4185 94.2842 26.954 94.2842 27.4895 94.2842C30.524 94.2842 33.2016 92.1422 33.9156 89.2861C34.8081 85.7161 32.666 82.1461 29.096 81.2535C28.5605 81.075 28.025 81.0751 27.4895 81.0751Z" fill="black"/>
<path d="M55.1569 19.1347C54.9784 19.1347 54.9784 19.1347 54.7999 19.1347L34.9861 14.1367C34.4506 13.9582 33.9151 13.4227 34.0936 12.7087C34.2721 12.1731 34.8076 11.6376 35.5216 11.8161L55.3354 16.8142C55.8709 16.9927 56.4064 17.5282 56.2279 18.2422C56.0494 18.7777 55.6924 19.1347 55.1569 19.1347Z" fill="black"/>
<path d="M51.2291 35.0212C51.0506 35.0212 51.0506 35.0212 50.8721 35.0212L31.0584 30.2016C30.5229 30.0231 29.9874 29.4876 30.1659 28.7736C30.3444 28.2381 30.8799 27.7026 31.5939 27.8811L51.4076 32.7006C51.9431 32.8791 52.4786 33.4147 52.3001 34.1287C52.1216 34.6642 51.7646 35.0212 51.2291 35.0212Z" fill="black"/>
<path d="M47.3024 51.0867C47.1239 51.0867 47.1239 51.0867 46.9454 51.0867L27.1316 46.2672C26.5961 46.0887 26.0606 45.5532 26.2391 44.8391C26.4176 44.3036 26.9531 43.7681 27.6671 43.9466L47.4809 48.7662C48.0164 48.9447 48.5519 49.4802 48.3734 50.1942C48.1949 50.7297 47.8379 51.0867 47.3024 51.0867Z" fill="black"/>
<path d="M101.281 134.303H67.9009C67.1869 134.303 66.6514 133.768 66.6514 133.054V6.13855C66.6514 5.42454 67.1869 4.88904 67.9009 4.88904H101.281C101.995 4.88904 102.53 5.42454 102.53 6.13855V133.232C102.53 133.768 101.995 134.303 101.281 134.303ZM69.1504 131.983H100.21V7.20957H69.1504V131.983Z" fill="black"/>
<path d="M84.681 125.735C79.6829 125.735 75.7559 121.629 75.7559 116.81C75.7559 111.812 79.8614 107.885 84.681 107.885C89.679 107.885 93.6061 111.99 93.6061 116.81C93.6061 121.629 89.5005 125.735 84.681 125.735ZM84.681 110.205C80.9324 110.205 78.0764 113.24 78.0764 116.81C78.0764 120.558 81.1109 123.414 84.681 123.414C88.4295 123.414 91.2856 120.38 91.2856 116.81C91.2856 113.061 88.251 110.205 84.681 110.205Z" fill="black"/>
<path d="M84.681 100.031C79.6829 100.031 75.7559 95.9253 75.7559 91.1058C75.7559 86.1077 79.8614 82.1807 84.681 82.1807C89.679 82.1807 93.6061 86.2862 93.6061 91.1058C93.6061 95.9253 89.5005 100.031 84.681 100.031ZM84.681 84.3227C80.9324 84.3227 78.0764 87.3572 78.0764 90.9273C78.0764 94.6758 81.1109 97.5318 84.681 97.5318C88.4295 97.5318 91.2856 94.4973 91.2856 90.9273C91.2856 87.3572 88.251 84.3227 84.681 84.3227Z" fill="black"/>
<path d="M94.8544 17.9197H74.3267C73.6127 17.9197 73.0771 17.3842 73.0771 16.6702C73.0771 15.9562 73.6127 15.4207 74.3267 15.4207H94.8544C95.5684 15.4207 96.1039 15.9562 96.1039 16.6702C96.1039 17.3842 95.5684 17.9197 94.8544 17.9197Z" fill="black"/>
<path d="M94.8544 34.3419H74.3267C73.6127 34.3419 73.0771 33.8064 73.0771 33.0924C73.0771 32.3784 73.6127 31.8429 74.3267 31.8429H94.8544C95.5684 31.8429 96.1039 32.3784 96.1039 33.0924C96.1039 33.8064 95.5684 34.3419 94.8544 34.3419Z" fill="black"/>
<path d="M94.8544 50.7639H74.3267C73.6127 50.7639 73.0771 50.2284 73.0771 49.5144C73.0771 48.8004 73.6127 48.2649 74.3267 48.2649H94.8544C95.5684 48.2649 96.1039 48.8004 96.1039 49.5144C96.1039 50.2284 95.5684 50.7639 94.8544 50.7639Z" fill="black"/>
<path d="M139.123 134.303H105.565C104.851 134.303 104.315 133.768 104.315 133.054V6.13855C104.315 5.42454 104.851 4.88904 105.565 4.88904H138.945C139.659 4.88904 140.194 5.42454 140.194 6.13855V133.232C140.194 133.768 139.659 134.303 139.123 134.303ZM106.814 131.983H137.874V7.20957H106.814V131.983Z" fill="black"/>
<path d="M122.345 125.735C117.347 125.735 113.42 121.629 113.42 116.81C113.42 111.812 117.525 107.885 122.345 107.885C127.343 107.885 131.27 111.99 131.27 116.81C131.27 121.629 127.343 125.735 122.345 125.735ZM122.345 110.205C118.596 110.205 115.74 113.24 115.74 116.81C115.74 120.558 118.775 123.414 122.345 123.414C126.094 123.414 128.95 120.38 128.95 116.81C128.95 113.061 126.094 110.205 122.345 110.205Z" fill="black"/>
<path d="M122.345 100.031C117.347 100.031 113.42 95.9253 113.42 91.1058C113.42 86.1077 117.525 82.1807 122.345 82.1807C127.343 82.1807 131.27 86.2862 131.27 91.1058C131.27 95.9253 127.343 100.031 122.345 100.031ZM122.345 84.3227C118.596 84.3227 115.74 87.3572 115.74 90.9273C115.74 94.6758 118.775 97.5318 122.345 97.5318C126.094 97.5318 128.95 94.4973 128.95 90.9273C128.95 87.3572 126.094 84.3227 122.345 84.3227Z" fill="black"/>
<path d="M132.52 17.9197H112.17C111.456 17.9197 110.921 17.3842 110.921 16.6702C110.921 15.9562 111.456 15.4207 112.17 15.4207H132.698C133.412 15.4207 133.948 15.9562 133.948 16.6702C133.948 17.3842 133.234 17.9197 132.52 17.9197Z" fill="black"/>
<path d="M132.52 34.3419H112.17C111.456 34.3419 110.921 33.8064 110.921 33.0924C110.921 32.3784 111.456 31.8429 112.17 31.8429H132.698C133.412 31.8429 133.948 32.3784 133.948 33.0924C133.948 33.8064 133.234 34.3419 132.52 34.3419Z" fill="black"/>
<path d="M132.52 50.7639H112.17C111.456 50.7639 110.921 50.2284 110.921 49.5144C110.921 48.8004 111.456 48.2649 112.17 48.2649H132.698C133.412 48.2649 133.948 48.8004 133.948 49.5144C133.948 50.2284 133.234 50.7639 132.52 50.7639Z" fill="black"/>
</svg>
