<svg width="138" height="124" viewBox="0 0 138 124" fill="none" xmlns="http://www.w3.org/2000/svg">
<path d="M151.287 124H6.92021C6.12149 124 5.52246 123.401 5.52246 122.802V53.1145C5.52246 52.5155 5.92182 52.1161 6.32117 51.9164C6.72053 51.7168 7.31956 51.7168 7.71892 52.1161C10.7141 54.9116 14.508 56.3094 18.5015 56.3094H27.0877C27.8864 56.3094 28.4854 56.9084 28.4854 57.5074V73.4817H37.0716V57.5074C37.0716 56.7087 37.6706 56.3094 38.4693 56.3094H119.738C120.537 56.3094 121.136 56.9084 121.136 57.5074V73.4817H129.722V57.5074C129.722 56.7087 130.321 56.3094 131.12 56.3094H139.706C143.7 56.3094 147.493 54.7119 150.489 52.1161C150.888 51.7168 151.487 51.7168 151.886 51.9164C152.286 52.1161 152.685 52.5155 152.685 53.1145V122.602C152.485 123.401 151.886 124 151.287 124ZM8.31795 121.404H149.89V55.7103C146.894 57.7071 143.3 58.9052 139.506 58.9052H132.118V74.8794C132.118 75.6781 131.519 76.0775 130.721 76.0775H119.539C118.74 76.0775 118.141 75.4784 118.141 74.8794V58.9052H39.8671V74.8794C39.8671 75.6781 39.268 76.0775 38.4693 76.0775H27.2874C26.4886 76.0775 25.8896 75.4784 25.8896 74.8794V58.9052H18.7012C14.9073 58.9052 11.3131 57.7071 8.31795 55.7103V121.404Z" fill="black"/>
<path d="M139.506 58.9051H130.92C130.121 58.9051 129.522 58.3061 129.522 57.707V48.3222H120.936V57.707C120.936 58.5058 120.337 58.9051 119.538 58.9051H38.469C37.6703 58.9051 37.0713 58.3061 37.0713 57.707V48.3222H28.4851V57.707C28.4851 58.5058 27.8861 58.9051 27.0874 58.9051H18.7009C8.51733 58.9051 0.130859 50.5186 0.130859 40.3351V22.9631C0.130859 22.1644 0.729893 21.765 1.5286 21.765H156.878C157.677 21.765 158.276 22.364 158.276 22.9631V40.3351C158.076 50.7183 149.69 58.9051 139.506 58.9051ZM132.118 56.3093H139.506C148.292 56.3093 155.48 49.1209 155.48 40.3351V24.3608H2.72667V40.3351C2.72667 49.1209 9.91508 56.3093 18.7009 56.3093H26.089V46.9244C26.089 46.1257 26.688 45.7264 27.4867 45.7264H38.6687C39.4674 45.7264 40.0664 46.3254 40.0664 46.9244V56.3093H118.74V46.9244C118.74 46.1257 119.339 45.7264 120.137 45.7264H131.319C132.118 45.7264 132.717 46.3254 132.717 46.9244V56.3093H132.118Z" fill="black"/>
<path d="M114.945 24.3607H43.261C42.4623 24.3607 41.8633 23.7617 41.8633 23.1626V1.19807C42.063 0.599034 42.662 0 43.261 0H114.945C115.744 0 116.343 0.599034 116.343 1.19807V22.963C116.143 23.7617 115.544 24.3607 114.945 24.3607ZM44.6588 21.7649H113.747V2.59581H44.6588V21.7649Z" fill="black"/>
<path d="M113.349 37.5394H44.8597C44.0609 37.5394 43.4619 36.9404 43.4619 36.3414C43.4619 35.7423 44.0609 35.1433 44.8597 35.1433H113.349C114.148 35.1433 114.747 35.7423 114.747 36.3414C114.747 36.9404 114.148 37.5394 113.349 37.5394Z" fill="black"/>
<path d="M38.4684 76.277H27.2864C26.4877 76.277 25.8887 75.6779 25.8887 75.0789V47.124C25.8887 46.3253 26.4877 45.9259 27.2864 45.9259H38.4684C39.2671 45.9259 39.8661 46.5249 39.8661 47.124V75.0789C39.8661 75.6779 39.2671 76.277 38.4684 76.277ZM28.6842 73.6811H37.2703V48.322H28.6842V73.6811Z" fill="black"/>
<path d="M130.921 76.277H119.739C118.94 76.277 118.341 75.6779 118.341 75.0789V47.124C118.341 46.3253 118.94 45.9259 119.739 45.9259H130.921C131.719 45.9259 132.318 46.5249 132.318 47.124V75.0789C132.119 75.6779 131.52 76.277 130.921 76.277ZM120.937 73.6811H129.523V48.322H120.937V73.6811Z" fill="black"/>
<path d="M38.4684 69.2882H27.2864C26.4877 69.2882 25.8887 68.6892 25.8887 68.0902C25.8887 67.2914 26.4877 66.8921 27.2864 66.8921H38.4684C39.2671 66.8921 39.8661 67.4911 39.8661 68.0902C39.8661 68.6892 39.2671 69.2882 38.4684 69.2882Z" fill="black"/>
<path d="M130.921 69.2882H119.739C118.94 69.2882 118.341 68.6892 118.341 68.0902C118.341 67.2914 118.94 66.8921 119.739 66.8921H130.921C131.719 66.8921 132.318 67.4911 132.318 68.0902C132.119 68.6892 131.52 69.2882 130.921 69.2882Z" fill="black"/>
<path d="M119.738 103.034H38.469C37.6703 103.034 37.0713 102.435 37.0713 101.836C37.0713 101.037 37.6703 100.638 38.469 100.638H119.738C120.537 100.638 121.136 101.237 121.136 101.836C120.936 102.634 120.537 103.034 119.738 103.034Z" fill="black"/>
</svg>
