<svg width="140" height="130" viewBox="0 0 140 130" fill="none" xmlns="http://www.w3.org/2000/svg">
<path d="M18.8639 108.184C18.661 108.184 18.6611 108.184 18.4582 108.184C17.8497 108.006 17.6469 107.648 17.444 107.29L14.1986 82.7923H10.3447C4.66526 82.7923 0 78.6795 0 73.6727V9.11967C0 4.11279 4.66526 0 10.3447 0H114.198C119.877 0 124.542 4.11279 124.542 9.11967V73.8515C124.542 78.8584 119.877 82.9712 114.198 82.9712H41.5817L20.0809 108.006C19.6752 108.006 19.2696 108.184 18.8639 108.184ZM10.3447 2.32462C6.08512 2.32462 2.63689 5.36451 2.63689 9.11967V73.8515C2.63689 77.4278 6.08512 80.4677 10.3447 80.4677H15.4156C16.0242 80.4677 16.6327 80.8253 16.6327 81.5406L19.6752 104.072L39.5533 80.8253C39.7561 80.4677 40.1618 80.2889 40.5675 80.2889H113.792C118.051 80.2889 121.5 77.249 121.5 73.4938V9.11967C121.5 5.36451 118.051 2.32462 113.792 2.32462H10.3447Z" fill="black"/>
<path d="M141.58 130C141.174 130 140.769 129.821 140.566 129.464L119.065 104.429H46.4492C40.7698 104.429 36.1045 100.316 36.1045 95.3095V85.4746C36.1045 85.2957 36.1045 84.9381 36.3073 84.7593L39.7556 80.8253C39.9584 80.4677 40.3641 80.2889 40.7698 80.2889H113.994C118.254 80.2889 121.702 77.249 121.702 73.4938V22.8886C121.702 22.1733 122.31 21.6368 123.122 21.6368H150.099C155.779 21.6368 160.444 25.7496 160.444 30.7565V95.4883C160.444 100.495 155.779 104.608 150.099 104.608H146.245L142.797 129.106C142.797 129.642 142.391 130 141.783 130H141.58ZM38.7414 86.011V95.4883C38.7414 99.2435 42.1896 102.283 46.4492 102.283H119.674C120.079 102.283 120.485 102.462 120.688 102.82L140.566 126.066L143.608 103.535C143.608 102.999 144.217 102.462 144.825 102.462H150.099C154.359 102.462 157.807 99.4223 157.807 95.6671V30.7565C157.807 27.0014 154.359 23.9615 150.099 23.9615H124.339V73.6726C124.339 78.6795 119.674 82.7923 113.994 82.7923H41.5811L38.7414 86.011Z" fill="black"/>
<path d="M107.503 26.1072H16.8349C16.0236 26.1072 15.415 25.5707 15.415 24.8555C15.415 24.1402 16.0236 23.6038 16.8349 23.6038H107.503C108.315 23.6038 108.923 24.1402 108.923 24.8555C108.923 25.5707 108.112 26.1072 107.503 26.1072Z" fill="black"/>
<path d="M107.503 40.7703H16.8349C16.0236 40.7703 15.415 40.2338 15.415 39.5186C15.415 38.8033 16.0236 38.2668 16.8349 38.2668H107.503C108.315 38.2668 108.923 38.8033 108.923 39.5186C108.923 40.2338 108.112 40.7703 107.503 40.7703Z" fill="black"/>
<path d="M107.503 55.2545H16.8349C16.0236 55.2545 15.415 54.7181 15.415 54.0028C15.415 53.2876 16.0236 52.7511 16.8349 52.7511H107.503C108.315 52.7511 108.923 53.2876 108.923 54.0028C108.72 54.7181 108.112 55.2545 107.503 55.2545Z" fill="black"/>
</svg>
