<svg width="64" height="64" viewBox="0 0 64 64" fill="none" xmlns="http://www.w3.org/2000/svg">
<g clip-path="url(#clip0)">
<path d="M50 28.1333H35.0667C34.5333 28.1333 34 28.5333 34 29.0667V33.0667C34 33.6 34.4 34 35.0667 34H50.1333C50.6667 34 51.2 33.6 51.2 33.0667V29.0667C51.0667 28.5333 50.5333 28.1333 50 28.1333ZM48.9333 32H36V30H48.9333V32Z" fill="#90BF57"/>
<path d="M50 36H35.0667C34.5333 36 34 36.4 34 37.0667C34 37.6 34.4 38.1333 35.0667 38.1333H50.1333C50.6667 38.1333 51.2 37.7333 51.2 37.0667C51.0667 36.5333 50.5333 36 50 36Z" fill="#90BF57"/>
<path d="M42.0005 40.1333H34.9339C34.4005 40.1333 33.8672 40.5333 33.8672 41.0667C33.8672 41.6 34.2672 42.1333 34.9339 42.1333H42.0005C42.5339 42.1333 42.9339 41.7333 42.9339 41.0667C42.9339 40.5333 42.5339 40.1333 42.0005 40.1333Z" fill="#90BF57"/>
<path d="M42.0005 44.1333H34.9339C34.4005 44.1333 33.8672 44.5333 33.8672 45.2C33.8672 45.7333 34.2672 46.1333 34.9339 46.1333H42.0005C42.5339 46.1333 42.9339 45.7333 42.9339 45.2C42.9339 44.5333 42.5339 44.1333 42.0005 44.1333Z" fill="#90BF57"/>
<path d="M17.0667 8.93333C17.6 8.93333 18 8.53333 18 8V6H23.4667L25.2 8.53333C25.3333 8.8 25.7333 8.93333 26 8.93333H50V10.9333H52V8C52 7.46667 51.6 6.93333 50.9333 6.93333H26.5333L24.8 4.4C24.6667 4.13333 24.2667 4 24 4H17.0667C16.4 4 16 4.4 16 5.06667V7.06667H11.0667C10.4 6.93333 10 7.46667 10 8V8.93333H12H17.0667Z" fill="#90BF57"/>
<path d="M21.0667 37.6C22.6667 37.6 24.0001 36.5333 24.4001 34.8C24.5334 34.4 24.8001 32.9333 24.8001 32.4C24.8001 31.6 24.8001 31.3333 24.8001 30.8C24.5334 29.2 22.9334 28 21.0667 28C19.2001 28 17.4667 29.2 17.3334 30.8C17.2001 31.3333 17.2001 31.6 17.3334 32.5333C17.3334 32.9333 17.7334 34.5333 17.7334 34.8C18.0001 36.4 19.4667 37.6 21.0667 37.6ZM19.2001 31.0667C19.2001 30.5333 20.0001 30 20.9334 30C22.0001 30 22.6667 30.5333 22.6667 31.0667C22.6667 31.4667 22.6667 31.6 22.6667 32.2667C22.6667 32.5333 22.4001 33.7333 22.2667 34.2667C22.1334 34.9333 21.4667 35.4667 20.9334 35.4667C20.2667 35.4667 19.7334 34.9333 19.6001 34.2667C19.4667 33.7333 19.2001 32.4 19.2001 32.2667C19.2001 31.7333 19.2001 31.4667 19.2001 31.0667Z" fill="#90BF57"/>
<path d="M26.2669 39.8667L24.1335 38.6667C23.7335 38.5333 23.3335 38.5333 23.0669 38.6667C21.8669 39.4667 20.2669 39.4667 19.0669 38.6667C18.8002 38.4 18.4002 38.4 18.0002 38.6667L15.7335 39.8667C13.6002 41.2 13.3335 44.5333 13.2002 44.9333C13.2002 45.2 13.3335 45.4667 13.4669 45.7333C13.6002 45.8667 13.8669 46 14.2669 46H28.0002C28.2669 46 28.5335 45.8667 28.8002 45.7333C28.9335 45.4667 29.0669 45.2 29.0669 44.9333C28.8002 44.5333 28.5335 41.2 26.2669 39.8667ZM15.3335 44C15.6002 43.0667 15.8669 42 16.6669 41.6L18.4002 40.6667C20.0002 41.6 22.1335 41.6 23.7335 40.6667L25.4669 41.6C26.1335 42 26.5335 43.2 26.8002 44H15.3335Z" fill="#90BF57"/>
<path d="M11.0669 13.0667H16.6669L18.4003 14.8C18.5336 14.9333 18.8003 15.0667 19.0669 15.0667H53.0669V17.0667H55.0669V14C55.0669 13.4667 54.6669 13.0667 54.0003 13.0667H19.4669L17.7336 11.3333C17.6003 11.2 17.3336 11.0667 17.0669 11.0667H10.0003C9.46693 11.0667 8.93359 11.4667 8.93359 12V17.0667H10.9336V13.0667H11.0669Z" fill="#90BF57"/>
<path d="M55.0664 21.0667H57.0664V20C57.0664 19.4667 56.6664 18.9333 55.9997 18.9333H7.99974C7.46641 18.9333 7.06641 19.3333 7.06641 20V21.0667H9.06641H55.0664Z" fill="#90BF57"/>
<path d="M8 25.0666H56V27.0666H58V24C58 23.4667 57.6 23.0667 57.0667 23.0667H55.0667H8.93333H7.06667C6.53333 23.0667 6 23.4667 6 24V27.0666H8V25.0666Z" fill="#90BF57"/>
<path d="M64 30C64 29.8667 64 29.8667 64 30L60 0.8C59.8667 0.4 59.4667 0 58.9333 0H5.06667C4.53333 0 4.13333 0.4 4 0.8L0 29.8667C0 29.8667 0 29.8667 0 30C0 30 0 30 0 30.1333V63.2C0 63.6 0.4 64 1.06667 64H63.0667C63.6 64 64.1333 63.6 64.1333 63.0667L64 30ZM5.86667 2H58.1333L61.8667 28.9333H55.0667C54.5333 28.9333 54 29.3333 54 30V48.9333H42C41.4667 48.9333 40.9333 49.3333 40.9333 50V53.0667C40.9333 53.6 40.5333 54 39.8667 54H24C23.4667 54 22.9333 53.6 22.9333 53.0667V50C22.9333 49.4667 22.5333 48.9333 22 48.9333H10V30C10 29.4667 9.6 28.9333 8.93333 28.9333H2.13333L5.86667 2ZM62 62H2V31.0667H8V50C8 50.5333 8.4 51.0667 9.06667 51.0667H21.0667V53.0667C21.0667 54.6667 22.4 56.1333 24 56.1333H40C41.6 56.1333 42.9333 54.8 42.9333 53.0667V51.0667H54.9333C55.4667 51.0667 56 50.6667 56 50V31.0667H62V62Z" fill="#90BF57"/>
</g>
<defs>
<clipPath id="clip0">
<rect width="64" height="64" fill="white"/>
</clipPath>
</defs>
</svg>
