<svg width="64" height="64" viewBox="0 0 64 64" fill="none" xmlns="http://www.w3.org/2000/svg">
<path d="M52.4 39.0667L43.7333 35.2L41.8667 32.4C41.7333 32.1333 41.4667 32 41.0667 32C40.8 32 40.5333 32.1333 40.2667 32.2667L39.6 32.9333L38.9333 29.2C40.5333 27.7333 41.8667 25.7333 42.4 23.3333C42.5333 22.6667 43.8667 16.1333 44.1333 14.4C44.2667 11.4667 44.2667 10.4 44 8.53333C43.3333 3.6 38.2667 0 32 0C25.7333 0 20.6667 3.6 20 8.4C19.7333 10.4 19.7333 11.4667 19.8667 14.4C20 16 21.2 21.6 21.6 23.3333C22.1333 25.7333 23.3333 27.7333 25.0667 29.2L24.4 32.9333L23.7333 32.2667C23.4667 32 23.2 32 22.9333 32C22.6667 32 22.4 32.1333 22.1333 32.4L20.2667 35.2L11.4667 39.0667C0.133334 44.2667 0 62.2667 0 63.0667C0 63.6 0.4 64 1.06667 64H32H63.0667C63.6 64 64 63.6 64 63.0667C64 62.2667 63.8667 44.2667 52.4 39.0667ZM40.8 34.5333L42 36.2667V44.5333L36.4 38.9333L40.8 34.5333ZM32 62H29.0667L30 46H34.1333L35.0667 62H32ZM34 41.0667V44H30V41.0667C30 40.5333 30.4 40 31.0667 40H33.0667C33.6 40 34 40.4 34 41.0667ZM23.4667 22.9333C22.9333 20.6667 22 15.6 21.8667 14.2667C21.7333 11.3333 21.7333 10.4 21.8667 8.66667C22.4 4.8 26.6667 2 31.8667 2C37.0667 2 41.3333 4.93333 41.8667 8.66667C42.1333 10.5333 42.1333 11.4667 42 14.1333C41.8667 15.4667 40.9333 20.4 40.4 22.8C39.4667 26.9333 35.8667 29.8667 31.8667 29.8667C28 30 24.4 27.0667 23.4667 22.9333ZM26.8 30.5333C28.4 31.4667 30.1333 32 32 32C33.8667 32 35.7333 31.4667 37.2 30.5333L37.8667 34.6667L34.2667 38.2667C33.8667 38.1333 33.4667 38 32.9333 38H30.9333C30.5333 38 30 38.1333 29.6 38.2667L26.1333 34.6667L26.8 30.5333ZM23.2 34.5333L27.6 38.9333L22 44.5333V36.2667L23.2 34.5333ZM12.4 40.9333L20 37.6V47.0667C20 47.4667 20.2667 47.8667 20.6667 48C20.8 48 20.9333 48.1333 21.0667 48.1333C21.3333 48.1333 21.6 48 21.7333 47.8667L28 41.6V45.0667L27.0667 62.1333H2C2.26667 58.2667 3.6 44.9333 12.4 40.9333ZM36.9333 62L36 45.0667V41.4667L42.2667 47.7333C42.4 47.8667 42.6667 48 42.9333 48C43.0667 48 43.2 48 43.3333 47.8667C43.7333 47.7333 44 47.3333 44 46.9333V37.4667L51.6 40.8C60.4 44.8 61.7333 58.1333 62 61.8667H36.9333V62Z" fill="#90BF57"/>
</svg>
