<svg width="64" height="64" viewBox="0 0 64 64" fill="none" xmlns="http://www.w3.org/2000/svg">
<g clip-path="url(#clip0)">
<path d="M52.9333 58H50V55.0667C50 54.5333 49.6 54 48.9333 54H15.0667C14.5333 54 14 54.4 14 55.0667V58H11.0667C10.5333 58 10 58.4 10 59.0667V63.0667C10 63.6 10.4 64.1333 11.0667 64.1333H53.0667C53.6 64.1333 54.1333 63.7333 54.1333 63.0667V59.0667C54 58.4 53.6 58 52.9333 58ZM16 56H48V58H16V56ZM52 62H12V60H14.9333H48.9333H52V62Z" fill="#90BF57"/>
<path d="M32.9336 1.06667C32.9336 0.4 32.5336 0 32.0003 0C31.4669 0 30.9336 0.4 30.9336 1.06667V6H32.9336V1.06667Z" fill="#90BF57"/>
<path d="M63.8672 32.8C63.8672 32.6667 63.8672 32.6667 63.8672 32.5333L54.4005 9.86667H60.0005C60.5339 9.86667 61.0672 9.46667 61.0672 8.8C61.0672 8.4 60.5339 8 60.0005 8H32.9339H30.9339H4.00052C3.46719 8 2.93385 8.4 2.93385 8.93333C2.93385 9.46667 3.33385 10 4.00052 10H9.46719L0.00052084 32.6667C0.00052084 32.6667 0.00052084 32.8 0.00052084 32.9333L-0.132812 33.0667C0.00052084 39.0667 4.93386 44 11.0672 44C17.0672 44 22.1339 39.0667 22.1339 32.9333C22.1339 32.8 22.1339 32.8 22.0005 32.8C22.0005 32.6667 22.0005 32.6667 22.0005 32.5333L12.5339 9.86667H31.0672V52H33.0672V10H51.6005L42.1339 32.6667C42.1339 32.6667 42.1339 32.8 42.1339 32.9333L42.0005 33.0667C42.0005 39.0667 46.9339 44.1333 52.9339 44.1333C58.9339 44.1333 64.0005 39.2 64.0005 33.0667C64.0005 32.9333 64.0005 32.9333 63.8672 32.8ZM11.0672 11.6L19.4672 32H2.53385L11.0672 11.6ZM11.0672 42C6.40052 42 2.66719 38.5333 2.13385 34H20.0005C19.4672 38.5333 15.6005 42 11.0672 42ZM61.4672 32H44.5339L53.0672 11.6L61.4672 32ZM52.9339 42C48.2672 42 44.5339 38.5333 44.0005 34H61.8672C61.4672 38.5333 57.6005 42 52.9339 42Z" fill="#90BF57"/>
</g>
<defs>
<clipPath id="clip0">
<rect width="64" height="64" fill="white"/>
</clipPath>
</defs>
</svg>
