<svg width="52" height="64" viewBox="0 0 52 64" fill="none" xmlns="http://www.w3.org/2000/svg">
<g clip-path="url(#clip0)">
<path d="M50.9333 6H48V8H50V62H8V60H6V63.0667C6 63.6 6.4 64 7.06667 64H51.0667C51.6 64 52.1333 63.6 52.1333 63.0667V7.06667C52 6.4 51.6 6 50.9333 6Z" fill="#90BF57"/>
<path d="M46 57.0667V1.06667C46 0.533333 45.6 0 45.0667 0H1.06667C0.4 0 0 0.4 0 1.06667V57.0667C0 57.6 0.4 58.1333 0.933333 58.1333H44.9333C45.6 58 46 57.6 46 57.0667ZM44 56H2V2H44V56Z" fill="#90BF57"/>
<path d="M32.9339 20C36.8005 20 40.0005 16.8 40.0005 13.0667C40.0005 9.2 36.8005 6.13333 32.9339 6.13333C29.0672 6.13333 25.8672 9.33333 25.8672 13.0667C26.0005 16.8 29.0672 20 32.9339 20ZM37.8672 12H34.0005V8.13333C36.0005 8.53333 37.4672 10 37.8672 12ZM32.0005 8.13333V13.0667C32.0005 13.6 32.4005 14 32.9339 14H37.8672C37.4672 16.2667 35.3339 18 32.9339 18C30.1339 18 28.0005 15.7333 28.0005 13.0667C28.0005 10.5333 29.7339 8.53333 32.0005 8.13333Z" fill="#90BF57"/>
<path d="M7.06667 20H23.0667C23.6 20 24 19.6 24 18.9333C24 18.4 23.6 18 23.0667 18H7.06667C6.53333 18 6 18.4 6 18.9333C6 19.6 6.4 20 7.06667 20Z" fill="#90BF57"/>
<path d="M7.06667 26H39.0667C39.6 26 40.1333 25.6 40.1333 24.9333C40.1333 24.4 39.7333 23.8667 39.0667 23.8667H7.06667C6.53333 23.8667 6 24.2667 6 24.9333C6 25.6 6.4 26 7.06667 26Z" fill="#90BF57"/>
<path d="M7.06667 32H39.0667C39.6 32 40.1333 31.6 40.1333 31.0667C40.1333 30.5333 39.7333 30 39.0667 30H7.06667C6.53333 30 6 30.4 6 31.0667C6 31.6 6.4 32 7.06667 32Z" fill="#90BF57"/>
<path d="M7.06667 8H23.0667C23.6 8 24 7.6 24 6.93333C24 6.4 23.6 6 23.0667 6H7.06667C6.53333 6 6 6.4 6 6.93333C6 7.6 6.4 8 7.06667 8Z" fill="#90BF57"/>
<path d="M7.06667 14H23.0667C23.6 14 24 13.6 24 13.0667C24 12.4 23.6 12 22.9333 12H6.93333C6.4 12 6 12.4 6 13.0667C6 13.6 6.4 14 7.06667 14Z" fill="#90BF57"/>
<path d="M7.06667 52H39.0667C39.6 52 40.1333 51.6 40.1333 51.0667C40.1333 50.5333 39.7333 50 39.0667 50H37.0667V38.9333C37.0667 38.4 36.6667 38 36 38C35.4667 38 35.0667 38.4 35.0667 38.9333V50H33.0667V40C33.0667 39.4667 32.6667 38.9333 32.1333 38.9333C31.6 38.9333 31.0667 39.3333 31.0667 40V50H29.0667V43.0667C29.0667 42.5333 28.6667 42 28.1333 42C27.6 42 27.2 42.4 27.2 43.0667V50H25.2V41.0667C25.2 40.5333 24.8 40 24.1333 40C23.6 40 23.2 40.4 23.2 41.0667V50H21.2V46C21.2 45.4667 20.8 44.9333 20.2667 44.9333C19.7333 44.9333 19.2 45.3333 19.2 46V50H17.2V42C17.2 41.4667 16.8 41.0667 16.1333 41.0667C15.6 41.0667 15.2 41.4667 15.2 42V50H12.9333V40C12.9333 39.4667 12.5333 38.9333 12 38.9333C11.4667 38.9333 10.9333 39.3333 10.9333 40V50H8V36C8 35.4667 7.6 34.9333 7.06667 34.9333C6.53333 34.9333 6 35.3333 6 36V51.0667C6 51.6 6.4 52 7.06667 52Z" fill="#90BF57"/>
</g>
<defs>
<clipPath id="clip0">
<rect width="52" height="64" fill="white"/>
</clipPath>
</defs>
</svg>
