<svg width="64" height="64" viewBox="0 0 64 64" fill="none" xmlns="http://www.w3.org/2000/svg">
<g clip-path="url(#clip0)">
<path d="M8.93385 16H14.0005C14.5339 16 15.0672 15.6 15.0672 15.0667C15.0672 14.5333 14.6672 14 14.0005 14H8.93385C8.40052 14 7.86719 14.4 7.86719 15.0667C8.00052 15.6 8.40052 16 8.93385 16Z" fill="#90BF57"/>
<path d="M8.93333 9.99999H21.8667C22.4 9.99999 22.9333 9.59999 22.9333 9.06666C22.9333 8.53333 22.5333 8.13332 21.8667 8.13332H8.93333C8.4 7.99999 8 8.39999 8 8.93333C8 9.59999 8.4 9.99999 8.93333 9.99999Z" fill="#90BF57"/>
<path d="M44 60.9333V62H2V2H29.4667V15.4667C29.4667 16 29.8667 16.4 30.5333 16.4H44V29.0667C44.2667 29.0667 44.6667 28.9333 44.9333 28.9333C45.3333 28.9333 45.6 29.0667 45.8667 29.0667V15.4667C45.8667 15.2 45.7333 14.9333 45.6 14.8L31.2 0.266667C31.0667 0.133333 30.8 0 30.5333 0H1.06667C0.4 0 0 0.4 0 1.06667V63.0667C0 63.4667 0.4 64 1.06667 64H45.0667C45.6 64 46 63.6 46 62.9333V60.8C45.6 60.8 45.3333 60.9333 45.0667 60.9333C44.6667 60.9333 44.2667 60.9333 44 60.9333ZM31.4667 3.46667L42.5333 14.5333H31.4667V3.46667Z" fill="#90BF57"/>
<path d="M37.8668 38C37.8668 38.4 38.0001 38.6667 38.0001 39.0667C38.0001 39.4667 37.8668 39.8667 37.8668 40.4L36.4001 40C36.0001 40.5333 35.7335 41.2 35.6001 41.8667L37.7335 42.1333C37.3335 44 36.5335 45.7333 35.4668 47.3333C35.6001 48.1333 36.0001 48.8 36.2668 49.4667C38.6668 46.5333 40.1335 42.9333 40.1335 38.8C40.1335 38 40.0001 37.2 39.8668 36.2667C39.0668 36.9333 38.4001 37.4667 37.8668 38Z" fill="#90BF57"/>
<path d="M36 31.7333C36.5333 31.3333 37.2 31.0667 37.7333 30.8C34.8 25.6 29.3333 22 22.9333 22C13.6 22 6 29.6 6 38.9333C6 48.2667 13.6 55.8667 22.9333 55.8667C26 55.8667 28.9333 54.9333 31.4667 53.4667C31.0667 52.9333 30.8 52.4 30.5333 51.7333C28.2667 53.0667 25.7333 53.8667 22.9333 53.8667C18.9333 53.8667 15.2 52.2667 12.5333 49.6L23.3333 39.8667L29.6 40.8C29.7333 40.1333 30 39.4667 30.1333 38.9333L24 38.1333V24.1333C29.2 24.4 33.6 27.4667 36 31.7333ZM11.2 48.2667C9.2 45.6 8 42.5333 8 38.9333C8 34.9333 9.6 31.2 12.2667 28.5333L21.6 38.9333L11.2 48.2667ZM22 36.4L13.7333 27.2C16 25.3333 18.8 24.2667 22 24V36.4Z" fill="#90BF57"/>
<path d="M63.7333 56.6667L59.3333 52.2667C59.0666 52.9333 58.6666 53.4667 58.2666 54L61.7333 57.3333L57.3333 61.6L53.9999 58.2667C53.4666 58.6667 52.7999 59.0667 52.2666 59.3333L56.6666 63.7333C56.7999 63.8667 57.0666 64 57.3333 64C57.5999 64 57.8666 63.8667 57.9999 63.7333L63.7333 58.1333C64.1333 57.7333 64.1333 57.0667 63.7333 56.6667Z" fill="#90BF57"/>
<path d="M44.9336 58.9333C37.2003 58.9333 30.9336 52.6667 30.9336 44.9333C30.9336 37.2 37.2003 30.9333 44.9336 30.9333C48.6669 30.9333 52.1336 32.4 54.8003 35.0667C57.4669 37.7333 58.9336 41.2 58.9336 44.9333C58.9336 48.6667 57.4669 52.1333 54.8003 54.8C52.2669 57.4667 48.6669 58.9333 44.9336 58.9333ZM44.9336 33.0667C38.2669 33.0667 32.9336 38.4 32.9336 45.0667C32.9336 51.7333 38.2669 57.0667 44.9336 57.0667C48.1336 57.0667 51.0669 55.8667 53.3336 53.6C55.6003 51.3333 56.8003 48.2667 56.8003 45.0667C56.9336 38.4 51.6003 33.0667 44.9336 33.0667Z" fill="#90BF57"/>
</g>
<defs>
<clipPath id="clip0">
<rect width="64" height="64" fill="white"/>
</clipPath>
</defs>
</svg>
