<svg width="64" height="64" viewBox="0 0 64 64" fill="none" xmlns="http://www.w3.org/2000/svg">
<path d="M32 40C20.9333 40 12 31.0667 12 20C12 8.93333 20.9333 0 32 0C43.0667 0 52 8.93333 52 20C52 31.0667 43.0667 40 32 40ZM32 2C22.1333 2 14 10.1333 14 20C14 29.8667 22.1333 38 32 38C41.8667 38 50 29.8667 50 20C50 10.1333 41.8667 2 32 2Z" fill="#90BF57"/>
<path d="M32.0003 35.0667C23.7336 35.0667 16.9336 28.4 16.9336 20C16.9336 11.6 23.7336 5.06667 32.0003 5.06667C40.2669 5.06667 47.0669 11.7333 47.0669 20.1333C47.0669 28.5333 40.2669 35.0667 32.0003 35.0667ZM32.0003 7.06667C24.8003 7.06667 18.9336 12.9333 18.9336 20.1333C18.9336 27.3333 24.8003 33.2 32.0003 33.2C39.2003 33.2 45.0669 27.3333 45.0669 20.1333C45.0669 12.9333 39.2003 7.06667 32.0003 7.06667Z" fill="#90BF57"/>
<path d="M24 58H11.0667V54.9333C11.0667 54.9333 11.0667 53.3333 9.33333 51.6L2.26667 44.5333C0 42.4 0 40.1333 0 40V24C0 21.7333 1.73333 20 4 20C6.26667 20 8 21.7333 8 24V32H6V24C6 22.9333 5.06667 22 4 22C2.93333 22 2 22.9333 2 24V40C2 40 2 41.6 3.73333 43.3333L10.6667 50.2667C12.9333 52.5333 12.9333 54.9333 12.9333 54.9333V56H22V48.9333C22 48.9333 22 46.2667 20.2667 44.6667L10.5333 34.9333H10C8.93333 34.9333 8 35.8667 8 36.9333V37.4667L14.6667 44.1333L13.3333 45.7333L6 38.4V36.9333C6 34.6667 7.73333 32.9333 10 32.9333H11.4667L21.7333 43.2C24 45.4667 24 48.8 24 48.9333V58Z" fill="#90BF57"/>
<path d="M53.0667 58H40V48.9333C40 48.8 40 45.4667 42.2667 43.2L52.5333 32.9333H54C56.2667 32.9333 58 34.6667 58 36.9333V38.4L50.6667 45.7333L49.3333 44.2667L56 37.6V37.0667C56 36 55.0667 35.0667 54 35.0667H53.4667L43.7333 44.8C42 46.5333 42 49.0667 42 49.0667V56H51.0667V54.9333C51.0667 54.8 51.0667 52.5333 53.3333 50.2667L60.4 43.2C62 41.6 62.1333 40 62.1333 39.8667V24C62.1333 22.9333 61.2 22 60.1333 22C59.0667 22 58.1333 22.9333 58.1333 24V32H56V24C56 21.7333 57.7333 20 60 20C62.2667 20 64 21.7333 64 24V40C64 40.1333 64 42.4 61.7333 44.6667L54.6667 51.7333C53.0667 53.3333 52.9333 54.9333 52.9333 55.0667V58H53.0667Z" fill="#90BF57"/>
<path d="M55.0667 64H53.0667V58H40V64H38V58C38 56.9333 38.9333 56 40 56H53.0667C54.1333 56 55.0667 56.9333 55.0667 58V64Z" fill="#90BF57"/>
<path d="M25.9997 64H23.9997V58H11.0664V64H9.06641V58C9.06641 56.9333 9.99974 56 11.0664 56H23.9997C25.0664 56 25.9997 56.9333 25.9997 58V64Z" fill="#90BF57"/>
<path d="M32.9328 21.7333H30.3995V24.1333H33.9995V26H30.3995V28.5333H28.3995V26H26.1328V24.1333H28.3995V21.7333H26.1328V19.8667H28.3995V11.8667H32.9328C34.7995 11.8667 36.1328 12.4 37.0661 13.3333C37.8661 14.2667 38.3995 15.4667 38.3995 16.8C38.3995 18.1333 37.9995 19.3333 37.0661 20.2667C36.1328 21.2 34.6661 21.7333 32.9328 21.7333ZM30.3995 13.7333V19.8667H33.0661C34.1328 19.8667 34.9328 19.6 35.4661 18.9333C35.9995 18.4 36.2661 17.6 36.2661 16.8C36.2661 16 35.9995 15.3333 35.4661 14.6667C34.9328 14 34.1328 13.7333 33.0661 13.7333H30.3995Z" fill="#90BF57"/>
</svg>
