<svg width="64" height="64" viewBox="0 0 64 64" fill="none" xmlns="http://www.w3.org/2000/svg">
<g clip-path="url(#clip0)">
<path d="M20.8 2L21.0667 0.533333C21.0667 0.4 21.2 0.133333 21.2 0H8C7.6 0 7.33333 0.133333 7.06667 0.533333L0 12.5333C0.133333 12.6667 0 12.8 0 13.0667V63.0667C0 63.6 0.4 64 1.06667 64H19.0667V62H2V14H18.9333V12H2.8L8.66667 2H20.8Z" fill="#90BF57"/>
<path d="M63.8669 12.5333L56.9336 0.533333C56.6669 0.133333 56.4003 0 56.0003 0H42.9336V2H55.3336L61.2003 12H45.0669V14H62.0003V62H45.0669V64H63.0669C63.6003 64 64.0003 63.6 64.0003 63.0667V13.0667C64.0003 12.8 63.8669 12.6667 63.8669 12.5333Z" fill="#90BF57"/>
<path d="M42.9331 12.8L40.9331 0.8C40.9331 0.4 40.5331 0 39.9997 0H23.9997C23.4664 0 23.0664 0.4 23.0664 0.8L21.0664 12.8V12.9333V62.9333C21.0664 63.4667 21.4664 63.8667 21.9997 63.8667H41.9997C42.5331 63.8667 43.0664 63.4667 43.0664 62.9333V13.0667C43.0664 12.9333 42.9331 12.9333 42.9331 12.8ZM24.7997 2H39.0664L40.7997 12H23.1997L24.7997 2ZM41.0664 62H23.0664V14H41.0664V62Z" fill="#90BF57"/>
<path d="M32 48.9333C29.7333 48.9333 28 50.6667 28 52.9333C28 55.2 29.7333 56.9333 32 56.9333C34.2667 56.9333 36 55.2 36 52.9333C36 50.8 34.2667 48.9333 32 48.9333ZM32 55.0667C30.9333 55.0667 30 54.1333 30 53.0667C30 52 30.9333 51.0667 32 51.0667C33.0667 51.0667 34 52 34 53.0667C34 54.1333 33.0667 55.0667 32 55.0667Z" fill="#90BF57"/>
<path d="M6.93359 53.0667C6.93359 55.3333 8.66693 57.0667 10.9336 57.0667C13.2003 57.0667 14.9336 55.3333 14.9336 53.0667C14.9336 50.8 13.2003 49.0667 10.9336 49.0667C8.80026 48.9333 6.93359 50.8 6.93359 53.0667ZM13.0669 53.0667C13.0669 54.1333 12.1336 55.0667 11.0669 55.0667C10.0003 55.0667 9.06693 54.1333 9.06693 53.0667C9.06693 52 10.0003 51.0667 11.0669 51.0667C12.1336 51.0667 13.0669 51.8667 13.0669 53.0667Z" fill="#90BF57"/>
<path d="M48.9336 53.0667C48.9336 55.3333 50.6669 57.0667 52.9336 57.0667C55.2003 57.0667 56.9336 55.3333 56.9336 53.0667C56.9336 50.8 55.2003 49.0667 52.9336 49.0667C50.8003 48.9333 48.9336 50.8 48.9336 53.0667ZM55.0669 53.0667C55.0669 54.1333 54.1336 55.0667 53.0669 55.0667C52.0003 55.0667 51.0669 54.1333 51.0669 53.0667C51.0669 52 52.0003 51.0667 53.0669 51.0667C54.1336 51.0667 55.0669 51.8667 55.0669 53.0667Z" fill="#90BF57"/>
<path d="M26.9336 28.9333H36.9336C38.0003 28.9333 38.9336 28 38.9336 26.9333V20.9333C38.9336 19.8667 38.0003 18.9333 36.9336 18.9333H26.9336C25.8669 18.9333 24.9336 19.8667 24.9336 20.9333V26.9333C25.0669 28.1333 25.8669 28.9333 26.9336 28.9333ZM26.9336 21.0667H36.9336V27.0667H26.9336V21.0667Z" fill="#90BF57"/>
<path d="M18 26.9333V20.9333C18 19.8667 17.0667 18.9333 16 18.9333H6C4.93333 18.9333 4 19.8667 4 20.9333V26.9333C4 28 4.93333 28.9333 6 28.9333H16C17.0667 28.9333 18 28.1333 18 26.9333ZM6 21.0667H16V27.0667H6V21.0667Z" fill="#90BF57"/>
<path d="M60 26.9333V20.9333C60 19.8667 59.0667 18.9333 58 18.9333H48C46.9333 18.9333 46 19.8667 46 20.9333V26.9333C46 28 46.9333 28.9333 48 28.9333H58C59.0667 28.9333 60 28.1333 60 26.9333ZM48 21.0667H58V27.0667H48V21.0667Z" fill="#90BF57"/>
</g>
<defs>
<clipPath id="clip0">
<rect width="64" height="64" fill="white"/>
</clipPath>
</defs>
</svg>
