<svg width="32" height="32" viewBox="0 0 32 32" fill="none" xmlns="http://www.w3.org/2000/svg">
<path fill-rule="evenodd" clip-rule="evenodd" d="M17.7357 0.66947C16.8505 -0.223157 15.4153 -0.223157 14.5301 0.66947C13.6449 1.5621 13.6449 3.00933 14.5301 3.90196L24.2608 13.7143H2.25882C1.01131 13.7143 0 14.7376 0 16C0 17.2624 1.01131 18.2857 2.25882 18.2857H24.2607L14.5301 28.098C13.6449 28.9907 13.6449 30.4379 14.5301 31.3305C15.4153 32.2232 16.8505 32.2232 17.7357 31.3305L31.2697 17.683C31.7186 17.2652 32 16.6659 32 16C32 15.3343 31.7187 14.735 31.2699 14.3173L17.7357 0.66947Z" fill="white"/>
</svg>
