<svg width="26" height="26" viewBox="0 0 26 26" fill="none" xmlns="http://www.w3.org/2000/svg">
<path d="M16.1819 12.7539L25.0881 3.84765C25.5108 3.42571 25.7486 2.85314 25.7491 2.25589C25.7496 1.65865 25.5129 1.08565 25.0909 0.662966C24.669 0.240277 24.0964 0.00251657 23.4992 0.00198913C22.9019 0.00146168 22.3289 0.23821 21.9062 0.660153L13 9.5664L4.09375 0.660153C3.67106 0.237464 3.09777 0 2.5 0C1.90222 0 1.32894 0.237464 0.906247 0.660153C0.483558 1.08284 0.246094 1.65613 0.246094 2.2539C0.246094 2.85168 0.483558 3.42496 0.906247 3.84765L9.8125 12.7539L0.906247 21.6602C0.483558 22.0828 0.246094 22.6561 0.246094 23.2539C0.246094 23.8517 0.483558 24.425 0.906247 24.8477C1.32894 25.2703 1.90222 25.5078 2.5 25.5078C3.09777 25.5078 3.67106 25.2703 4.09375 24.8477L13 15.9414L21.9062 24.8477C22.3289 25.2703 22.9022 25.5078 23.5 25.5078C24.0978 25.5078 24.6711 25.2703 25.0937 24.8477C25.5164 24.425 25.7539 23.8517 25.7539 23.2539C25.7539 22.6561 25.5164 22.0828 25.0937 21.6602L16.1819 12.7539Z" fill="#90BF57"/>
</svg>
