<svg width="64" height="64" viewBox="0 0 64 64" fill="none" xmlns="http://www.w3.org/2000/svg">
<path d="M0 25C0 11.1929 11.1929 0 25 0H64V39C64 52.8071 52.8071 64 39 64H0V25Z" fill="url(#paint0_linear)"/>
<g filter="url(#filter0_d)">
<path d="M15.1729 27.2896L16.1968 27.9108L16.8056 26.7859C18.1782 24.4873 22.3787 19.1238 31.6744 19.1238C41.2004 19.1238 45.2593 24.9487 46.5929 26.8655L47.2688 27.9175L49.3911 26.5789L48.6837 25.4722C47.9481 24.4078 46.404 22.1977 43.649 20.2453C40.3016 17.8663 36.2717 16.6594 31.6744 16.6594C21.0658 16.6594 16.21 22.8811 14.6105 25.5434L14 26.5789L14.9418 27.1471C14.9847 27.1806 15.0298 27.211 15.0768 27.2382C15.108 27.257 15.14 27.2741 15.1729 27.2896Z" fill="white"/>
<path d="M41.8819 24.9488C38.9379 22.5524 35.4108 21.2833 31.675 21.2833C23.597 21.2833 18.2301 26.7504 16.489 32.1736C14.8944 37.1818 16.8327 44.4389 16.9139 44.7495L17.2767 45.8935L19.7559 45.3608L19.3633 44.1183C19.3459 44.0562 17.5327 37.2489 18.9152 32.9183C19.6607 30.5923 21.2122 28.3292 23.1687 26.7231C25.5295 24.7889 28.4735 23.7626 31.675 23.7626C39.1782 23.7626 43.4317 29.6115 44.6345 32.7178C45.568 35.1142 45.3527 37.8386 44.1143 39.5102C43.6562 40.1224 42.8486 40.8414 41.6193 40.7793C38.8187 40.6368 38.3341 39.2526 37.6606 36.6168C37.3376 35.3478 37.0062 34.034 36.1804 32.9721C35.1748 31.6675 33.7119 31.0371 31.6841 31.0371C29.5031 31.0371 27.8514 31.7561 26.7654 33.1676C24.3963 36.2557 25.9371 41.5281 26.0025 41.7501L26.0207 41.8205C26.1375 42.1402 29.0094 49.8265 36.7006 51.7341L37.924 52L38.5942 49.6218L37.3293 49.3377C31.1813 47.8111 28.6143 41.519 28.4171 41.022C28.1949 40.2154 28.0534 39.3888 27.9947 38.5543C27.9052 37.3565 27.9682 35.7056 28.7758 34.6495C29.3681 33.8775 30.3198 33.5047 31.675 33.5047C34.1427 33.5047 34.556 34.7116 35.2021 37.2149C35.83 39.6552 36.6931 43.0009 41.4843 43.2411C43.324 43.3297 44.9849 42.513 46.1512 40.9507C47.9015 38.6082 48.2336 35.0223 46.9953 31.8273C46.0278 29.3125 44.1615 26.8125 41.8819 24.9488Z" fill="white"/>
<path d="M23.2404 39.1042C22.953 36.7617 23.3572 33.223 25.4397 30.9218C26.8843 29.324 28.9842 28.5196 31.668 28.5196C34.7735 28.5196 37.1243 29.9046 38.6684 32.6291C39.4283 33.9961 39.9303 35.4913 40.1494 37.04L40.2679 38.2568L42.7529 38.0746C42.7553 37.6425 42.7276 37.2107 42.6701 36.7824C42.661 36.6764 42.3744 34.0936 40.9306 31.5017C38.9376 27.9307 35.7426 26.0404 31.6746 26.0404C28.237 26.0404 25.4993 27.1322 23.5519 29.2801C20.9136 32.1909 20.3752 36.4245 20.743 39.4149V39.4422C21.4032 43.9592 23.1427 47.5716 26.22 50.8021L27.1809 51.7315L28.9163 49.9266L28.0597 49.1156C25.3494 46.2761 23.8145 43.0985 23.2404 39.1042Z" fill="white"/>
<path d="M21.4417 16.6934C22.3595 16.1368 25.6058 14.4759 31.6742 14.4759C38.9256 14.4759 42.1478 16.8549 42.1834 16.8723L43.3348 17.6062L44.6792 15.518L43.5842 14.8089C43.5411 14.7774 43.4964 14.746 43.4516 14.7161C42.4013 14.0328 38.677 12 31.6742 12C24.4088 12 20.6779 14.1935 19.7949 14.7924L18.6692 15.5221L20.0111 17.6104L21.4417 16.6934Z" fill="white"/>
<path d="M42.8229 45.0684C40.0587 45.3791 37.8155 44.8473 36.1373 43.507C33.3011 41.2349 32.9333 37.2853 32.9242 37.2116L32.8223 35.979L30.2933 36.1637L30.4018 37.4062C30.4201 37.61 30.8326 42.4384 34.5121 45.4031C36.3436 46.885 38.6323 47.6305 41.3244 47.6305C41.9213 47.6293 42.5176 47.5936 43.1103 47.5237L44.4845 47.3505L43.9792 44.8895L42.8229 45.0684Z" fill="white"/>
</g>
<defs>
<filter id="filter0_d" x="10" y="12" width="43.3911" height="48" filterUnits="userSpaceOnUse" color-interpolation-filters="sRGB">
<feFlood flood-opacity="0" result="BackgroundImageFix"/>
<feColorMatrix in="SourceAlpha" type="matrix" values="0 0 0 0 0 0 0 0 0 0 0 0 0 0 0 0 0 0 127 0"/>
<feOffset dy="4"/>
<feGaussianBlur stdDeviation="2"/>
<feColorMatrix type="matrix" values="0 0 0 0 0 0 0 0 0 0 0 0 0 0 0 0 0 0 0.25 0"/>
<feBlend mode="normal" in2="BackgroundImageFix" result="effect1_dropShadow"/>
<feBlend mode="normal" in="SourceGraphic" in2="effect1_dropShadow" result="shape"/>
</filter>
<linearGradient id="paint0_linear" x1="9.08605" y1="117.364" x2="38.1643" y2="11.7097" gradientUnits="userSpaceOnUse">
<stop stop-color="#0F512B"/>
<stop offset="1" stop-color="#90BF57"/>
</linearGradient>
</defs>
</svg>
