<svg width="64" height="64" viewBox="0 0 64 64" fill="none" xmlns="http://www.w3.org/2000/svg">
<path d="M0 25C0 11.1929 11.1929 0 25 0H64V39C64 52.8071 52.8071 64 39 64H0V25Z" fill="url(#paint0_linear)"/>
<g filter="url(#filter0_d)">
<path fill-rule="evenodd" clip-rule="evenodd" d="M27.1878 24.069C27.1878 17.3836 32.6168 12 39.5005 12C46.3487 12 52.0007 17.3312 52.0007 24.0511C52.0007 30.7675 46.3524 36.1228 39.5005 36.1228C37.999 36.1228 36.7334 35.9307 35.431 35.4652C35.3858 35.4968 35.3358 35.5315 35.2797 35.5697C35.0076 35.7553 34.5368 36.062 33.9897 36.1798C33.6977 36.243 33.4298 36.2161 33.3065 36.2016C33.1484 36.183 32.9892 36.1519 32.8497 36.1209C32.5789 36.0607 32.2707 35.9756 32.0066 35.9028L31.9864 35.8972C31.8396 35.8567 31.7054 35.8197 31.5837 35.7876C31.6221 35.8727 31.6674 35.9678 31.72 36.0753C31.7389 36.114 31.7596 36.1559 31.7816 36.2003C31.8834 36.4061 32.0112 36.6646 32.105 36.8951C32.1649 37.0424 32.2324 37.2282 32.2771 37.4309C32.3189 37.6207 32.3648 37.9287 32.2904 38.2777C32.2029 38.6885 31.9856 39.0551 31.8167 39.3022C31.6246 39.5832 31.3842 39.868 31.119 40.1282C30.649 40.5892 29.8522 41.2174 28.9067 41.3276C28.3119 41.3969 27.7863 41.2164 27.4743 41.0928C27.3524 41.0444 27.2338 40.9921 27.1271 40.9435C27.1336 40.959 27.14 40.9744 27.1464 40.9898C27.2495 41.2409 27.4208 41.6891 27.4108 42.2024C27.3908 43.4181 26.6786 44.155 26.1774 44.6165C25.9003 44.8756 25.5452 45.1976 25.1069 45.4344C24.6204 45.6973 24.0932 45.8265 23.4919 45.8193L23.4911 45.8193C23.0214 45.8133 22.5157 45.7043 22.1948 45.6352C22.1548 45.6265 22.1176 45.6185 22.0837 45.6114C21.8962 45.572 21.7704 45.5485 21.6745 45.5374C21.6677 45.5366 21.6614 45.5359 21.6557 45.5353C21.6563 45.5407 21.6569 45.5462 21.6576 45.5518C21.6759 45.6997 21.6933 45.7954 21.7153 45.9161C21.7361 46.0308 21.7611 46.1682 21.7948 46.3944C21.8793 46.961 22.0653 48.3118 21.0724 49.2853C20.8813 49.4734 20.7326 49.6301 20.5361 49.8371C20.4656 49.9114 20.389 49.9921 20.302 50.0831C19.9793 50.4209 19.5543 50.8572 18.854 51.5393L18.8504 51.5428L18.8474 51.5457C18.2872 52.0844 17.6044 52.019 17.3226 51.9644C17.004 51.9026 16.7195 51.7702 16.5149 51.6613C16.0883 51.4342 15.6309 51.1011 15.2306 50.7835C14.4162 50.1375 13.5913 49.3566 13.2534 49.0033C12.7367 48.4632 12 47.3941 12 46.114L12 46.1131C12.0003 45.6599 12.096 45.2119 12.2808 44.7981C12.4611 44.3944 12.7224 44.0321 13.0482 43.7336C13.2458 43.5385 13.994 42.6973 15.1437 41.375C16.2861 40.061 17.7626 38.3453 19.3318 36.5145C22.2193 33.1455 25.4142 29.3946 27.4053 27.0568C27.1871 26.0386 27.1875 25.027 27.1878 24.1627C27.1878 24.1313 27.1878 24.1 27.1878 24.069ZM21.6462 45.4002C21.6462 45.4002 21.6462 45.4013 21.6461 45.4034C21.6461 45.4012 21.6462 45.4002 21.6462 45.4002ZM31.4347 35.3809C31.4348 35.3809 31.4351 35.3828 31.4355 35.3864C31.4349 35.3827 31.4347 35.3809 31.4347 35.3809ZM31.0929 35.6762C31.0939 35.6763 31.095 35.6764 31.0962 35.6766C31.0754 35.6754 31.0726 35.6738 31.0929 35.6762ZM39.5005 14.8572C34.1519 14.8572 30.045 19.0041 30.045 24.069C30.045 25.2765 30.0586 26.1529 30.3319 26.9394C30.4982 27.4181 30.3986 27.949 30.07 28.3347C29.9248 28.5052 29.7706 28.6862 29.6082 28.8769C27.6194 31.2119 24.4053 34.9856 21.5011 38.3739C19.9307 40.2062 18.449 41.928 17.2998 43.2497C16.1826 44.5346 15.313 45.5197 15.0174 45.8041C15.0054 45.8156 14.9932 45.827 14.9809 45.8381C14.942 45.8729 14.9109 45.9156 14.8896 45.9633C14.8683 46.0109 14.8573 46.0624 14.8572 46.1145C14.8573 46.2095 14.8893 46.3606 14.9868 46.5549C15.0829 46.7465 15.2115 46.9169 15.3181 47.0284C15.5695 47.2912 16.2982 47.9835 17.0062 48.5451C17.1761 48.6799 17.3317 48.7965 17.469 48.893C17.8002 48.5623 18.0398 48.3148 18.2362 48.1093C18.3068 48.0355 18.3741 47.9645 18.44 47.8951C18.6277 47.6973 18.8031 47.5124 19.0045 47.312C19.0091 47.2521 19.0122 47.1064 18.9689 46.8158C18.9612 46.7644 18.9451 46.6701 18.9261 46.5582C18.8896 46.3441 18.8422 46.0657 18.822 45.9022C18.7877 45.6248 18.7255 45.0449 18.9639 44.4888C19.1671 44.0146 19.448 43.561 19.9021 43.2233C20.3431 42.8952 20.8086 42.786 21.0987 42.725C21.4472 42.6516 21.7768 42.6729 22.0038 42.6992C22.2423 42.7269 22.4814 42.7754 22.6711 42.8152C22.6967 42.8206 22.7215 42.8258 22.7457 42.8309C23.1461 42.9151 23.3598 42.9601 23.5267 42.9623C23.6662 42.9639 23.7105 42.9413 23.7485 42.9208C23.8325 42.8754 23.9538 42.7842 24.2296 42.5261C24.2325 42.5234 24.2354 42.5207 24.2384 42.518C24.4376 42.3347 24.5114 42.2429 24.5429 42.1921C24.544 42.1903 24.5449 42.1887 24.5458 42.1872C24.5374 42.1624 24.5241 42.1258 24.5034 42.0754C24.4735 42.0026 24.4409 41.9295 24.3974 41.8324C24.3886 41.8127 24.3794 41.7919 24.3696 41.77C24.3168 41.6517 24.251 41.5026 24.1908 41.3442C24.076 41.0428 23.9293 40.5808 23.9597 40.0494C23.9937 39.457 24.2394 38.8984 24.706 38.4415C25.2322 37.9262 25.8687 37.7367 26.475 37.7617C27.0034 37.7835 27.4708 37.967 27.7691 38.0956C27.9021 38.1529 28.0366 38.2157 28.1478 38.2676C28.1685 38.2772 28.1883 38.2865 28.2072 38.2952C28.3394 38.3567 28.4391 38.4017 28.5274 38.4367C28.5629 38.4508 28.5917 38.4612 28.6143 38.4687C28.6378 38.4575 28.6688 38.4412 28.7074 38.4177C28.8303 38.3431 28.9742 38.2297 29.1183 38.0884C29.2202 37.9885 29.3092 37.8872 29.3804 37.7957C29.3423 37.7146 29.2973 37.6232 29.2431 37.5134C29.2157 37.4577 29.1859 37.3972 29.1535 37.3309C29.0263 37.071 28.861 36.7245 28.7449 36.3678C28.6377 36.0381 28.5036 35.5028 28.6333 34.9256L28.6343 34.9211C28.6348 34.9188 28.6354 34.9165 28.6359 34.9142C28.712 34.588 28.8769 34.3239 28.9726 34.1828C29.0907 34.0088 29.2318 33.8386 29.3812 33.6849C29.6207 33.4386 30.107 32.9986 30.7415 32.8607C31.0342 32.7971 31.3028 32.824 31.4264 32.8385C31.5845 32.8571 31.7437 32.8883 31.8832 32.9192C32.154 32.9794 32.4622 33.0645 32.7263 33.1374L32.7465 33.143C33.0361 33.2229 33.277 33.289 33.4692 33.3316C33.4717 33.3322 33.4741 33.3327 33.4765 33.3333C33.5289 33.3026 33.5924 33.262 33.6698 33.2092C33.7598 33.1479 33.847 33.085 33.9491 33.0115C33.9768 32.9915 34.0057 32.9707 34.036 32.9489C34.1653 32.856 34.3241 32.7432 34.4864 32.6421C34.8842 32.3944 35.3782 32.3576 35.8083 32.5435C36.9948 33.0564 38.0581 33.2656 39.5005 33.2656C44.881 33.2656 49.1436 29.085 49.1436 24.0511C49.1436 19.0208 44.8847 14.8572 39.5005 14.8572ZM33.64 33.364C33.639 33.3638 33.6379 33.3637 33.6367 33.3636C33.6575 33.3647 33.6603 33.3663 33.64 33.364ZM29.5295 37.5711C29.5296 37.571 29.529 37.5725 29.5275 37.5756C29.5287 37.5727 29.5295 37.5712 29.5295 37.5711ZM42.0006 20.5716C41.718 20.5716 41.4418 20.6554 41.2069 20.8124C40.9719 20.9693 40.7888 21.1924 40.6807 21.4535C40.5726 21.7145 40.5443 22.0018 40.5994 22.2789C40.6545 22.556 40.7906 22.8106 40.9904 23.0104C41.1902 23.2102 41.4447 23.3462 41.7219 23.4013C41.999 23.4565 42.2862 23.4282 42.5473 23.32C42.8083 23.2119 43.0314 23.0288 43.1884 22.7939C43.3454 22.5589 43.4292 22.2827 43.4292 22.0002C43.4292 21.6213 43.2786 21.2579 43.0107 20.99C42.7428 20.7221 42.3794 20.5716 42.0006 20.5716ZM39.6195 18.4367C40.3243 17.9657 41.1529 17.7144 42.0006 17.7144C43.1372 17.7144 44.2273 18.1659 45.0311 18.9697C45.8348 19.7734 46.2864 20.8635 46.2864 22.0002C46.2864 22.8478 46.035 23.6764 45.5641 24.3812C45.0931 25.086 44.4238 25.6354 43.6407 25.9597C42.8575 26.2841 41.9958 26.369 41.1644 26.2036C40.3331 26.0383 39.5694 25.6301 38.97 25.0307C38.3707 24.4313 37.9625 23.6677 37.7971 22.8363C37.6317 22.0049 37.7166 21.1432 38.041 20.3601C38.3654 19.577 38.9147 18.9076 39.6195 18.4367Z" fill="white"/>
</g>
<defs>
<filter id="filter0_d" x="8" y="12" width="48.0007" height="48" filterUnits="userSpaceOnUse" color-interpolation-filters="sRGB">
<feFlood flood-opacity="0" result="BackgroundImageFix"/>
<feColorMatrix in="SourceAlpha" type="matrix" values="0 0 0 0 0 0 0 0 0 0 0 0 0 0 0 0 0 0 127 0"/>
<feOffset dy="4"/>
<feGaussianBlur stdDeviation="2"/>
<feColorMatrix type="matrix" values="0 0 0 0 0 0 0 0 0 0 0 0 0 0 0 0 0 0 0.25 0"/>
<feBlend mode="normal" in2="BackgroundImageFix" result="effect1_dropShadow"/>
<feBlend mode="normal" in="SourceGraphic" in2="effect1_dropShadow" result="shape"/>
</filter>
<linearGradient id="paint0_linear" x1="9.08605" y1="117.364" x2="38.1643" y2="11.7097" gradientUnits="userSpaceOnUse">
<stop stop-color="#0F512B"/>
<stop offset="1" stop-color="#90BF57"/>
</linearGradient>
</defs>
</svg>
