<svg width="94" height="88" viewBox="0 0 94 88" fill="none" xmlns="http://www.w3.org/2000/svg">
<path d="M0 28.7347V88H64.8761C80.3898 88 93.0831 75.0692 93.0831 59.2653V0H28.207C12.6933 0 0 12.9307 0 28.7347Z" fill="url(#paint0_linear)"/>
<path d="M40.8438 27.5805C42.0573 27.5805 43.0411 26.5881 43.0411 25.364C43.0411 24.1398 42.0573 23.1475 40.8438 23.1475C39.6303 23.1475 38.6465 24.1398 38.6465 25.364C38.6465 26.5881 39.6303 27.5805 40.8438 27.5805Z" fill="white"/>
<path d="M34.1567 21.413C35.3702 21.413 36.354 20.4207 36.354 19.1965C36.354 17.9724 35.3702 16.98 34.1567 16.98C32.9432 16.98 31.9595 17.9724 31.9595 19.1965C31.9595 20.4207 32.9432 21.413 34.1567 21.413Z" fill="white"/>
<path d="M26.1226 27.5805C27.3361 27.5805 28.3198 26.5881 28.3198 25.364C28.3198 24.1398 27.3361 23.1475 26.1226 23.1475C24.9091 23.1475 23.9253 24.1398 23.9253 25.364C23.9253 26.5881 24.9091 27.5805 26.1226 27.5805Z" fill="white"/>
<path d="M50.1274 14.1943C51.3409 14.1943 52.3246 13.2019 52.3246 11.9778C52.3246 10.7536 51.3409 9.76123 50.1274 9.76123C48.9139 9.76123 47.9301 10.7536 47.9301 11.9778C47.9301 13.2019 48.9139 14.1943 50.1274 14.1943Z" fill="white"/>
<path d="M60.7812 20.3588C61.9947 20.3588 62.9784 19.3665 62.9784 18.1423C62.9784 16.9182 61.9947 15.9258 60.7812 15.9258C59.5677 15.9258 58.584 16.9182 58.584 18.1423C58.584 19.3665 59.5677 20.3588 60.7812 20.3588Z" fill="white"/>
<path d="M67.7226 25.8466C68.9361 25.8466 69.9198 24.8543 69.9198 23.6301C69.9198 22.4059 68.9361 21.4136 67.7226 21.4136C66.5091 21.4136 65.5253 22.4059 65.5253 23.6301C65.5253 24.8543 66.5091 25.8466 67.7226 25.8466Z" fill="white"/>
<path d="M73.5016 35.7094C74.7151 35.7094 75.6988 34.717 75.6988 33.4929C75.6988 32.2687 74.7151 31.2764 73.5016 31.2764C72.2881 31.2764 71.3044 32.2687 71.3044 33.4929C71.3044 34.717 72.2881 35.7094 73.5016 35.7094Z" fill="white"/>
<path d="M78.7236 44.9472C79.9371 44.9472 80.9208 43.9548 80.9208 42.7307C80.9208 41.5065 79.9371 40.5142 78.7236 40.5142C77.5101 40.5142 76.5264 41.5065 76.5264 42.7307C76.5264 43.9548 77.5101 44.9472 78.7236 44.9472Z" fill="white"/>
<path d="M80.0939 54.2778C81.3074 54.2778 82.2911 53.2854 82.2911 52.0613C82.2911 50.8371 81.3074 49.8447 80.0939 49.8447C78.8804 49.8447 77.8966 50.8371 77.8966 52.0613C77.8966 53.2854 78.8804 54.2778 80.0939 54.2778Z" fill="white"/>
<path d="M32.5118 52.061C33.7253 52.061 34.7091 51.0686 34.7091 49.8445C34.7091 48.6203 33.7253 47.6279 32.5118 47.6279C31.2983 47.6279 30.3146 48.6203 30.3146 49.8445C30.3146 51.0686 31.2983 52.061 32.5118 52.061Z" fill="white"/>
<path d="M24.5454 44.2202C25.7589 44.2202 26.7426 43.2278 26.7426 42.0036C26.7426 40.7795 25.7589 39.7871 24.5454 39.7871C23.3319 39.7871 22.3481 40.7795 22.3481 42.0036C22.3481 43.2278 23.3319 44.2202 24.5454 44.2202Z" fill="white"/>
<path d="M17.9869 38.9619C19.2004 38.9619 20.1842 37.9695 20.1842 36.7453C20.1842 35.5212 19.2004 34.5288 17.9869 34.5288C16.7734 34.5288 15.7897 35.5212 15.7897 36.7453C15.7897 37.9695 16.7734 38.9619 17.9869 38.9619Z" fill="white"/>
<path d="M12.0996 47.6279C13.3131 47.6279 14.2968 46.6355 14.2968 45.4113C14.2968 44.1872 13.3131 43.1948 12.0996 43.1948C10.8861 43.1948 9.90234 44.1872 9.90234 45.4113C9.90234 46.6355 10.8861 47.6279 12.0996 47.6279Z" fill="white"/>
<path d="M16.4938 57.6757C17.7073 57.6757 18.6911 56.6834 18.6911 55.4592C18.6911 54.2351 17.7073 53.2427 16.4938 53.2427C15.2803 53.2427 14.2966 54.2351 14.2966 55.4592C14.2966 56.6834 15.2803 57.6757 16.4938 57.6757Z" fill="white"/>
<path d="M79.1544 51.1211L76.0951 51.1486C75.971 51.1497 75.8479 51.1259 75.7329 51.0788C75.618 51.0316 75.5134 50.9619 75.4253 50.8737C75.3371 50.7856 75.2672 50.6807 75.2194 50.5651C75.1717 50.4495 75.1471 50.3256 75.1471 50.2004V46.9853C75.1471 46.8351 75.1825 46.6871 75.2503 46.5534C75.3182 46.4197 75.4165 46.3042 75.5372 46.2163L78.5114 44.0524C78.6115 43.9796 78.6965 43.8876 78.7614 43.7817C78.8263 43.6757 78.8699 43.5579 78.8896 43.435C78.9094 43.3121 78.905 43.1865 78.8766 43.0653C78.8482 42.9441 78.7965 42.8297 78.7243 42.7287C78.5785 42.5247 78.3583 42.3876 78.1122 42.3474C77.8661 42.3072 77.6143 42.3672 77.4121 42.5144L73.6572 45.2458C73.5365 45.3336 73.4382 45.4492 73.3703 45.5829C73.3025 45.7166 73.2671 45.8646 73.2671 46.0148V51.1737C73.2671 51.3196 73.2337 51.4635 73.1696 51.5943C73.1054 51.725 73.0122 51.8391 72.8972 51.9276L55.2346 65.5316C55.0953 65.6389 54.9291 65.7048 54.7546 65.7219C54.5801 65.7389 54.4044 65.7064 54.2473 65.6279C54.0901 65.5495 53.9579 65.4284 53.8654 65.2781C53.773 65.1279 53.724 64.9546 53.7241 64.7777V58.1519C53.7241 58.0075 53.7568 57.8651 53.8197 57.7355C53.8826 57.6058 53.974 57.4923 54.0869 57.4037L68.3392 46.2144C68.4522 46.1262 68.5438 46.0131 68.607 45.8838C68.6702 45.7545 68.7034 45.6123 68.7039 45.4681V39.1789C68.7039 39.0346 68.7365 38.8922 68.7993 38.7626C68.8621 38.6329 68.9534 38.5194 69.0663 38.4307L73.6431 34.8345C73.8396 34.6779 73.9681 34.4503 74.0012 34.1999C74.0344 33.9495 73.9697 33.6959 73.8208 33.4928C73.7473 33.3937 73.6549 33.3104 73.5491 33.2478C73.4433 33.1852 73.3262 33.1445 73.2046 33.1281C73.083 33.1117 72.9594 33.12 72.841 33.1524C72.7226 33.1848 72.6118 33.2407 72.5151 33.3169L67.1844 37.5029C67.0718 37.5918 66.9807 37.7056 66.9183 37.8354C66.8558 37.9652 66.8235 38.1077 66.8239 38.252V44.5412C66.8239 44.6857 66.7913 44.8282 66.7284 44.9579C66.6655 45.0877 66.5741 45.2012 66.4611 45.2899L52.2069 56.4763C52.094 56.5649 52.0026 56.6784 51.9397 56.8081C51.8768 56.9377 51.8441 57.0801 51.8441 57.2245V86.3636C51.8441 86.4118 51.8348 86.4595 51.8165 86.5041C51.7982 86.5486 51.7714 86.5891 51.7377 86.6232C51.7039 86.6573 51.6637 86.6843 51.6196 86.7028C51.5754 86.7212 51.5281 86.7306 51.4803 86.7306H51.4333C51.3855 86.7306 51.3382 86.7212 51.294 86.7028C51.2498 86.6843 51.2097 86.6573 51.1759 86.6232C51.1421 86.5891 51.1153 86.5486 51.0971 86.5041C51.0788 86.4595 51.0694 86.4118 51.0695 86.3636V47.8952C51.0695 47.7494 51.1029 47.6056 51.1669 47.4749C51.231 47.3443 51.3241 47.2303 51.4389 47.1418L61.3559 39.5051C61.4709 39.4166 61.5641 39.3026 61.6283 39.1718C61.6924 39.0411 61.7258 38.8971 61.7258 38.7512V34.1779C61.7258 34.0369 61.7569 33.8977 61.8169 33.7704C61.8769 33.6432 61.9643 33.531 62.0727 33.442L68.3204 28.3158C68.4288 28.2269 68.5162 28.1147 68.5762 27.9874C68.6362 27.8601 68.6673 27.7209 68.6672 27.58V25.1359C68.6672 24.8844 68.5682 24.6432 68.3919 24.4654C68.2156 24.2875 67.9765 24.1876 67.7272 24.1876C67.4779 24.1876 67.2388 24.2875 67.0626 24.4654C66.8863 24.6432 66.7872 24.8844 66.7872 25.1359V26.6782C66.7872 26.8191 66.7561 26.9581 66.6961 27.0853C66.6361 27.2125 66.5487 27.3247 66.4404 27.4136L63.259 30.0241C63.1211 30.1372 62.9543 30.2086 62.7779 30.2299C62.6015 30.2513 62.4226 30.2218 62.2622 30.1448C62.1017 30.0678 61.9661 29.9466 61.8712 29.795C61.7763 29.6435 61.7259 29.468 61.7258 29.2887V19.0903C61.7258 18.8388 61.6268 18.5976 61.4505 18.4198C61.2742 18.242 61.0351 18.1421 60.7858 18.1421C60.5365 18.1421 60.2974 18.242 60.1211 18.4198C59.9448 18.5976 59.8458 18.8388 59.8458 19.0903V37.8134C59.8457 37.9592 59.8123 38.1031 59.7482 38.2337C59.684 38.3644 59.5909 38.4784 59.4759 38.5668L49.5589 46.2035C49.444 46.292 49.3509 46.4061 49.2868 46.5369C49.2228 46.6676 49.1895 46.8115 49.1895 46.9574V86.3636C49.1895 86.4118 49.1801 86.4596 49.1618 86.5041C49.1435 86.5487 49.1166 86.5892 49.0828 86.6232C49.049 86.6573 49.0088 86.6843 48.9646 86.7028C48.9204 86.7212 48.8731 86.7306 48.8253 86.7306H48.7247C48.6769 86.7306 48.6296 86.7212 48.5854 86.7028C48.5412 86.6843 48.5011 86.6573 48.4673 86.6232C48.4335 86.5891 48.4067 86.5486 48.3885 86.5041C48.3702 86.4595 48.3608 86.4118 48.3609 86.3636V37.4981C48.3608 37.3459 48.3971 37.1959 48.4667 37.0608C48.5362 36.9257 48.6369 36.8095 48.7604 36.722L55.1289 32.2093C55.2543 32.1205 55.3562 32.002 55.4258 31.8644C55.4954 31.7267 55.5307 31.5739 55.5284 31.4194L55.4396 25.2321C55.4375 25.0975 55.4071 24.9649 55.3503 24.843C55.2936 24.7211 55.2119 24.6128 55.1106 24.5252L51.3976 21.3192C51.2944 21.2302 51.2116 21.1198 51.1549 20.9954C51.0981 20.8711 51.0686 20.7359 51.0686 20.599V11.814C51.0686 11.5625 50.9695 11.3213 50.7932 11.1435C50.617 10.9656 50.3779 10.8657 50.1286 10.8657C49.8793 10.8657 49.6402 10.9656 49.4639 11.1435C49.2876 11.3213 49.1886 11.5625 49.1886 11.814V21.4718C49.1886 21.6087 49.2181 21.744 49.2749 21.8683C49.3316 21.9926 49.4144 22.1031 49.5176 22.192L53.2409 25.409C53.3424 25.4965 53.4242 25.6048 53.4809 25.7267C53.5376 25.8486 53.568 25.9812 53.5699 26.1159L53.6319 30.4441C53.6342 30.5987 53.599 30.7514 53.5294 30.8891C53.4597 31.0268 53.3578 31.1452 53.2324 31.234L48.006 34.9374C47.8425 35.0533 47.6467 35.1136 47.4469 35.1096C47.2471 35.1056 47.0538 35.0375 46.895 34.9151L42.1531 31.2592C42.0384 31.1706 41.9454 31.0566 41.8814 30.9259C41.8174 30.7953 41.7842 30.6515 41.7842 30.5058V26.3136C41.7842 26.0621 41.6851 25.8209 41.5089 25.6431C41.3326 25.4652 41.0935 25.3653 40.8442 25.3653C40.5949 25.3653 40.3558 25.4652 40.1795 25.6431C40.0032 25.8209 39.9042 26.0621 39.9042 26.3136V31.4431C39.9042 31.5889 39.9374 31.7326 40.0014 31.8633C40.0654 31.9939 40.1584 32.108 40.2731 32.1965L46.1096 36.6969C46.2244 36.7854 46.3175 36.8994 46.3816 37.03C46.4456 37.1607 46.479 37.3045 46.479 37.4503V86.3636C46.479 86.4118 46.4696 86.4596 46.4513 86.5041C46.433 86.5487 46.4061 86.5892 46.3723 86.6232C46.3385 86.6573 46.2983 86.6843 46.2541 86.7028C46.2099 86.7212 46.1626 86.7306 46.1148 86.7306C46.0183 86.7306 45.9258 86.6919 45.8575 86.6231C45.7893 86.5543 45.751 86.4609 45.751 86.3636V46.9574C45.751 46.8115 45.7177 46.6676 45.6536 46.5369C45.5896 46.4061 45.4965 46.292 45.3816 46.2035L35.0989 38.2823V20.7023C35.0989 20.4509 34.9999 20.2097 34.8236 20.0318C34.6473 19.854 34.4082 19.7541 34.1589 19.7541C33.9096 19.7541 33.6705 19.854 33.4942 20.0318C33.3179 20.2097 33.2189 20.4509 33.2189 20.7023V34.9426C33.2189 35.1187 33.1703 35.2913 33.0785 35.4411C32.9867 35.5909 32.8554 35.712 32.6993 35.7908C32.5431 35.8695 32.3684 35.9028 32.1945 35.887C32.0206 35.8712 31.8546 35.8069 31.7149 35.7012L27.4379 32.4772C27.3212 32.3889 27.2264 32.2743 27.1611 32.1427C27.0959 32.011 27.0619 31.8658 27.0619 31.7186V25.1359C27.0619 24.8844 26.9629 24.6432 26.7866 24.4654C26.6103 24.2875 26.3712 24.1876 26.1219 24.1876C25.8726 24.1876 25.6335 24.2875 25.4572 24.4654C25.2809 24.6432 25.1819 24.8844 25.1819 25.1359V32.6668C25.1819 32.814 25.2159 32.9592 25.2811 33.0909C25.3464 33.2226 25.4412 33.3371 25.5579 33.4254L33.2189 39.2026V39.2206L43.5016 47.1418C43.6164 47.2303 43.7095 47.3443 43.7735 47.4749C43.8376 47.6056 43.871 47.7494 43.871 47.8952V86.3636C43.871 86.4609 43.8327 86.5543 43.7644 86.6231C43.6962 86.6919 43.6037 86.7306 43.5072 86.7306H43.5025C43.4547 86.7306 43.4073 86.7212 43.3631 86.7028C43.319 86.6843 43.2788 86.6573 43.245 86.6232C43.2111 86.5892 43.1843 86.5487 43.166 86.5041C43.1477 86.4596 43.1383 86.4118 43.1383 86.3636V57.2264C43.1382 57.0813 43.1052 56.9381 43.0418 56.8079C42.9783 56.6777 42.886 56.564 42.7721 56.4754L33.9502 49.62C33.8566 49.5441 33.748 49.4893 33.6316 49.4592C33.5152 49.4292 33.3938 49.4246 33.2755 49.4459C33.1573 49.4671 33.0449 49.5137 32.9459 49.5824C32.847 49.6511 32.7638 49.7404 32.7019 49.8443C32.5702 50.0671 32.5228 50.3305 32.5683 50.5858C32.6138 50.8412 32.7492 51.0713 32.9496 51.2339L40.8926 57.4066C41.0065 57.4951 41.0988 57.6089 41.1622 57.7391C41.2257 57.8693 41.2587 58.0125 41.2587 58.1576V64.8394C41.2583 65.015 41.2096 65.187 41.118 65.3364C41.0263 65.4857 40.8954 65.6064 40.7397 65.6851C40.5841 65.7637 40.4098 65.7972 40.2364 65.7818C40.063 65.7665 39.8972 65.7028 39.7575 65.598L25.8653 55.172C25.748 55.084 25.6527 54.9696 25.587 54.8379C25.5212 54.7062 25.4868 54.5609 25.4865 54.4134V42.952C25.4865 42.7005 25.3874 42.4593 25.2111 42.2815C25.0349 42.1036 24.7958 42.0037 24.5465 42.0037C24.2972 42.0037 24.0581 42.1036 23.8818 42.2815C23.7055 42.4593 23.6065 42.7005 23.6065 42.952V46.3107C23.6064 46.4809 23.5609 46.648 23.4748 46.7944C23.3886 46.9408 23.265 47.0611 23.1169 47.1426C22.9688 47.2242 22.8016 47.264 22.6329 47.258C22.4643 47.2519 22.3004 47.2001 22.1584 47.1081L19.3586 45.2932C19.2261 45.2073 19.1171 45.0893 19.0417 44.9498C18.9662 44.8104 18.9266 44.6541 18.9267 44.4952V37.6925C18.9267 37.441 18.8276 37.1999 18.6514 37.022C18.4751 36.8442 18.236 36.7443 17.9867 36.7443C17.7374 36.7443 17.4983 36.8442 17.322 37.022C17.1457 37.1999 17.0467 37.441 17.0467 37.6925V43.5508C17.0467 43.676 17.0221 43.8 16.9744 43.9155C16.9266 44.0311 16.8567 44.136 16.7685 44.2242C16.6804 44.3123 16.5758 44.382 16.4609 44.4292C16.3459 44.4764 16.2228 44.5001 16.0987 44.499L13.0395 44.4725C12.9164 44.4714 12.7944 44.4948 12.6804 44.5415C12.5664 44.5883 12.4627 44.6573 12.3753 44.7447C12.2879 44.8321 12.2185 44.936 12.1712 45.0506C12.1238 45.1652 12.0994 45.2881 12.0995 45.4122C12.0994 45.6645 12.1982 45.9066 12.3743 46.0857C12.5503 46.2649 12.7894 46.3667 13.0395 46.369L17.331 46.4074C17.5085 46.4091 17.6819 46.4616 17.8311 46.5586L23.1745 50.0235C23.3069 50.1094 23.4157 50.2274 23.4911 50.3667C23.5665 50.5061 23.606 50.6623 23.606 50.821V53.4927C23.606 53.7423 23.5085 53.9818 23.3345 54.1594C23.1606 54.3369 22.9242 54.438 22.6768 54.4409L17.434 54.5016C17.1837 54.5046 16.9447 54.607 16.7687 54.7865C16.5928 54.966 16.4941 55.2083 16.494 55.4608C16.4939 55.5848 16.5183 55.7076 16.5657 55.8221C16.6131 55.9365 16.6825 56.0404 16.7699 56.1276C16.8573 56.2148 16.961 56.2837 17.075 56.3302C17.189 56.3767 17.311 56.3999 17.434 56.3986L23.9223 56.3232C24.1284 56.3214 24.3294 56.3881 24.4943 56.5128L40.8799 68.8059C40.9972 68.8939 41.0925 69.0083 41.1582 69.14C41.224 69.2717 41.2584 69.417 41.2587 69.5645V84.8459C41.2588 85.0931 41.2106 85.3379 41.1168 85.5663C41.0231 85.7947 40.8856 86.0022 40.7124 86.177C40.5391 86.3518 40.3334 86.4905 40.1069 86.585C39.8805 86.6796 39.6379 86.7283 39.3928 86.7282H39.3806V87.9974L55.5909 87.9917V86.7282C55.3458 86.7283 55.1031 86.6796 54.8767 86.5851C54.6503 86.4905 54.4445 86.3519 54.2712 86.1771C54.0979 86.0023 53.9604 85.7947 53.8666 85.5664C53.7728 85.338 53.7245 85.0932 53.7245 84.8459V69.5536C53.7245 69.4077 53.7579 69.2638 53.8221 69.133C53.8862 69.0023 53.9794 68.8882 54.0944 68.7997L74.28 53.2523C74.4421 53.1275 74.6401 53.0593 74.844 53.0579L79.1567 53.019C79.4068 53.0169 79.646 52.9151 79.822 52.7359C79.9981 52.5567 80.0968 52.3146 80.0967 52.0622C80.0969 51.9378 80.0726 51.8145 80.0252 51.6997C79.9778 51.5848 79.9082 51.4805 79.8205 51.393C79.7329 51.3054 79.6289 51.2363 79.5145 51.1896C79.4001 51.1429 79.2777 51.1197 79.1544 51.1211Z" fill="white"/>
<defs>
<linearGradient id="paint0_linear" x1="8.98298" y1="116.22" x2="101.729" y2="-55.6274" gradientUnits="userSpaceOnUse">
<stop offset="0.15" stop-color="#346D36"/>
<stop offset="0.33" stop-color="#52843F"/>
<stop offset="0.62" stop-color="#7DA44C"/>
<stop offset="0.85" stop-color="#98B954"/>
<stop offset="0.99" stop-color="#A2C057"/>
</linearGradient>
</defs>
</svg>
