<svg width="99" height="88" viewBox="0 0 99 88" fill="none" xmlns="http://www.w3.org/2000/svg">
<path d="M30.0013 0C13.5007 0 0 12.9307 0 28.7347V88H39.9547C39.9547 88 45.6381 77.7054 39.9547 64.8026C39.0622 63.889 39.1459 62.5927 31.673 63.0066C30.4582 63.0455 21.9993 63.4779 21.829 54.1766C20.7805 53.3066 17.601 52.8149 18.3267 46.6138C17.7871 46.3322 17.4213 45.7841 17.4213 45.1545C17.4213 44.2371 18.198 43.4932 19.1559 43.4932C20.1137 43.4932 20.8904 44.2371 20.8904 45.1545C20.8904 45.7011 20.6147 46.1867 20.1885 46.4891C20.0336 47.0628 18.9787 51.3498 21.829 51.9321C21.7562 50.3082 21.829 41.755 21.829 41.755C21.829 41.755 22.2978 41.718 20.735 40.857C20.0355 40.1776 19.2534 40.5446 19.3267 36.762C18.4143 36.4098 17.7703 35.554 17.7703 34.5541C17.7703 33.2398 18.8826 32.1744 20.2548 32.1744C21.627 32.1744 22.7393 33.2398 22.7393 34.5541C22.7393 35.6028 22.031 36.4932 21.0474 36.8099V38.6121C21.0474 38.6121 21.2939 39.3171 21.6726 39.5101C22.0513 39.7026 23.4452 40.5934 23.3913 42.0542C23.3373 43.1044 23.3913 43.8502 23.3913 43.8502L25.4229 42.653C25.4229 42.653 26.1921 42.6402 26.204 41.9049C26.2139 41.3169 26.208 40.5218 26.205 40.226C25.6228 40.0022 25.212 39.457 25.212 38.8193C25.212 37.9824 25.9204 37.304 26.7941 37.304C27.6678 37.304 28.3762 37.9824 28.3762 38.8193C28.3762 39.4304 27.998 39.9572 27.4539 40.1971V42.3538C27.4539 42.3538 27.3619 43.2997 26.3599 43.7008C25.3585 44.1019 24.9536 44.2996 24.9536 44.2996C24.9536 44.2996 24.7877 45.346 24.7971 47.8916C24.8071 50.4372 25.1095 54.6265 25.1095 54.6265C25.1442 54.9233 25.6823 54.3985 25.7347 54.1775C25.7867 53.9566 26.0624 53.6583 26.0471 53.2795C26.0317 52.9007 26.0624 53.0477 26.0471 52.6807C26.0317 52.3137 26.0624 52.6129 26.0471 52.0819C26.0317 51.5509 26.0075 51.5267 26.2035 51.3337C26.3995 51.1408 26.5159 50.8847 26.5159 50.8847L27.1411 50.4357C27.4435 49.798 27.7014 48.7602 27.7554 48.5345C27.2277 48.2889 26.8639 47.7707 26.8639 47.1709C26.8639 46.3341 27.5722 45.6556 28.446 45.6556C29.3197 45.6556 30.028 46.3341 30.028 47.1709C30.028 47.8646 29.5414 48.4492 28.8776 48.6293C28.9217 49.0205 29.0009 50.1318 28.5469 50.5856C27.9915 51.1408 27.4658 51.5812 27.4529 52.6807C27.4401 53.7802 27.6059 54.8636 26.3589 55.524C25.8476 55.8327 25.2649 56.422 25.2649 56.422C25.2649 56.422 25.8709 59.7959 31.9839 60.014C34.9733 59.8215 41.6215 59.409 42.9219 64.9529C42.9358 63.0474 43.6699 58.5442 39.0157 58.0686C37.791 58.062 30.8557 58.7353 31.0463 51.1844C30.931 46.2729 30.734 37.8649 30.734 37.8649C30.734 37.8649 30.5196 37.3841 29.64 36.817C29.1736 36.3628 28.3613 35.901 28.546 33.6741C28.2044 33.3725 25.4966 32.7126 26.0238 29.1742C24.9199 28.9319 24.0967 27.9856 24.0967 26.8548C24.0967 25.5405 25.209 24.4752 26.5812 24.4752C27.9534 24.4752 29.0657 25.5405 29.0657 26.8548C29.0657 28.0462 28.1514 29.0334 26.9579 29.2074C26.8871 29.8057 26.7931 31.7951 28.5455 32.4769C28.5831 32.0407 28.0574 29.3287 30.577 28.7356C30.825 28.5379 30.8953 27.4375 30.8894 27.2393C30.8889 27.2284 30.8938 27.2194 30.9023 27.2113C30.5409 26.9335 30.3097 26.5072 30.3097 26.0289C30.3097 25.192 31.0181 24.5136 31.8918 24.5136C32.7655 24.5136 33.4739 25.192 33.4739 26.0289C33.4739 26.6765 33.0497 27.2289 32.4527 27.446C32.4561 27.8025 32.4329 29.7123 31.5141 29.9333C31.1196 30.177 30.0399 30.0831 30.1077 32.1782C30.1459 33.7646 30.1077 34.4232 30.1077 34.4232C30.1077 34.4232 30.0216 35.0187 30.733 35.6204C31.4443 36.1092 31.827 36.5183 31.827 36.5183L32.1393 36.6682L32.2957 36.5183C32.2957 36.5183 32.2329 36.2272 32.2957 36.0694C32.3586 35.9115 32.2957 35.0215 32.2957 35.0215C32.2957 35.0215 32.0779 33.1113 33.5457 32.4774C34.1283 32.154 34.4832 31.8786 34.4832 31.8786C34.4832 31.8786 34.8139 31.8245 34.7956 30.8308C34.7773 29.8375 34.6392 25.4428 34.6392 25.4428C34.6392 25.4428 34.561 24.7331 33.858 24.5449C33.1551 24.3566 32.2953 23.946 32.2953 23.946C32.2953 23.946 31.7077 23.8194 31.8265 22.4492C31.8492 22.0751 31.8379 21.4958 31.8304 21.2364C31.1948 21.0397 30.7349 20.4683 30.7349 19.7941C30.7349 18.9573 31.4433 18.2788 32.317 18.2788C33.1908 18.2788 33.8991 18.9573 33.8991 19.7941C33.8991 20.4826 33.4199 21.0634 32.764 21.2483V22.5991C32.764 22.5991 32.6502 23.2875 33.3893 23.497C33.8922 23.6217 34.8961 23.8574 35.2644 24.5449C35.4263 24.6108 35.8431 23.525 37.9207 23.3477C38.0811 23.2268 38.2969 23.3008 38.233 21.8514C38.1811 20.6717 38.2137 19.5286 38.2276 19.1441C36.991 19.0076 36.0312 18.0015 36.0312 16.7806C36.0312 15.4664 37.1435 14.401 38.5157 14.401C39.8879 14.401 41.0002 15.4664 41.0002 16.7806C41.0002 17.9275 40.1527 18.8848 39.0251 19.11L39.1706 22.5995C39.1706 22.5995 39.3246 24.2362 37.139 24.3955C36.9009 24.4415 36.2574 24.3367 36.3579 26.0417C36.4584 27.7466 36.3579 30.3818 36.3579 30.3818V31.7288C36.3579 31.7288 36.3411 32.3873 35.2639 33.0757C34.1867 33.7642 33.9882 33.8884 34.014 34.8717C34.0397 35.8546 34.1704 46.6949 34.1704 46.6949L34.3268 46.8447L34.6392 46.5456L36.0455 45.4977C36.0455 45.4977 36.4346 45.1189 36.3579 43.552C36.3406 42.7194 36.1975 41.6687 37.139 41.0078C37.8445 40.5161 38.4028 40.2355 38.389 39.062C38.4004 38.6239 38.3954 38.1958 38.3915 37.9905C37.886 37.6705 37.5529 37.1214 37.5529 36.4975C37.5529 35.5094 38.389 34.7086 39.4206 34.7086C40.4522 34.7086 41.2883 35.5094 41.2883 36.4975C41.2883 37.2499 40.8032 37.8942 40.1161 38.1583C40.1404 38.6685 40.1577 40.3943 39.3261 41.0073C38.9944 41.2501 37.9068 41.7114 37.9197 43.4021C37.9326 44.6405 38.6954 46.8206 34.1694 48.6402C34.0387 48.7649 34.0348 49.4856 34.1694 50.7354C34.3041 51.9856 34.4219 54.0187 36.0446 54.6265C36.546 54.8389 37.7633 54.9257 37.7633 54.9257C37.7633 54.9257 42.9382 54.3947 44.6386 57.4698C44.9822 58.0307 45.7331 59.5 45.8886 60.1638C46.0143 59.9519 46.045 59.2658 46.045 59.2658V54.6265C46.045 54.6265 46.2945 54.2287 45.1074 53.7285C43.9204 53.2283 41.1542 51.832 41.3571 48.4904C41.3809 47.7015 41.4868 46.7703 41.5091 46.5802C40.9616 46.2649 40.5958 45.6907 40.5958 45.0345C40.5958 44.0393 41.4383 43.2324 42.4774 43.2324C43.5169 43.2324 44.3589 44.0393 44.3589 45.0345C44.3589 45.833 43.8169 46.51 43.0664 46.7466C43.0056 47.097 42.6882 49.1513 43.3882 50.4362C43.5659 50.7425 44.2817 51.7609 45.5757 52.382C45.8079 52.4944 46.0747 52.4399 46.0445 51.6338C46.0143 50.8278 46.1069 46.9149 49.4819 44.4504C49.6715 44.3305 49.6384 44.1512 49.6384 44.1512L49.326 43.8521C49.326 43.8521 45.5143 43.0612 46.0445 39.063C46.0143 38.7088 46.5068 37.9668 44.6381 36.9678C44.455 36.7919 43.5818 36.0765 43.6912 34.5337C42.5531 34.2667 41.7086 33.2839 41.7086 32.1114C41.7086 30.734 42.8744 29.6175 44.3124 29.6175C45.7505 29.6175 46.9162 30.734 46.9162 32.1114C46.9162 33.1625 46.2371 34.0619 45.2757 34.4289C45.3302 34.8727 45.5297 35.5545 46.2004 36.0698C46.8103 36.5055 47.931 37.0494 47.6068 39.3621C47.6068 39.9799 47.3167 40.9343 48.7008 41.7565C49.5245 42.1552 50.4195 42.6544 50.4195 42.6544L50.7319 42.9536C50.7319 42.9536 51.0417 43.0299 51.6694 42.0556C52.2966 41.0813 52.607 40.7086 52.607 40.7086L52.9194 40.1098V39.511V35.1704C52.9194 35.1704 53.1595 35.0125 52.1382 34.5716C51.0873 34.1591 49.6384 33.3744 49.6384 33.3744C49.6384 33.3744 47.8543 32.7282 48.232 30.0817C48.1969 29.4411 48.4513 28.5943 46.9821 27.9865C46.3385 27.7177 44.7545 27.3431 44.7946 24.3946C44.8639 23.3671 44.951 21.4014 44.951 21.4014C44.951 21.4014 44.9564 20.4314 43.7011 20.2043C43.158 20.007 41.6928 19.6932 41.9749 17.4207C41.4527 17.2277 41.0824 16.7422 41.0824 16.1742C41.0824 15.4365 41.7066 14.8386 42.4769 14.8386C43.2471 14.8386 43.8713 15.4365 43.8713 16.1742C43.8713 16.7673 43.4674 17.2704 42.9085 17.4444C42.8709 17.7725 42.7783 18.9611 43.3882 19.1564C44.0971 19.384 44.9015 19.4139 45.5757 20.2043C45.7193 20.3446 45.8881 20.2043 45.8881 20.2043L46.2004 19.9051C46.2004 19.9051 46.9811 19.082 48.0756 19.0071C48.2558 18.9886 48.3879 18.7079 48.3879 18.7079V18.2589V15.4621C47.3014 15.208 46.495 14.2697 46.495 13.1507C46.495 11.8365 47.6073 10.7711 48.9795 10.7711C50.3517 10.7711 51.464 11.8365 51.464 13.1507C51.464 14.3 50.6131 15.2592 49.4819 15.4815V18.5581C49.4819 18.5581 49.7537 19.8776 48.0756 20.0544C47.6365 20.1464 46.2158 20.3432 46.5128 23.9456C46.4856 24.7516 46.6692 25.4419 46.6692 25.4419C46.6692 25.4419 46.7227 25.889 46.8256 26.0407C46.9286 26.192 46.7994 26.0758 46.9821 26.1905C47.1647 26.3053 47.0707 26.2341 47.2944 26.3404C47.5187 26.4466 49.0131 27.3882 49.0131 27.3882C49.0131 27.3882 49.9468 27.7001 49.7943 30.0821C49.7893 30.6563 49.6621 31.8113 51.2007 32.4769C52.7392 33.1426 52.9194 33.0757 52.9194 33.0757C52.9194 33.0757 53.2233 33.5484 53.2317 30.0826C53.2406 26.6168 53.3882 22.3004 53.3882 22.3004C53.3882 22.3004 53.4183 22.1373 52.607 21.5522C51.7957 20.9671 50.571 20.3555 50.8883 17.5112C50.9017 17.1229 50.9561 16.8759 50.9972 16.7408C50.8274 16.5194 50.7269 16.2463 50.7269 15.9504C50.7269 15.2127 51.3511 14.6148 52.1214 14.6148C52.8916 14.6148 53.5159 15.2127 53.5159 15.9504C53.5159 16.5246 53.1377 17.0139 52.607 17.2031V19.008C52.607 19.008 52.6332 19.4665 53.2322 19.906C53.8307 20.3455 54.1698 20.6542 54.1698 20.6542L54.4822 20.9534L54.7945 21.1032H54.9509L55.4197 20.804L56.5137 19.906C56.5137 19.906 57.1251 19.5471 56.9825 18.1101C56.9875 17.2381 56.9825 15.5659 56.9825 15.5659C56.9825 15.5659 57.0082 15.0923 56.2014 14.6679C55.4895 14.2194 54.549 13.7026 54.6366 11.5814C53.6431 11.1955 52.9421 10.2624 52.9421 9.17238C52.9421 7.73721 54.1569 6.57371 55.6554 6.57371C57.1538 6.57371 58.3686 7.73721 58.3686 9.17238C58.3686 10.3819 57.5057 11.3984 56.338 11.6881C56.3137 12.0508 56.3613 12.9336 57.2949 13.4703C57.8721 13.7628 58.6869 14.0966 58.5448 15.8651C58.5799 16.5033 58.5448 17.3614 58.5448 17.3614L58.7012 17.6606L58.8577 17.5108L59.4829 17.2116L60.1081 16.7626L60.4204 16.3136V15.4156V14.2754C59.7725 14.1606 59.2814 13.6163 59.2814 12.962C59.2814 12.2243 59.9056 11.6264 60.6759 11.6264C61.4461 11.6264 62.0703 12.2243 62.0703 12.962C62.0703 13.4622 61.7832 13.8984 61.3575 14.1274V16.1638C61.3575 16.1638 61.5347 16.9418 60.2635 17.8099C59.1992 18.4519 58.8572 18.5581 58.8572 18.5581C58.5953 18.9587 58.5097 19.1157 58.5448 19.3063C58.5799 19.4969 58.5448 19.9051 58.5448 19.9051C58.5448 19.9051 58.5889 20.6049 56.3573 22.0002C56.2499 22.1809 56.2009 22.7484 56.2009 22.7484V37.7146C56.2009 37.7146 56.6033 41.9077 53.3882 44.898C52.8867 45.374 50.2631 48.0409 50.2631 48.0409C50.2631 48.0409 48.7082 49.0285 49.0131 55.2244C49.0523 56.2504 49.0131 58.6665 49.0131 58.6665V59.2653C49.1973 59.2264 49.4691 59.252 49.4819 58.9661C49.4948 58.6803 49.7943 58.0682 49.7943 58.0682C49.7943 58.0682 50.523 54.91 57.2944 55.524C57.8127 55.46 61.2788 55.9028 61.6694 51.0341C61.6971 50.7932 61.5946 50.5761 61.5422 50.4832C61.4996 50.4832 61.3184 50.4177 60.7318 50.1361C59.6472 49.6146 56.9256 48.8104 57.2884 43.4917C56.8974 43.2262 56.6419 42.7896 56.6419 42.2955C56.6419 41.4862 57.327 40.8305 58.1716 40.8305C59.0161 40.8305 59.7012 41.4867 59.7012 42.2955C59.7012 42.8303 59.4017 43.2983 58.9552 43.5538C58.7943 44.5609 58.5403 47.8034 61.6694 48.9385C61.8535 48.8488 61.8258 48.3396 61.8258 48.3396V40.7077C61.8258 40.7077 62.1535 40.1838 60.2635 39.3607C59.8482 39.0743 58.8101 39.0061 58.8572 35.9186C58.9042 34.2155 58.52 33.3815 59.9512 32.6263C60.5793 32.2697 61.0813 32.137 61.0461 30.8682C60.7382 30.6231 60.5417 30.2538 60.5417 29.8403C60.5417 29.1026 61.1659 28.5047 61.9362 28.5047C62.7065 28.5047 63.3307 29.1026 63.3307 29.8403C63.3307 30.2775 63.1114 30.6653 62.7728 30.909C62.8089 31.2883 62.8559 32.9387 61.0447 33.5243C60.7328 33.6788 60.2244 33.5987 60.4194 36.0684C60.4378 36.9839 60.0224 37.4391 61.5134 38.3134C62.4436 38.8207 62.9198 39.0615 62.9198 39.0615L63.2322 39.2114C63.3965 39.0473 63.3599 39.0715 63.3886 38.7624C63.4173 38.4532 63.3599 38.3262 63.3886 38.1635C63.4173 38.0009 63.3886 36.5174 63.3886 36.5174C63.3886 36.5174 63.1342 34.7925 64.795 34.1226C65.3345 33.7352 65.5523 33.3076 65.5761 33.2246C65.5999 33.1421 65.5226 33.2739 65.5761 32.9254C65.6296 32.577 65.7325 29.4833 65.7325 29.4833C65.7325 29.4833 65.9137 28.7527 64.3262 28.1363C63.8678 27.8082 63.2515 27.7129 63.5297 25.2736C62.3154 24.9663 61.4204 23.9072 61.4204 22.6474C61.4204 21.1473 62.6901 19.9312 64.2564 19.9312C65.8226 19.9312 67.0923 21.1473 67.0923 22.6474C67.0923 23.983 66.0855 25.0939 64.7593 25.321C64.6979 25.7501 64.69 26.8571 66.0449 27.5375C66.4553 27.8025 67.4973 28.3203 67.1389 30.8298C67.2522 31.0228 67.4512 30.9796 67.4512 30.9796C67.4512 30.9796 68.2279 30.1689 68.3888 29.9318C68.5497 29.6952 68.4225 29.7507 68.5452 29.4828C68.668 29.215 68.7056 29.2766 68.7017 29.0338C68.6977 28.7911 68.7056 28.7574 68.7017 28.435C68.6992 28.2283 68.6997 28.0406 68.7007 27.9325C68.1972 27.731 67.8438 27.2549 67.8438 26.6997C67.8438 25.962 68.468 25.3641 69.2383 25.3641C70.0085 25.3641 70.6327 25.962 70.6327 26.6997C70.6327 27.2981 70.2219 27.8049 69.6556 27.9747C69.71 28.4976 69.8288 30.3619 68.8581 30.9796C67.9012 31.6728 67.7275 31.7719 67.6082 31.8776C67.4884 31.9834 67.427 31.5908 67.2958 32.0275C67.1641 32.4641 67.174 32.421 67.1394 32.6263C67.1052 32.8316 67.2032 32.8671 67.1394 33.0753C67.0755 33.2834 67.2032 33.3977 67.1394 33.5243C67.0755 33.6509 66.979 33.7139 66.9829 33.8234C66.9869 33.933 67.0978 34.1539 66.2018 34.7214C65.6008 35.1761 65.4885 35.3397 65.2642 35.4696C65.04 35.6 65.0108 35.4862 64.9519 35.7688C64.893 36.0518 64.9222 37.9061 64.9519 39.959C64.9816 42.0125 64.9519 50.4353 64.9519 50.4353C64.9519 50.4353 65.1816 56.6249 59.6393 58.2175C59.3472 58.3128 56.2791 58.6082 54.1703 58.5167C53.8609 58.5949 52.0872 58.2535 51.514 63.156C51.4719 63.4542 51.6704 63.3058 51.6704 63.3058L51.9828 63.156L52.608 62.5572C52.608 62.5572 53.598 59.5436 62.6084 60.3122C63.5366 60.2894 70.9258 60.1799 73.2341 56.4211C73.241 56.2215 70.8902 54.7749 70.8902 54.7749C70.8902 54.7749 69.2071 54.343 69.4838 50.734C69.4947 50.4585 70.0699 50.1579 68.2339 48.938C67.873 48.5942 67.2513 47.8233 67.4641 46.2307C66.9834 45.9837 66.6567 45.4978 66.6567 44.9392C66.6567 44.1299 67.3418 43.4742 68.1863 43.4742C69.0309 43.4742 69.716 44.1304 69.716 44.9392C69.716 45.5243 69.3576 46.0292 68.8398 46.2639C68.7848 46.656 68.7145 47.564 69.1709 47.8902C69.76 48.3112 70.7337 49.0873 70.7337 49.0873C70.7337 49.0873 71.5065 49.4026 71.0461 52.5295C71.1466 52.9159 71.5921 53.8191 73.39 54.6246C73.6539 54.8086 74.0152 54.7744 74.0152 54.7744L73.8588 53.5773V44L72.296 42.653C72.296 42.653 71.0699 41.8484 71.507 38.9648C71.2693 38.7064 71.1253 38.3679 71.1253 37.9967C71.1253 37.1873 71.8104 36.5316 72.6549 36.5316C73.4999 36.5316 74.1845 37.1878 74.1845 37.9967C74.1845 38.6675 73.7138 39.2332 73.0712 39.4067C73.0366 39.7002 72.9064 41.3236 74.1712 42.0547C74.9998 42.5895 75.4211 42.8028 75.4211 42.8028C75.4211 42.8028 75.3988 42.3017 75.4211 41.9049C75.4434 41.508 75.5775 41.306 75.5775 41.306C75.5775 41.306 75.6206 41.0756 76.3587 40.5579C77.0651 40.0624 77.5636 39.6931 77.6056 39.6623C77.6032 39.6253 77.6007 39.4498 77.6086 38.7619C77.6215 37.6837 77.5556 36.5577 77.6086 36.3671C77.6616 36.177 77.6086 35.4691 77.6086 35.4691C77.6086 35.4691 77.6363 35.3795 76.9834 34.8703C76.3453 34.3725 75.1711 33.8775 75.4028 31.7292C74.2712 31.3722 73.4544 30.3519 73.4544 29.1486C73.4544 27.6485 74.7241 26.4323 76.2904 26.4323C77.8566 26.4323 79.1263 27.6485 79.1263 29.1486C79.1263 30.469 78.1422 31.5695 76.8383 31.8141L76.9834 32.9245L77.4522 33.2237L78.5462 33.8225L79.015 34.2715C79.015 34.2715 79.3798 34.5683 79.3273 34.8703C79.2748 35.1723 79.3798 35.2249 79.3273 35.4691C79.2748 35.7133 79.3273 35.7683 79.3273 35.7683C79.3273 35.7683 79.6719 35.8716 79.7961 35.6185C79.9204 35.3653 79.9743 35.6303 80.1085 35.1695C80.2426 34.7086 80.1659 34.6745 80.2649 34.4213C80.3639 34.1681 80.4381 33.7959 80.4213 33.6731C80.4114 33.6011 80.4129 33.5115 80.4164 33.4489C79.91 33.2488 79.5535 32.7714 79.5535 32.2138C79.5535 31.476 80.1778 30.8782 80.948 30.8782C81.7183 30.8782 82.3425 31.476 82.3425 32.2138C82.3425 32.7552 82.0064 33.2213 81.5227 33.4309C81.5688 33.8135 81.7381 36.029 79.6397 36.9654C79.3555 37.2196 79.3273 37.5643 79.3273 37.5643C79.3273 37.5643 79.1882 37.6188 79.1709 37.8634C79.1536 38.1081 79.1709 38.9112 79.1709 38.9112C79.1709 38.9112 79.5214 40.592 77.7645 41.4554C77.4195 41.6621 76.7591 41.5469 76.827 44.5983C76.8948 47.6493 76.9834 54.6256 76.9834 54.6256C76.9834 54.6256 77.1562 61.8308 66.3577 63.0066C65.1989 63.2167 57.4513 63.4556 57.4513 63.4556C57.4513 63.4556 52.7813 62.9772 51.6699 70.9387C51.6071 71.9472 50.3205 82.9715 53.5451 87.8502C53.5792 87.9019 53.6074 87.9507 53.6371 88H68.9987C85.4993 88 99 75.0693 99 59.2653V0H30.0013Z" fill="url(#paint0_linear)"/>
<defs>
<linearGradient id="paint0_linear" x1="14.055" y1="161.376" x2="84.1667" y2="-91.7024" gradientUnits="userSpaceOnUse">
<stop stop-color="#0F512B"/>
<stop offset="1" stop-color="#90BF57"/>
</linearGradient>
</defs>
</svg>
