<svg width="516" height="459" viewBox="0 0 516 459" fill="none" xmlns="http://www.w3.org/2000/svg">
<path d="M448.271 1027.92H72.4542C40.3224 1027.92 14.1758 1001.77 14.1758 969.64V67.415C14.1758 35.2826 40.3224 9.13574 72.4542 9.13574H448.271C480.403 9.13574 506.549 35.2826 506.549 67.415V969.64C506.234 1001.77 480.088 1027.92 448.271 1027.92ZM72.4542 10.7109C41.2674 10.7109 15.7509 36.2277 15.7509 67.415V969.64C15.7509 1000.83 41.2674 1026.34 72.4542 1026.34H448.271C479.458 1026.34 504.974 1000.83 504.974 969.64V67.415C504.974 36.2277 479.458 10.7109 448.271 10.7109H72.4542Z" fill="#404040"/>
<path d="M259.26 40.3231C255.794 40.3231 252.959 37.4879 252.959 34.0226C252.959 30.5574 255.794 27.7222 259.26 27.7222C262.725 27.7222 265.56 30.5574 265.56 34.0226C265.56 37.4879 262.725 40.3231 259.26 40.3231ZM259.26 29.2973C256.74 29.2973 254.534 31.5024 254.534 34.0226C254.534 36.5428 256.74 38.748 259.26 38.748C261.78 38.748 263.985 36.5428 263.985 34.0226C263.985 31.1874 262.095 29.2973 259.26 29.2973Z" fill="#404040"/>
<path d="M190.901 72.1404C186.175 72.1404 182.08 68.3602 182.08 63.3198C182.08 58.5944 185.86 54.4991 190.901 54.4991C195.941 54.4991 199.721 58.2794 199.721 63.3198C199.406 68.3602 195.626 72.1404 190.901 72.1404ZM190.901 56.3893C186.805 56.3893 183.655 59.5395 183.655 63.6348C183.655 67.7301 186.805 70.8803 190.901 70.8803C194.996 70.8803 198.146 67.7301 198.146 63.6348C197.831 59.5395 194.681 56.3893 190.901 56.3893Z" fill="#404040"/>
<path d="M288.556 67.415H229.333C226.813 67.415 224.608 65.2099 224.608 62.6897C224.608 60.1695 226.813 57.9644 229.333 57.9644H288.556C291.076 57.9644 293.282 60.1695 293.282 62.6897C293.282 65.2099 291.076 67.415 288.556 67.415ZM229.333 59.8545C227.758 59.8545 226.183 61.1146 226.183 63.0047C226.183 64.5798 227.443 66.1549 229.333 66.1549H288.556C290.131 66.1549 291.707 64.8949 291.707 63.0047C291.707 61.4296 290.446 59.8545 288.556 59.8545H229.333Z" fill="#404040"/>
<path d="M6.92999 162.552H0.944641V120.654H6.92999V162.552ZM2.51973 160.977H5.3549V122.229H2.51973V160.977Z" fill="#404040"/>
<path d="M6.92999 266.194H0.944641V199.724H6.92999V266.194ZM2.51973 264.619H5.3549V201.299H2.51973V264.619Z" fill="#404040"/>
<path d="M6.92999 345.265H0.944641V279.11H6.92999V345.265ZM2.51973 343.69H5.3549V280.685H2.51973V343.69Z" fill="#404040"/>
<rect x="35" y="121" width="450" height="528" fill="white" fill-opacity="0.7"/>
<path d="M485.442 918.291H34.9662V119.079H485.442V918.291ZM36.5413 916.716H483.867V120.654H36.5413V916.716Z" fill="#404040"/>
<path d="M454.886 1038H65.5238C31.8168 1038 4.41026 1010.59 4.41026 976.886V346.21H0V278.165H4.72528V266.824H0V199.094H4.72528V163.497H0V119.709H4.72528V61.1144C4.72528 27.407 31.8168 0 65.5238 0H454.886C488.593 0 516 27.407 516 61.1144V976.886C516 1010.59 488.593 1038 454.886 1038ZM3.15018 343.06H7.87546V976.886C7.87546 1008.7 33.707 1034.85 65.8388 1034.85H455.201C487.018 1034.85 513.165 1009.02 513.165 976.886V61.1144C513.165 29.2971 487.333 3.15023 455.201 3.15023H65.5238C33.707 3.15023 7.87546 28.9821 7.87546 61.1144V122.859H3.15018V160.347H7.87546V202.245H3.15018V263.989H7.87546V281.63H3.15018V343.06Z" fill="#404040"/>
</svg>
