<svg width="279" height="272" viewBox="0 0 279 272" fill="none" xmlns="http://www.w3.org/2000/svg">
<path d="M92.3281 68C104.962 68 116.625 56.3429 116.625 43.7143C116.625 23.3143 88.9266 0 53.4531 0H48.5938V4.85714C48.5938 40.3143 71.9188 68 92.3281 68ZM58.3125 9.71429C86.4969 11.6571 106.906 30.6 106.906 43.7143C106.906 51 99.6172 58.2857 92.3281 58.2857C79.2078 58.2857 60.7422 38.3714 58.3125 9.71429Z" fill="#363F40"/>
<path d="M92.3281 68C104.962 68 116.625 56.3429 116.625 43.7143C116.625 23.3143 88.9266 0 53.4531 0H48.5938V4.85714C48.5938 40.3143 71.9188 68 92.3281 68ZM58.3125 9.71429C86.4969 11.6571 106.906 30.6 106.906 43.7143C106.906 51 99.6172 58.2857 92.3281 58.2857C79.2078 58.2857 60.7422 38.3714 58.3125 9.71429Z" fill="#90BF57"/>
<path d="M170.078 106.857C190.487 106.857 213.812 79.1714 213.812 43.7143V38.8571H208.953C173.48 38.8571 145.781 62.1714 145.781 82.5714C145.781 95.2 157.444 106.857 170.078 106.857ZM204.094 48.5714C202.15 76.7429 183.198 97.1429 170.078 97.1429C162.789 97.1429 155.5 89.8571 155.5 82.5714C155.5 69.4571 175.423 51 204.094 48.5714Z" fill="#363F40"/>
<path d="M170.078 106.857C190.487 106.857 213.812 79.1714 213.812 43.7143V38.8571H208.953C173.48 38.8571 145.781 62.1714 145.781 82.5714C145.781 95.2 157.444 106.857 170.078 106.857ZM204.094 48.5714C202.15 76.7429 183.198 97.1429 170.078 97.1429C162.789 97.1429 155.5 89.8571 155.5 82.5714C155.5 69.4571 175.423 51 204.094 48.5714Z" fill="#90BF57"/>
<path d="M126.344 43.7143H136.062V145.714H126.344V43.7143Z" fill="#363F40"/>
<path d="M126.344 43.7143H136.062V145.714H126.344V43.7143Z" fill="#90BF57"/>
<path d="M126.344 97.1428H136.062C136.062 80.6285 125.372 69.9428 124.886 69.4571L95.7297 40.3142L88.9266 47.1142L118.083 76.2571C118.083 76.2571 126.344 85 126.344 97.1428Z" fill="#363F40"/>
<path d="M126.344 97.1428H136.062C136.062 80.6285 125.372 69.9428 124.886 69.4571L95.7297 40.3142L88.9266 47.1142L118.083 76.2571C118.083 76.2571 126.344 85 126.344 97.1428Z" fill="#90BF57"/>
<path d="M126.344 136H136.063C136.063 123.371 144.323 115.114 144.323 115.114L173.48 85.9714L166.677 79.1714L137.52 108.314C137.034 108.8 126.344 119.486 126.344 136Z" fill="#363F40"/>
<path d="M126.344 136H136.063C136.063 123.371 144.323 115.114 144.323 115.114L173.48 85.9714L166.677 79.1714L137.52 108.314C137.034 108.8 126.344 119.486 126.344 136Z" fill="#90BF57"/>
<path d="M58.3124 194.286H68.0312C68.0312 170 96.2155 150.572 131.203 150.572C150.155 150.572 168.62 157.372 181.255 168.543L187.572 161.257C172.994 148.143 152.584 140.372 130.717 140.372C90.8702 140.857 58.3124 164.657 58.3124 194.286Z" fill="#363F40"/>
<path d="M58.3124 194.286H68.0312C68.0312 170 96.2155 150.572 131.203 150.572C150.155 150.572 168.62 157.372 181.255 168.543L187.572 161.257C172.994 148.143 152.584 140.372 130.717 140.372C90.8702 140.857 58.3124 164.657 58.3124 194.286Z" fill="#90BF57"/>
<path d="M170.078 223.429H179.797C179.797 212.743 171.05 204 160.359 204H106.906C101.561 204 97.1875 199.629 97.1875 194.286C97.1875 188.943 101.561 184.571 106.906 184.571H151.613L205.066 165.143H247.828V155.429H203.122L149.669 174.857H106.906C96.2156 174.857 87.4688 183.6 87.4688 194.286C87.4688 204.971 96.2156 213.714 106.906 213.714H160.359C165.705 213.714 170.078 218.086 170.078 223.429Z" fill="#363F40"/>
<path d="M170.078 223.429H179.797C179.797 212.743 171.05 204 160.359 204H106.906C101.561 204 97.1875 199.629 97.1875 194.286C97.1875 188.943 101.561 184.571 106.906 184.571H151.613L205.066 165.143H247.828V155.429H203.122L149.669 174.857H106.906C96.2156 174.857 87.4688 183.6 87.4688 194.286C87.4688 204.971 96.2156 213.714 106.906 213.714H160.359C165.705 213.714 170.078 218.086 170.078 223.429Z" fill="#90BF57"/>
<path d="M130.231 272H141.894L224.503 242.857H242.969V233.143H222.559L139.95 262.286H132.175L12.6344 200.114C11.1766 198.657 9.71875 196.229 9.71875 194.286C9.71875 188.943 13.6063 185.057 18.9516 184.571L95.7297 208.857L98.6453 199.143L19.4375 174.857C8.74687 174.857 0 183.6 0 194.286C0 201.086 5.83125 206.914 6.31718 207.4L7.28906 208.371L130.231 272Z" fill="#363F40"/>
<path d="M130.231 272H141.894L224.503 242.857H242.969V233.143H222.559L139.95 262.286H132.175L12.6344 200.114C11.1766 198.657 9.71875 196.229 9.71875 194.286C9.71875 188.943 13.6063 185.057 18.9516 184.571L95.7297 208.857L98.6453 199.143L19.4375 174.857C8.74687 174.857 0 183.6 0 194.286C0 201.086 5.83125 206.914 6.31718 207.4L7.28906 208.371L130.231 272Z" fill="#90BF57"/>
<path d="M262.406 223.429H272.125V233.143H262.406V223.429Z" fill="#363F40"/>
<path d="M262.406 223.429H272.125V233.143H262.406V223.429Z" fill="#90BF57"/>
<path d="M252.688 252.571H311V242.857H252.688V155.429H311V145.714H252.688C247.342 145.714 242.969 150.086 242.969 155.429V242.857C242.969 248.2 247.342 252.571 252.688 252.571Z" fill="#363F40"/>
<path d="M252.688 252.571H311V242.857H252.688V155.429H311V145.714H252.688C247.342 145.714 242.969 150.086 242.969 155.429V242.857C242.969 248.2 247.342 252.571 252.688 252.571Z" fill="#90BF57"/>
</svg>
