<svg width="279" height="272" viewBox="0 0 279 272" fill="none" xmlns="http://www.w3.org/2000/svg">
<path d="M311 145.7H252.7C247.4 145.7 243 150.1 243 155.4H203.2L187.5 161.1C174.1 149.1 155.9 141.7 136.1 140.5V136C136.1 123.4 144.4 115.1 144.4 115.1L157 102.5C160.9 105.2 165.5 106.8 170.2 106.8C190.6 106.8 213.9 79.1 213.9 43.7V38.8H209C173.5 38.8 145.8 62.1 145.8 82.5C145.8 87.2 147.4 91.8 150.1 95.7L137.5 108.3C137.4 108.4 136.8 109 136 109.9V43.7H126.3V71.1C125.5 70.1 124.9 69.6 124.8 69.5L112.2 56.9C114.9 53 116.5 48.4 116.5 43.7C116.6 23.3 88.9 0 53.5 0H48.6V4.9C48.6 40.3 71.9 68 92.3 68C97 68 101.6 66.4 105.5 63.7L118.1 76.3C118.1 76.3 126.4 85 126.4 97.2V140.6C91.8 142.4 63.6 161.9 59 187L19.4 174.9C8.7 174.9 0 183.6 0 194.3C0 201.1 5.8 206.9 6.3 207.4L7.3 208.4L130.2 272H141.9L224.5 242.9H243C243 248.2 247.4 252.6 252.7 252.6H311V242.9H252.7V155.5H311V145.7ZM155.5 82.6C155.5 69.5 175.4 51 204.1 48.6C202.2 76.8 183.2 97.2 170.1 97.2C168 97.2 165.9 96.6 164 95.5L173.5 86L166.7 79.2L157.2 88.7C156.1 86.8 155.5 84.7 155.5 82.6ZM92.3 58.3C79.2 58.3 60.7 38.4 58.3 9.7C86.5 11.6 106.9 30.6 106.9 43.7C106.9 45.8 106.3 47.9 105.2 49.8L95.7 40.3L88.9 47.1L98.4 56.6C96.5 57.7 94.4 58.3 92.3 58.3ZM131.2 150.6C148 150.6 164.5 156 176.8 165L149.7 174.9H106.9C96.2 174.9 87.5 183.6 87.5 194.3C87.5 194.8 87.5 195.3 87.6 195.8L68.4 189.9C71.5 167.7 98.4 150.6 131.2 150.6ZM222.6 233.1L140 262.3H132.2L12.6 200.1C11.1 198.6 9.7 196.2 9.7 194.3C9.7 189 13.6 185.1 18.9 184.6L93.2 208.1C96.7 211.6 101.5 213.7 106.9 213.7H160.4C165.7 213.7 170.1 218.1 170.1 223.4H179.8C179.8 212.7 171.1 204 160.4 204H106.9C103.4 204 100.3 202.1 98.6 199.3V199.2L98.4 199.1C97.6 197.7 97.1 196 97.1 194.3C97.1 189 101.5 184.6 106.8 184.6H151.5L205 165.2H243V233.2H222.6V233.1Z" fill="#90BF57"/>
</svg>
