<svg width="48" height="48" viewBox="0 0 48 48" fill="none" xmlns="http://www.w3.org/2000/svg">
<path d="M40.5001 42.0002C40.3031 42.0005 40.1079 41.9618 39.926 41.8864C39.744 41.8109 39.5787 41.7002 39.4398 41.5605L6.43975 8.5605C6.17032 8.27691 6.02234 7.89928 6.02734 7.50814C6.03235 7.117 6.18996 6.74329 6.46656 6.46668C6.74316 6.19008 7.11688 6.03247 7.50802 6.02747C7.89916 6.02246 8.27679 6.17045 8.56038 6.43988L41.5604 39.4399C41.77 39.6497 41.9128 39.9169 41.9706 40.2078C42.0284 40.4986 41.9987 40.8001 41.8852 41.0741C41.7718 41.3481 41.5796 41.5824 41.3331 41.7472C41.0865 41.912 40.7966 42.0001 40.5001 42.0002Z" fill="#828282" fill-opacity="0.5"/>
<path d="M23.9682 36.0003C20.0785 36.0003 16.3275 34.8491 12.8194 32.5784C9.62535 30.5159 6.75004 27.5619 4.50379 24.0472V24.0397C6.37316 21.3612 8.42066 19.0962 10.62 17.27C10.6399 17.2534 10.6562 17.2328 10.6677 17.2096C10.6792 17.1863 10.6858 17.161 10.6871 17.1351C10.6883 17.1092 10.6841 17.0833 10.6749 17.0591C10.6656 17.0348 10.6514 17.0128 10.6332 16.9944L8.76566 15.1297C8.73248 15.0962 8.68791 15.0765 8.64083 15.0744C8.59375 15.0723 8.54761 15.088 8.5116 15.1184C6.17535 17.0872 4.00691 19.5022 2.03535 22.3297C1.69615 22.8165 1.50934 23.3932 1.49865 23.9865C1.48797 24.5798 1.6539 25.1628 1.97535 25.6616C4.45129 29.5362 7.63785 32.7997 11.1891 35.0975C15.1875 37.6878 19.4907 39.0003 23.9682 39.0003C26.385 38.9928 28.7847 38.5945 31.0744 37.8209C31.1046 37.8107 31.1317 37.7929 31.1531 37.7693C31.1745 37.7456 31.1896 37.7169 31.1968 37.6859C31.204 37.6548 31.2032 37.6224 31.1944 37.5917C31.1856 37.5611 31.1692 37.5331 31.1466 37.5106L29.1235 35.4875C29.0769 35.4421 29.0193 35.4095 28.9564 35.3931C28.8934 35.3767 28.8273 35.3769 28.7644 35.3937C27.1976 35.7972 25.5861 36.001 23.9682 36.0003Z" fill="#828282" fill-opacity="0.5"/>
<path d="M46.0163 22.3688C43.5357 18.5325 40.3172 15.2738 36.7097 12.9441C32.7188 10.3641 28.3125 9 23.9682 9C21.5769 9.00424 19.2035 9.41086 16.9472 10.2028C16.9172 10.2133 16.8903 10.2312 16.8691 10.2549C16.8478 10.2787 16.833 10.3074 16.826 10.3385C16.819 10.3695 16.8199 10.4018 16.8288 10.4324C16.8378 10.4629 16.8543 10.4907 16.8769 10.5131L18.8972 12.5334C18.9443 12.5797 19.0027 12.6127 19.0665 12.6291C19.1304 12.6456 19.1975 12.6449 19.261 12.6272C20.7956 12.212 22.3784 12.0012 23.9682 12C27.7829 12 31.5225 13.1653 35.0822 15.4688C38.3363 17.5688 41.2454 20.52 43.4972 24C43.4989 24.0021 43.4998 24.0048 43.4998 24.0075C43.4998 24.0102 43.4989 24.0129 43.4972 24.015C41.8626 26.5884 39.8342 28.8892 37.486 30.8334C37.4659 30.85 37.4494 30.8706 37.4377 30.8939C37.426 30.9171 37.4193 30.9426 37.418 30.9686C37.4166 30.9946 37.4207 31.0207 37.43 31.045C37.4393 31.0693 37.4536 31.0915 37.4719 31.11L39.3375 32.9747C39.3706 33.008 39.4149 33.0278 39.4617 33.03C39.5086 33.0323 39.5546 33.0169 39.5907 32.9869C42.0975 30.8761 44.2675 28.395 46.0257 25.6294C46.3364 25.142 46.5007 24.5757 46.4991 23.9977C46.4974 23.4197 46.3298 22.8543 46.0163 22.3688Z" fill="#828282" fill-opacity="0.5"/>
<path d="M24 15C23.3258 14.9996 22.6538 15.0751 21.9965 15.225C21.9634 15.2319 21.9326 15.2477 21.9077 15.2706C21.8827 15.2936 21.8645 15.3229 21.8549 15.3554C21.8453 15.3879 21.8446 15.4224 21.8531 15.4553C21.8615 15.4881 21.8787 15.518 21.9028 15.5419L32.4581 26.0944C32.482 26.1185 32.5119 26.1357 32.5447 26.1441C32.5776 26.1525 32.6121 26.1519 32.6446 26.1423C32.6771 26.1327 32.7064 26.1144 32.7294 26.0895C32.7523 26.0645 32.7681 26.0338 32.775 26.0006C33.0755 24.6825 33.0752 23.3137 32.7742 21.9957C32.4731 20.6778 31.879 19.4446 31.0359 18.3877C30.1929 17.3308 29.1226 16.4775 27.9045 15.891C26.6864 15.3045 25.3519 15 24 15Z" fill="#828282" fill-opacity="0.5"/>
<path d="M15.5419 21.9052C15.518 21.8811 15.4881 21.864 15.4553 21.8555C15.4224 21.8471 15.3879 21.8477 15.3554 21.8573C15.3229 21.8669 15.2936 21.8852 15.2706 21.9101C15.2477 21.9351 15.2319 21.9658 15.225 21.999C14.885 23.4843 14.9277 25.0316 15.3491 26.496C15.7704 27.9603 16.5567 29.2936 17.6341 30.3711C18.7116 31.4485 20.045 32.2348 21.5093 32.6562C22.9736 33.0775 24.5209 33.1202 26.0063 32.7802C26.0395 32.7733 26.0702 32.7576 26.0951 32.7346C26.1201 32.7117 26.1383 32.6824 26.1479 32.6499C26.1576 32.6173 26.1582 32.5828 26.1497 32.55C26.1413 32.5171 26.1241 32.4872 26.1 32.4634L15.5419 21.9052Z" fill="#828282" fill-opacity="0.5"/>
</svg>
