<svg width="64" height="64" viewBox="0 0 64 64" fill="none" xmlns="http://www.w3.org/2000/svg">
<path d="M0 25C0 11.1929 11.1929 0 25 0H64V39C64 52.8071 52.8071 64 39 64H0V25Z" fill="url(#paint0_linear)"/>
<g filter="url(#filter0_d)">
<path fill-rule="evenodd" clip-rule="evenodd" d="M45.1768 12.2917C47.093 11.9516 48.9272 11.8768 50.4164 12.24C50.751 12.3204 51.0561 12.4939 51.2962 12.7406C51.5336 12.9844 51.6978 13.2898 51.7705 13.6219C52.1201 15.1552 52.0476 17.0049 51.7064 18.9359C51.361 20.8913 50.7226 23.0264 49.8588 25.1697C48.1373 29.4406 45.4655 33.8774 42.2457 37.0804C41.2993 38.0325 40.2851 38.9143 39.2113 39.7188C39.2816 41.4718 39.0817 43.2857 38.3672 44.9252L38.3665 44.9268C37.2089 47.5746 35.1233 49.2371 33.1146 50.2695C31.1117 51.2989 29.0986 51.7489 27.9039 51.9409C27.5661 51.9955 27.2202 51.9717 26.893 51.8713C26.5658 51.7709 26.2661 51.5966 26.0171 51.3619C25.768 51.1272 25.5762 50.8384 25.4565 50.5178C25.3369 50.1971 25.2926 49.8533 25.327 49.5128C25.3274 49.5087 25.3278 49.5047 25.3283 49.5006L25.9576 43.7667C25.8938 43.7603 25.8301 43.7536 25.7665 43.7465C25.0653 43.6742 24.4107 43.3611 23.9143 42.8605C23.9131 42.8593 23.912 42.8582 23.9109 42.857L21.1199 40.066C21.1187 40.0649 21.1176 40.0637 21.1164 40.0626C20.616 39.5664 20.3029 38.9123 20.2303 38.2114C20.2229 38.1445 20.2159 38.0775 20.2092 38.0104L14.47 38.6405L14.4641 38.6411L14.4597 38.6416C14.1187 38.6765 13.7743 38.6325 13.4532 38.5129C13.132 38.3933 12.8427 38.2013 12.6076 37.9519C12.3726 37.7024 12.1981 37.4023 12.0978 37.0745C11.9975 36.7468 11.9739 36.4004 12.029 36.0622L12.0294 36.0596C12.2256 34.8688 12.6778 32.8587 13.7086 30.8569C14.7422 28.85 16.4041 26.7659 19.0499 25.6026L19.0537 25.6009C20.694 24.8854 22.5176 24.6857 24.2815 24.7627C25.0861 23.6928 25.9672 22.6822 26.918 21.739C30.1303 18.5297 34.6342 15.8591 38.9332 14.1388C41.0909 13.2754 43.2332 12.6366 45.1768 12.2917ZM39.9947 16.7915C35.9517 18.4094 31.8066 20.8932 28.9359 23.7619L28.9321 23.7656C27.9067 24.7826 26.9718 25.8867 26.1378 27.0657C25.8436 27.4816 25.3502 27.7094 24.8428 27.6635C23.1038 27.5061 21.4951 27.6537 20.1982 28.2189C18.3368 29.0379 17.0894 30.5329 16.2488 32.1651C15.6013 33.4224 15.223 34.7102 15.0052 35.7074L21.3968 35.0057C21.7981 34.9616 22.1993 35.0895 22.5012 35.3575C22.8031 35.6256 22.9775 36.0089 22.9812 36.4127C22.9858 36.9102 23.0157 37.4071 23.0707 37.9016C23.0713 37.9066 23.0718 37.9116 23.0723 37.9166C23.0768 37.961 23.0966 38.0025 23.1284 38.0339L23.1343 38.0398L25.937 40.8425L25.9429 40.8484C25.9743 40.8801 26.0158 40.9 26.0603 40.9044C26.0656 40.905 26.071 40.9055 26.0763 40.9061C26.5677 40.9609 27.0616 40.9908 27.556 40.9956C27.9596 40.9995 28.3427 41.174 28.6106 41.4758C28.8785 41.7777 29.0062 42.1788 28.9622 42.58L28.2612 48.9672C29.2582 48.7524 30.549 48.3756 31.8085 47.7282C33.4417 46.8889 34.935 45.6423 35.7481 43.7833C36.3147 42.4827 36.4621 40.8812 36.3128 39.1475C36.2692 38.6412 36.4978 38.1499 36.9132 37.8571C38.0954 37.0241 39.2026 36.0893 40.2219 35.0634L40.228 35.0574C43.1123 32.1891 45.5944 28.1065 47.2087 24.1016C48.013 22.1062 48.588 20.1636 48.8928 18.4388C49.1398 17.0406 49.1984 15.8453 49.0923 14.9041C48.2057 14.8041 47.0513 14.8609 45.6761 15.105C43.9609 15.4094 42.0084 15.9857 39.9947 16.7915ZM27.4499 49.12C27.4493 49.1201 27.4487 49.1202 27.4482 49.1203L27.4494 49.1201C27.4496 49.1201 27.4497 49.12 27.4499 49.12ZM38.504 23.1248C38.0325 23.1248 37.5715 23.2646 37.1795 23.5266C36.7874 23.7886 36.4819 24.161 36.3014 24.5966C36.121 25.0323 36.0738 25.5116 36.1659 25.9741C36.2579 26.4366 36.485 26.8613 36.8185 27.1947L35.8081 28.2053L36.8196 27.1959C37.0407 27.4174 37.3032 27.5931 37.5922 27.713C37.8813 27.8329 38.1911 27.8946 38.504 27.8946C38.8169 27.8946 39.1267 27.8329 39.4158 27.713C39.7048 27.5931 39.9673 27.4174 40.1884 27.1959L40.1895 27.1947C40.523 26.8613 40.7501 26.4366 40.8421 25.9741C40.9342 25.5116 40.887 25.0323 40.7066 24.5966C40.5262 24.161 40.2206 23.7886 39.8285 23.5266C39.4365 23.2646 38.9755 23.1248 38.504 23.1248ZM34.7979 29.2149C34.065 28.482 33.5659 27.5483 33.3636 26.5317C33.1613 25.515 33.265 24.4611 33.6616 23.5034C34.0583 22.5456 34.7301 21.7269 35.592 21.151C36.454 20.575 37.4673 20.2676 38.504 20.2676C39.5407 20.2676 40.554 20.575 41.416 21.151C42.2779 21.7269 42.9497 22.5456 43.3464 23.5034C43.743 24.4611 43.8467 25.515 43.6444 26.5317C43.4422 27.5479 42.9433 28.4814 42.2109 29.2141C41.7244 29.7016 41.1466 30.0883 40.5106 30.3522C39.8745 30.616 39.1926 30.7519 38.504 30.7519C37.8154 30.7519 37.1335 30.616 36.4974 30.3522C35.8617 30.0884 35.2841 29.702 34.7979 29.2149Z" fill="white"/>
<path fill-rule="evenodd" clip-rule="evenodd" d="M20.3492 40.3821C20.4453 41.1653 19.8884 41.878 19.1053 41.9742C18.5319 42.0445 17.9985 42.3042 17.5894 42.7121C17.4522 42.8505 17.2306 43.2301 17.0119 43.9461C16.807 44.6171 16.6536 45.415 16.5419 46.2067C16.4723 46.7005 16.4208 47.1779 16.383 47.6009C16.8064 47.5631 17.2842 47.5115 17.7783 47.4418C18.5702 47.3301 19.3679 47.1765 20.0384 46.9714C20.7558 46.752 21.1338 46.53 21.2699 46.3938L21.2724 46.3914C21.681 45.9844 21.9406 45.4517 22.0093 44.8791C22.1032 44.0957 22.8145 43.5368 23.5979 43.6307C24.3812 43.7247 24.9401 44.4359 24.8462 45.2193C24.7011 46.4292 24.1526 47.5551 23.2893 48.4151C22.6384 49.0655 21.6957 49.4524 20.8741 49.7037C20.005 49.9696 19.045 50.1486 18.1776 50.271C17.3036 50.3943 16.4868 50.4652 15.8908 50.5053C15.5918 50.5255 15.3459 50.538 15.1732 50.5456C15.0868 50.5494 15.0185 50.5519 14.971 50.5536C14.9472 50.5544 14.9285 50.555 14.9153 50.5554L14.8997 50.5558L14.8929 50.556C14.8927 50.556 14.8925 50.556 14.8561 49.1278C13.428 49.0914 13.428 49.0912 13.428 49.091L13.4281 49.0842L13.4286 49.0686C13.429 49.0554 13.4296 49.0368 13.4304 49.013C13.432 48.9655 13.4346 48.8973 13.4383 48.8109C13.4459 48.6383 13.4585 48.3926 13.4786 48.0937C13.5187 47.498 13.5895 46.6815 13.7127 45.8078C13.835 44.9405 14.0138 43.9808 14.2793 43.1115C14.5306 42.289 14.9171 41.3459 15.5666 40.6942L15.569 40.6918C16.4289 39.8331 17.551 39.2863 18.7571 39.1382C19.5403 39.0421 20.253 39.599 20.3492 40.3821ZM14.8561 49.1278L13.428 49.0914C13.418 49.4828 13.5691 49.8612 13.8459 50.138C14.1228 50.4149 14.5011 50.566 14.8925 50.556L14.8561 49.1278Z" fill="white"/>
</g>
<defs>
<filter id="filter0_d" x="8" y="12" width="48" height="47.9695" filterUnits="userSpaceOnUse" color-interpolation-filters="sRGB">
<feFlood flood-opacity="0" result="BackgroundImageFix"/>
<feColorMatrix in="SourceAlpha" type="matrix" values="0 0 0 0 0 0 0 0 0 0 0 0 0 0 0 0 0 0 127 0"/>
<feOffset dy="4"/>
<feGaussianBlur stdDeviation="2"/>
<feColorMatrix type="matrix" values="0 0 0 0 0 0 0 0 0 0 0 0 0 0 0 0 0 0 0.25 0"/>
<feBlend mode="normal" in2="BackgroundImageFix" result="effect1_dropShadow"/>
<feBlend mode="normal" in="SourceGraphic" in2="effect1_dropShadow" result="shape"/>
</filter>
<linearGradient id="paint0_linear" x1="9.08605" y1="117.364" x2="38.1643" y2="11.7097" gradientUnits="userSpaceOnUse">
<stop stop-color="#0F512B"/>
<stop offset="1" stop-color="#90BF57"/>
</linearGradient>
</defs>
</svg>
