<svg width="32" height="25" viewBox="0 0 32 25" fill="none" xmlns="http://www.w3.org/2000/svg">
<path d="M10.7683 6.625V3.8125C10.7683 3.06658 11.0644 2.35121 11.5913 1.82376C12.1183 1.29632 12.833 1 13.5783 1H28.19C28.9353 1 29.65 1.29632 30.177 1.82376C30.7039 2.35121 31 3.06658 31 3.8125V20.6875C31 21.4334 30.7039 22.1488 30.177 22.6762C29.65 23.2037 28.9353 23.5 28.19 23.5H13.5783C12.833 23.5 12.1183 23.2037 11.5913 22.6762C11.0644 22.1488 10.7683 21.4334 10.7683 20.6875V17.875" stroke="white" stroke-width="2" stroke-linecap="round" stroke-linejoin="round"/>
<path d="M17.5122 17.875L23.1321 12.25L17.5122 6.625" stroke="white" stroke-width="2" stroke-linecap="round" stroke-linejoin="round"/>
<path d="M1.77649 12.25H22.0082" stroke="white" stroke-width="2" stroke-linecap="round" stroke-linejoin="round"/>
</svg>