<svg width="48" height="48" viewBox="0 0 48 48" fill="none" xmlns="http://www.w3.org/2000/svg">
<path d="M23.9682 10.5C16.6613 10.5 9.16603 14.7291 3.2654 23.1872C3.09698 23.4313 3.00468 23.7198 3.00017 24.0163C2.99567 24.3128 3.07916 24.604 3.24009 24.8531C7.77384 31.95 15.1688 37.5 23.9682 37.5C32.672 37.5 40.2188 31.9331 44.761 24.8203C44.9182 24.5761 45.0018 24.2918 45.0018 24.0014C45.0018 23.711 44.9182 23.4267 44.761 23.1825C40.2085 16.1512 32.6063 10.5 23.9682 10.5Z" stroke="#90BF57" stroke-width="3" stroke-linecap="round" stroke-linejoin="round"/>
<path d="M24 31.5C28.1421 31.5 31.5 28.1421 31.5 24C31.5 19.8579 28.1421 16.5 24 16.5C19.8579 16.5 16.5 19.8579 16.5 24C16.5 28.1421 19.8579 31.5 24 31.5Z" stroke="#90BF57" stroke-width="3" stroke-miterlimit="10"/>
</svg>
